<svg xmlns="http://www.w3.org/2000/svg" xmlns:xlink="http://www.w3.org/1999/xlink" width="207.2" height="172" viewBox="0 0 207.2 172">
  <defs>
    <clipPath id="clip-path">
      <path id="Clip_2" data-name="Clip 2" d="M0,0H207.2V172H0Z" fill="none"/>
    </clipPath>
    <clipPath id="clip-path-2">
      <path id="Clip_8" data-name="Clip 8" d="M0,0H125.128V23.041H0Z" transform="translate(0 -0.001)" fill="none"/>
    </clipPath>
    <clipPath id="clip-path-3">
      <path id="Clip_11" data-name="Clip 11" d="M0,0H125.128V23.04H0Z" transform="translate(0 -0.001)" fill="none"/>
    </clipPath>
    <clipPath id="clip-path-4">
      <path id="Clip_20" data-name="Clip 20" d="M0,0H48.42V40.876H0Z" transform="translate(0.007 0.369)" fill="none"/>
    </clipPath>
  </defs>
  <g id="Group_4" data-name="Group 4" transform="translate(-0.188)">
    <g id="Congratulation_Illustration" data-name="Congratulation Illustration">
      <g id="Art">
        <g id="Group_3" data-name="Group 3" transform="translate(0.188)" opacity="0.8">
          <path id="Clip_2-2" data-name="Clip 2" d="M0,0H207.2V172H0Z" fill="none"/>
          <g id="Group_3-2" data-name="Group 3" clip-path="url(#clip-path)">
            <path id="Fill_1" data-name="Fill 1" d="M133.169,6.929c-12.519,6.76-22.563,17.222-32.4,27.5S80.836,55.131,68.268,61.8c-10.715,5.687-22.732,8.367-34.035,12.771S12.8,83.961,5.65,95.555c-3.2,5.2-4.842,12.664-5.435,18.741-.868,8.892.954,18.043,4.311,26.324,4.386,10.821,13.871,19.024,24.518,23.82s22.427,6.5,34.084,7.19a212.307,212.307,0,0,0,46.535-2.377c13.628-2.214,27.131-5.8,39.5-11.921a104.247,104.247,0,0,0,49.477-52.746c9.487-22.728,11.562-49.286,3.8-72.66-3.54-10.664-8.84-19.983-18.651-26.118A36.525,36.525,0,0,0,170.675.757c-5.821-1.081-10.769-.84-16.732-.293a54.556,54.556,0,0,0-20.774,6.465" fill="#daebad" opacity="0.33"/>
          </g>
        </g>
      </g>
    </g>
    <g id="Group_53" data-name="Group 53" transform="translate(42 11)">
      <path id="Fill_1-2" data-name="Fill 1" d="M0,4.68c11.116.1,4.23,26.82,27.971,17.934-.045-.03-.1-.06-.138-.089C22.424,18.788,29.52,4.05,29.52,4.05L25.56,2.07,10.62,0A21.6,21.6,0,0,0,0,4.68" transform="translate(48.513 53.066)" fill="#e18980"/>
      <path id="Fill_3" data-name="Fill 3" d="M72.367,16.579C68.756,7.361,55.778,3.2,50.165.222A16,16,0,0,1,36.616,7.7,16.011,16.011,0,0,1,22.925,0C17.67,2.96,4.788,8.088,1.087,17.538-2.848,27.582,5.167,65.3,5.167,65.3l30.679-.768h.984l31.936,4.127s7.534-42.036,3.6-52.08" transform="translate(27.177 56.077)" fill="#7a8f41"/>
      <path id="Fill_5" data-name="Fill 5" d="M0,24.72c2.979.72,9.12-14.64,9.12-14.64L7.058,0" transform="translate(34.023 95.456)" fill="#e98e85"/>
      <g id="Group_9" data-name="Group 9" transform="translate(0 122.751)">
        <path id="Clip_8-2" data-name="Clip 8" d="M0,0H125.128V23.041H0Z" transform="translate(0 -0.001)" fill="none"/>
        <g id="Group_9-2" data-name="Group 9" clip-path="url(#clip-path-2)">
          <path id="Fill_7" data-name="Fill 7" d="M116.756,5.76C105.938,2.317,85.721,0,62.564,0S19.191,2.317,8.373,5.76H0v5.76c0,6.363,28.011,11.521,62.564,11.521s62.564-5.158,62.564-11.521V5.76Z" transform="translate(0 -0.001)" fill="#5f454f"/>
        </g>
      </g>
      <g id="Group_12" data-name="Group 12" transform="translate(0 116.991)">
        <path id="Clip_11-2" data-name="Clip 11" d="M0,0H125.128V23.04H0Z" transform="translate(0 -0.001)" fill="none"/>
        <g id="Group_12-2" data-name="Group 12" clip-path="url(#clip-path-3)">
          <path id="Fill_10" data-name="Fill 10" d="M125.128,11.52c0,6.362-28.01,11.52-62.564,11.52S0,17.882,0,11.52,28.011,0,62.564,0s62.564,5.157,62.564,11.52" transform="translate(0 -0.001)" fill="#7f5e6a"/>
        </g>
      </g>
      <path id="Fill_13" data-name="Fill 13" d="M8.427,3.478C7-.956,3.612.07,3.3.178,2.964.216-.535.736.07,5.355.678,10,3.374,12.522,5.9,11.782c2.6-.413,3.962-3.843,2.524-8.3" transform="translate(41.777 34.893)" fill="#e18980"/>
      <path id="Fill_15" data-name="Fill 15" d="M.584,3.478C2.013-.956,5.4.07,5.715.178c.332.038,3.83.558,3.226,5.178-.608,4.648-3.3,7.167-5.833,6.427-2.6-.413-3.962-3.843-2.524-8.3" transform="translate(76.577 34.893)" fill="#e18980"/>
      <path id="Fill_17" data-name="Fill 17" d="M.232,18.264C2-1.178,16.784-.088,18.178.058c1.393-.146,16.174-1.236,17.945,18.206,1.781,19.557-6.929,32.33-17.945,31.627C7.162,50.594-1.55,37.821.232,18.264" transform="translate(45.984 10.485)" fill="#ffae9e"/>
      <g id="Group_21" data-name="Group 21" transform="translate(42.16 0.351)">
        <path id="Clip_20-2" data-name="Clip 20" d="M0,0H48.42V40.876H0Z" transform="translate(0.007 0.369)" fill="none"/>
        <g id="Group_21-2" data-name="Group 21" clip-path="url(#clip-path-4)">
          <path id="Fill_19" data-name="Fill 19" d="M5.033,26.562S4.3,37.039,4.886,39.7H3.7S-.28,27.446.016,16.674a10.86,10.86,0,0,1,9.149-9.74S13.888-4.577,28.5,2.064c12.474,5.67,14.61,11.511,19.922,7.97,0,0-.147,4.279-5.9,4.722,0,0,3.246.737,5.312-.738,0,0-1.623,7.231-6.345,7.674,0,0,.885,11.511-1.624,19.184l-1.032-.148s.885-9.15-.148-11.953c0,0-2.508-1.771-2.213-8.707s-.033.412-.033.412-9.854,7.114-25.94-4.1C10.493,16.379,10.493,23.462,5.033,26.562Z" transform="translate(0.007 0.369)" fill="#7f5e6a"/>
        </g>
      </g>
      <path id="Fill_22" data-name="Fill 22" d="M0,0,16.56,15.12,21.6,2.64Z" transform="translate(85.863 121.376)" fill="#ffdfc0"/>
      <path id="Fill_24" data-name="Fill 24" d="M20.255,4.476A9.337,9.337,0,0,0,30.014,7.4C36.418,5.79,27.24-2.384,20,3.209,20,3.209.64-2.074.014.917s20.241,3.56,20.241,3.56" transform="translate(84.649 124.539)" fill="#c7b8b8"/>
      <path id="Fill_37" data-name="Fill 37" d="M0,1.665C2.19,8.26,9.369,13.1,17.895,13.1c8.154,0,15.076-4.427,17.58-10.581C33.56,1.643,31.866.887,30.614.223A16.007,16.007,0,0,1,17.064,7.7,16.009,16.009,0,0,1,3.373,0C2.489.5,1.329,1.05,0,1.665" transform="translate(46.729 63.997)" fill="#ff8176"/>
      <path id="Fill_39" data-name="Fill 39" d="M0,0S3.565,18.24,24.48,18.24C46.8,18.24,47.76.72,47.76.72Z" transform="translate(40.503 61.616)" fill="#ffedee"/>
      <path id="Fill_41" data-name="Fill 41" d="M47.52,3.48c0,1.922-10.637,3.48-23.76,3.48S0,5.4,0,3.48,10.637,0,23.76,0,47.52,1.558,47.52,3.48" transform="translate(40.743 59.696)" fill="#eedbdc"/>
      <path id="Fill_43" data-name="Fill 43" d="M0,2.66A107.982,107.982,0,0,0,19.146,4.08,115.632,115.632,0,0,0,37.1,2.879C35.544,1.243,27.778,0,18.426,0,9.494,0,2.008,1.134,0,2.66" transform="translate(45.358 62.576)" fill="#ffa755"/>
      <path id="Fill_45" data-name="Fill 45" d="M.366,41.136s-3.3,19.158,9.909,14.984,8.05-39.425,7.484-45.167c0,0-1.385-8.837-10.5-10.781-7.487-1.6,2.164,8.474,2.164,8.474Z" transform="translate(31.783 65.841)" fill="#ffae9e"/>
      <path id="Fill_47" data-name="Fill 47" d="M8.865,9.805s1.359-16.536-1.907-.754c0,0-.42-19.891-2.1-.7,0,0-2.847-15.627-2.236-.407,0,0-5.157-13.133-1,1.873Z" transform="translate(34.926 58.769)" fill="#ffae9e"/>
      <path id="Fill_49" data-name="Fill 49" d="M19.836,40.634S24.522,59.5,11.045,56.3.142,17.567.289,11.8c0,0,.736-8.914,9.684-11.517,7.352-2.139-1.54,8.61-1.54,8.61Z" transform="translate(75.697 67.55)" fill="#ffae9e"/>
      <path id="Fill_51" data-name="Fill 51" d="M.74,9.978s-2.56-16.393,1.847-.891c0,0-1.03-19.868,2.048-.85,0,0,1.7-15.793,2.2-.569,0,0,4.186-13.474,1.13,1.795Z" transform="translate(80.382 60.753)" fill="#ffae9e"/>
    </g>
  </g>
</svg>
