<svg id="Component_11_1" data-name="Component 11 – 1" xmlns="http://www.w3.org/2000/svg" xmlns:xlink="http://www.w3.org/1999/xlink" width="122" height="96" viewBox="0 0 122 96">
  <defs>
    <clipPath id="clip-path">
      <path id="Clip_2" data-name="Clip 2" d="M0,0H6.22V16.258H0Z" fill="none"/>
    </clipPath>
    <clipPath id="clip-path-2">
      <path id="Clip_49" data-name="Clip 49" d="M0,56.414H122V0H0Z" fill="none"/>
    </clipPath>
    <clipPath id="clip-path-3">
      <path id="Clip_2-2" data-name="Clip 2" d="M0,0H7.979V4.015H0Z" fill="none"/>
    </clipPath>
    <clipPath id="clip-path-4">
      <path id="Clip_5" data-name="Clip 5" d="M0,0H7.978V1.637H0Z" fill="none"/>
    </clipPath>
  </defs>
  <path id="Fill_1" data-name="Fill 1" d="M56.413,19.214C50.9,24.949,45.256,30.771,38.22,34.493c-6,3.174-12.727,4.67-19.054,7.128s-12,5.24-16,11.712C1.37,56.233.452,60.4.12,63.793A31.379,31.379,0,0,0,2.534,78.486C4.989,84.525,10.3,89.1,16.26,91.781s12.556,3.628,19.082,4.013a119.217,119.217,0,0,0,26.052-1.327,78.044,78.044,0,0,0,22.117-6.654,58.257,58.257,0,0,0,27.7-29.44c5.311-12.685,6.473-27.508,2.129-40.554C111.357,11.868,108.39,6.666,102.9,3.242A20.485,20.485,0,0,0,95.552.423,32.316,32.316,0,0,0,86.184.259a30.61,30.61,0,0,0-11.63,3.608C67.545,7.64,61.923,13.48,56.413,19.214Z" fill="#ffd5d5" opacity="0.33"/>
  <g id="Group_201" data-name="Group 201" transform="translate(0 19.631)">
    <g id="Group_3" data-name="Group 3" transform="translate(115.78 26.044)">
      <path id="Clip_2-12" data-name="Clip 2" d="M0,0H6.22V16.258H0Z" transform="translate(0)" fill="none"/>
      <g id="Group_3-2" data-name="Group 3" transform="translate(0)" clip-path="url(#clip-path)">
        <path id="Fill_1-2" data-name="Fill 1" d="M.166,11.782A53.06,53.06,0,0,1,.8,5.187c.452-2.575.858-4.056.863-4.072C1.717.889,2.577-.028,4.487,0S6.216,1.23,6.216,1.23a.384.384,0,0,1-.014.107,56.938,56.938,0,0,0-1.7,14.429c0,.114.014.31.006.441,0,0-4.427.113-4.428,0a21.464,21.464,0,0,1,.081-4.426" transform="translate(0 0)" fill="#d1a586"/>
      </g>
    </g>
    <path id="Fill_4" data-name="Fill 4" d="M.091,15.727c0,.113.062.2.135.2h0c.074,0,.132-.092.133-.2H4.155c0,.113.062.2.135.2h0c.075,0,.134-.095.134-.209A55.752,55.752,0,0,1,4.74,9.329,49.6,49.6,0,0,1,6.19,1.337.393.393,0,0,0,6.2,1.231S6.385.029,4.475,0,1.7.889,1.646,1.115c0,.012-.234.851-.54,2.359C1,3.974.9,4.547.783,5.187a53.113,53.113,0,0,0-.629,6.594,16.771,16.771,0,0,0-.063,3.945" transform="translate(115.298 26.044)" fill="#e5bd9e"/>
    <path id="Fill_6" data-name="Fill 6" d="M.091,12.253c0,.113.062.2.135.2h0c.074,0,.132-.092.133-.2H4.155c0,.113.062.2.135.2h0c.075,0,.134-.095.134-.209A55.752,55.752,0,0,1,4.74,5.855,11.933,11.933,0,0,0,1.106,0C1,.5.9,1.073.783,1.713A53.113,53.113,0,0,0,.153,8.307a16.771,16.771,0,0,0-.063,3.945" transform="translate(115.298 29.518)" fill="#dfb697"/>
    <path id="Fill_8" data-name="Fill 8" d="M3.63,15.212h0l-.01-.007s-.006,0-.007-.019h0a.1.1,0,0,0-.029-.078c-.092-.094-.385-.113-.8-.113L2.42,15H2.413c-.146,0-.3,0-.456,0a10.384,10.384,0,0,1-1.751-.124C-.2,14.805.073,11.712.363,8.818.412,8.33.451,7.938.468,7.71A55.047,55.047,0,0,1,1.756.845C1.8.666,2.437,0,3.812,0H3.88A1.458,1.458,0,0,1,5.012.392.728.728,0,0,1,5.187.94a.3.3,0,0,1-.011.082c-.006.024-.987,5.67-1.148,7.032-.273,2.3-.374,7.074-.375,7.121a.04.04,0,0,1,0,.007V15.2l-.023.014Zm-.847-.261c.436,0,.726.021.829.126V15.03c0-.111.008-.294.018-.635.012-.441.034-1.131.065-1.913.054-1.363.149-3.238.29-4.433.163-1.374,1.144-7.021,1.15-7.039A.268.268,0,0,0,5.144.937.7.7,0,0,0,4.978.42,1.419,1.419,0,0,0,3.88.044H3.822C2.464.043,1.843.684,1.8.856A56.111,56.111,0,0,0,.512,7.714c-.017.226-.056.608-.1,1.092l0,.016v0c-.193,1.927-.593,5.937-.192,6.006a10.32,10.32,0,0,0,1.743.123c.159,0,.31,0,.456,0h.006C2.53,14.952,2.661,14.95,2.782,14.95Z" transform="translate(115.583 26.521)" fill="#d1a586"/>
    <path id="Fill_10" data-name="Fill 10" d="M14.872,1.2H0S.346-.185,8.959.021c6.1.146,5.913,1.177,5.913,1.177" transform="translate(105.131 40.777)" fill="#e5bd9e"/>
    <path id="Fill_12" data-name="Fill 12" d="M2.521,14.226A54.986,54.986,0,0,1,1.242.265C1.247.132,1,.012.866.008s-.73-.039-.8.074A37.635,37.635,0,0,0,2.2,14.226Z" transform="translate(118.693 42.189)" fill="#d1a586"/>
    <path id="Fill_14" data-name="Fill 14" d="M0,14.226A54.984,54.984,0,0,0,1.279.265c0-.133.243-.253.377-.257s.73-.039.8.074A37.634,37.634,0,0,1,.322,14.226Z" transform="translate(107.328 42.189)" fill="#d1a586"/>
    <path id="Fill_16" data-name="Fill 16" d="M0,14.226A54.99,54.99,0,0,0,1.279.265c0-.133.243-.253.377-.257s.73-.039.8.074A37.635,37.635,0,0,1,.322,14.226Z" transform="translate(104.576 42.189)" fill="#a0795f"/>
    <path id="Fill_18" data-name="Fill 18" d="M2.521,14.226A54.988,54.988,0,0,1,1.242.265C1.247.132,1,.012.866.008s-.73-.039-.8.074A37.634,37.634,0,0,0,2.2,14.226Z" transform="translate(115.923 42.189)" fill="#a0795f"/>
    <path id="Fill_20" data-name="Fill 20" d="M.3.8H15.179a.3.3,0,0,0,.3-.3V.3a.3.3,0,0,0-.3-.3H.3A.3.3,0,0,0,0,.3V.5A.3.3,0,0,0,.3.8" transform="translate(104.818 41.617)" fill="#d1a586"/>
    <path id="Fill_22" data-name="Fill 22" d="M.166,11.944A54.528,54.528,0,0,1,.8,5.259c.452-2.611.858-4.112.863-4.128C1.717.9,2.577-.028,4.487,0S6.216,1.247,6.216,1.247a.4.4,0,0,1-.014.108,58.467,58.467,0,0,0-1.7,14.629c0,.115.014.315.006.447,0,0-4.426.114-4.428,0a22.058,22.058,0,0,1,.081-4.487" transform="translate(75.592 25.623)" fill="#d1a586"/>
    <path id="Fill_24" data-name="Fill 24" d="M.091,15.944c0,.114.062.206.135.206h0c.074,0,.132-.093.133-.206H4.155c0,.114.062.206.135.206h0c.075,0,.134-.1.134-.212a57.28,57.28,0,0,1,.315-6.48,50.91,50.91,0,0,1,1.45-8.1A.4.4,0,0,0,6.2,1.248S6.384.03,4.474,0,1.7.9,1.646,1.131c0,.012-.234.862-.54,2.391C1,4.029.9,4.609.783,5.259a54.566,54.566,0,0,0-.629,6.685,17.24,17.24,0,0,0-.063,4" transform="translate(75.11 25.623)" fill="#e5bd9e"/>
    <path id="Fill_26" data-name="Fill 26" d="M.091,12.422c0,.114.062.206.135.206h0c.074,0,.132-.093.133-.206H4.155c0,.114.062.206.135.206h0c.075,0,.134-.1.134-.212a57.28,57.28,0,0,1,.315-6.48A12.115,12.115,0,0,0,1.106,0C1,.507.9,1.087.783,1.737A54.566,54.566,0,0,0,.153,8.422a17.24,17.24,0,0,0-.063,4" transform="translate(75.11 29.145)" fill="#dfb697"/>
    <path id="Fill_28" data-name="Fill 28" d="M3.63,15.421h0l-.01-.007s-.006,0-.007-.019h0a.1.1,0,0,0-.03-.081c-.093-.095-.389-.114-.8-.114l-.353,0h0c-.15,0-.3,0-.467,0a10.226,10.226,0,0,1-1.746-.125C-.2,15.01.073,11.874.363,8.941c.051-.513.088-.894.105-1.124A57.509,57.509,0,0,1,1.756.856C1.8.675,2.436,0,3.811,0h.069A1.453,1.453,0,0,1,5.008.393a.749.749,0,0,1,.179.559.3.3,0,0,1-.011.083c-.006.024-.987,5.751-1.148,7.129-.272,2.332-.373,7.172-.374,7.22v.023l-.023.014Zm-.847-.265c.434,0,.725.021.828.127,0-.08.005-.212.012-.441l.007-.25c.012-.447.034-1.146.065-1.939.054-1.381.149-3.282.29-4.494.162-1.386,1.144-7.117,1.15-7.136A.28.28,0,0,0,5.144.949.713.713,0,0,0,4.974.421,1.414,1.414,0,0,0,3.88.044H3.815C2.462.044,1.843.693,1.8.868A57.269,57.269,0,0,0,.512,7.82l-.021,0,.021,0c-.017.229-.055.616-.1,1.105l0,.02V8.95C.213,10.9-.188,14.968.213,15.038a10.167,10.167,0,0,0,1.742.125c.158,0,.307,0,.451,0h.012C2.53,15.158,2.66,15.157,2.782,15.157Z" transform="translate(75.394 26.107)" fill="#d1a586"/>
    <path id="Fill_30" data-name="Fill 30" d="M14.872,1.214H0S.346-.188,8.96.021c6.1.148,5.913,1.193,5.913,1.193" transform="translate(64.943 40.559)" fill="#e5bd9e"/>
    <path id="Fill_32" data-name="Fill 32" d="M2.521,14.422A56.5,56.5,0,0,1,1.242.268C1.247.134,1,.012.866.008s-.73-.04-.8.075A38.65,38.65,0,0,0,2.2,14.422Z" transform="translate(78.505 41.99)" fill="#d1a586"/>
    <path id="Fill_34" data-name="Fill 34" d="M0,14.422A56.5,56.5,0,0,0,1.279.268c0-.134.243-.256.377-.261s.73-.04.8.075A38.649,38.649,0,0,1,.322,14.422Z" transform="translate(67.14 41.99)" fill="#d1a586"/>
    <path id="Fill_36" data-name="Fill 36" d="M0,14.422A56.5,56.5,0,0,0,1.279.268c0-.134.243-.256.377-.261s.73-.04.8.075A38.648,38.648,0,0,1,.322,14.422Z" transform="translate(64.388 41.99)" fill="#a0795f"/>
    <path id="Fill_38" data-name="Fill 38" d="M2.521,14.422A56.5,56.5,0,0,1,1.242.268C1.247.134,1,.012.866.008s-.73-.04-.8.075A38.648,38.648,0,0,0,2.2,14.422Z" transform="translate(75.734 41.99)" fill="#a0795f"/>
    <path id="Fill_40" data-name="Fill 40" d="M.3.81H15.177a.306.306,0,0,0,.3-.3V.3a.306.306,0,0,0-.3-.3H.3A.306.306,0,0,0,0,.3V.5a.306.306,0,0,0,.3.3" transform="translate(64.63 41.411)" fill="#d1a586"/>
    <path id="Fill_42" data-name="Fill 42" d="M5.914,0S3.2,3.105,2.639,3.055s-.915-.231-1.41,0C.873,3.221-.251,4.125.051,4.065s.848-.13.992-.144c.2-.019.517-.023.733-.061.137-.024.631-.038.8-.043.715-.024,4.1-2,4.1-2Z" transform="translate(102.275 32.571)" fill="#ffb27d"/>
    <path id="Fill_44" data-name="Fill 44" d="M1.152,1.744A1.153,1.153,0,0,1,0,.592V.144A1.145,1.145,0,0,1,.009,0H2.294A1.146,1.146,0,0,1,2.3.144V.364A1.381,1.381,0,0,1,2.578.332a.381.381,0,0,1,.2.041.241.241,0,0,1,.107.175.63.63,0,0,1-.152.468,1.818,1.818,0,0,1-.714.337A1.153,1.153,0,0,1,1.152,1.744ZM2.566.512A.362.362,0,0,0,2.3.669a1.135,1.135,0,0,1-.092.379c.141-.035.388-.113.445-.26a.278.278,0,0,0,.02-.223A.105.105,0,0,0,2.6.515Z" transform="translate(100.941 28.882)" fill="#c45446"/>
    <path id="Fill_46" data-name="Fill 46" d="M0,.144V.593A1.156,1.156,0,0,0,1.152,1.745a1.066,1.066,0,0,0,.155-.011A1.155,1.155,0,0,1,.31.593V.144A1.133,1.133,0,0,1,.319,0H.009A1.133,1.133,0,0,0,0,.144" transform="translate(101.128 28.882)" fill="#e37970"/>
    <path id="Clip_49-2" data-name="Clip 49" d="M0,56.414H122V0H0Z" fill="none"/>
    <g id="Mask_Group_2" data-name="Mask Group 2" clip-path="url(#clip-path-2)">
      <path id="Fill_48" data-name="Fill 48" d="M0,.141H.94V0H0Z" transform="translate(101.622 30.526)" fill="#c45446"/>
      <path id="Fill_50" data-name="Fill 50" d="M.648,1.81S.771.25,3.015.655c.593.107,1-.95,1.972-.574C7.077.893,7.2-.178,7.8,1.325c.253.629,1.861,1.362,1.37,2.45S9.5,5.595,8.927,6.447c-.3.441-.177,1.23-1.587,1.258-.7.014-1.8,1.315-2.583,1.551S1.6,9.151,1.692,8.07C1.762,7.227.778,7.3.174,6.327-.354,5.48.588,5.267.085,3.9c-.369-1,.593-1.249.564-2.087" transform="translate(109.427 14.993)" fill="#1c468a"/>
      <path id="Fill_51" data-name="Fill 51" d="M4.964,3.7c.048.522-.678.649-1.519.69s-.587.214-1.74.423S.09,4.7.007,4.548c-.074-.138.462-.354,1.033-.6l.216-.093a5.039,5.039,0,0,0,1.5-1.394A7.394,7.394,0,0,0,3.686.335L5.252,0s-.44,1.459-.593,2.082A1.93,1.93,0,0,0,4.82,3.17a2.047,2.047,0,0,1,.144.527" transform="translate(92.779 51.475)" fill="#ffb27d"/>
      <path id="Fill_52" data-name="Fill 52" d="M3.445,1.218c-.841.042-.587.214-1.74.423S.09,1.534.007,1.378C-.067,1.24.469,1.024,1.04.78l.009.01A3.283,3.283,0,0,0,2.795.81C3.557.6,4.295.147,4.82,0a2.05,2.05,0,0,1,.144.527c.048.522-.678.649-1.519.69" transform="translate(92.779 54.644)" fill="#c65447"/>
      <path id="Fill_53" data-name="Fill 53" d="M15.745,0S7.063.39,5.1,1.627,0,17.271,0,17.271a1.277,1.277,0,0,0,.627.2,5.257,5.257,0,0,0,1.29-.193s4.517-6.446,4.835-8.07.24-3.073.965-3.112S17.474,7.2,18.84,4.789,15.745,0,15.745,0" transform="translate(95.87 35.421)" fill="#163560"/>
      <path id="Fill_54" data-name="Fill 54" d="M4.964,3.7c.048.522-.678.649-1.519.69s-.587.214-1.74.423S.09,4.7.007,4.548c-.074-.138.462-.354,1.033-.6l.216-.093a5.038,5.038,0,0,0,1.5-1.394A7.394,7.394,0,0,0,3.686.335L5.252,0s-.44,1.459-.593,2.082A1.93,1.93,0,0,0,4.82,3.17a2.05,2.05,0,0,1,.144.527" transform="translate(96.36 51.533)" fill="#ffb27d"/>
      <path id="Fill_55" data-name="Fill 55" d="M3.445,1.218c-.841.042-.587.214-1.74.423S.09,1.534.007,1.378C-.067,1.24.469,1.024,1.04.78l.009.01A3.283,3.283,0,0,0,2.795.81C3.557.6,4.295.147,4.82,0a2.052,2.052,0,0,1,.144.527c.048.522-.678.649-1.519.69" transform="translate(96.36 54.703)" fill="#c65447"/>
      <path id="Fill_56" data-name="Fill 56" d="M15.648,0S6.4.438,4.49,1.75,0,17.58,0,17.58a1.278,1.278,0,0,0,.635.178,5.26,5.26,0,0,0,1.282-.243S6.179,10.9,6.434,9.263s.121-3.08.843-3.147,9.792.717,11.063-1.741S15.648,0,15.648,0" transform="translate(99.332 35.626)" fill="#1c468a"/>
      <path id="Fill_57" data-name="Fill 57" d="M8.254,3.038l-.012-.014A1.459,1.459,0,0,0,7.984,2.8l0,0h0a5.224,5.224,0,0,0-2.105-.641h0s-.147-.014-.381-.025A7,7,0,0,1,5.052,0L4.918.036l-2.25.6s.1.714.146,1.39c.01.148.018.294.021.431a5.181,5.181,0,0,0-1.77.548A19.633,19.633,0,0,0,0,5.9l8.663.142s.217-2.264-.409-3" transform="translate(109.495 20.773)" fill="#ffb27d"/>
      <path id="Fill_58" data-name="Fill 58" d="M11.087,15.737c-1.026.1-4.482-1.99-5.634-2.669l-.058-.034a5.488,5.488,0,0,0-1.8-.521c-.817-.134-1.58-.224-1.825-.516-.291-.348.564-.734,1.251-1.133a1.9,1.9,0,0,0,.745-.613,2.358,2.358,0,0,0,.018-.969h0c-.008-.085-.019-.173-.031-.264a2.936,2.936,0,0,1-.206.356,5.223,5.223,0,0,1-.734.859,2.438,2.438,0,0,1-.853.588.672.672,0,0,1-.407-.037,2.618,2.618,0,0,1-.983-.918C.51,9.775.449,9.685.393,9.6.2,9.314.07,9.078.02,9.022c-.154-.17.617-.506.934-.759A42.287,42.287,0,0,0,2.513,3.106,19.662,19.662,0,0,1,3.579.213,3.794,3.794,0,0,0,6.306,1.58,13.5,13.5,0,0,0,10.492,0a.953.953,0,0,1,.274.243c.626.741.409,3,.409,3s-1.2,5.281-1.2,5.814A37.1,37.1,0,0,0,11.171,13.9c.245,1.025.321,1.8-.084,1.835" transform="translate(106.981 23.568)" fill="#6bb7bf"/>
      <path id="Fill_59" data-name="Fill 59" d="M0,.6s.1.714.146,1.39A2.711,2.711,0,0,0,2.25,0Z" transform="translate(112.163 20.809)" fill="#f4a269"/>
      <path id="Fill_60" data-name="Fill 60" d="M1.24,5.182s3.022-.151,2.9-2.032S4.323-.017,2.388,0,.126.759.014,1.4.451,5.173,1.24,5.182" transform="translate(110.539 16.899)" fill="#ffb27d"/>
      <path id="Fill_61" data-name="Fill 61" d="M0,1.25s.722-.169.958.183.067.548.594.7.706.137.653.506.53.643.555.938a.517.517,0,0,0,.5.464c.232.021.126-3.8-.769-3.973A3.015,3.015,0,0,0,.467.305,2.5,2.5,0,0,0,0,1.25" transform="translate(111.652 16.318)" fill="#1c468a"/>
      <path id="Fill_62" data-name="Fill 62" d="M1.637,1.011s-.7-.049-.829.351.042.5-.137.738A.959.959,0,0,0,.6,2.772S-.794.214.671.045s1.426.13.966.966" transform="translate(110.015 16.557)" fill="#1c468a"/>
      <path id="Fill_63" data-name="Fill 63" d="M3.36,4.622A7.79,7.79,0,0,1,2.425,6.44a2.439,2.439,0,0,1-.853.588.672.672,0,0,1-.407-.037,2.618,2.618,0,0,1-.983-.918C.117,5.984.056,5.894,0,5.808A7.528,7.528,0,0,0,2.969.863c.259-3.294.405,3.911.392,3.759" transform="translate(107.374 27.359)" fill="#599dad"/>
      <path id="Fill_64" data-name="Fill 64" d="M0,1.41A4.281,4.281,0,0,1,1.994,0,4.059,4.059,0,0,1,.407,1.447.672.672,0,0,1,0,1.41" transform="translate(108.539 32.941)" fill="#599dad"/>
      <path id="Fill_65" data-name="Fill 65" d="M7.831,0S7.076,7.583,3.737,8.625l-.058-.034a5.488,5.488,0,0,0-1.8-.521C1.066,7.936.3,7.845.058,7.553-.232,7.205.623,6.82,1.31,6.42a1.9,1.9,0,0,0,.745-.613,2.358,2.358,0,0,0,.018-.969h0C5.314,3.639,7.831,0,7.831,0" transform="translate(108.697 28.011)" fill="#599dad"/>
      <path id="Fill_66" data-name="Fill 66" d="M15.072.93c-.35-1.576-1.937-.672-1.937-.672-.55-.126-4.588,6.42-4.912,6.568A38.79,38.79,0,0,1,3.1,5.538,9.725,9.725,0,0,0,1.6,4.5c-.21-.016-1.61.344-1.6.566s.337.549.854.631c.392.063,1.056.321,1.48.385,0,0,4.108,2.8,5.856,3.139,1.574.307,7.232-6.716,6.882-8.292" transform="translate(102.306 24.835)" fill="#ffb27d"/>
      <path id="Fill_67" data-name="Fill 67" d="M.37,6.377S-.577,8.81.558,9.735s3.6.614,6.293-3.147S10.644.78,9.244.183s-2.557.34-3.275,1.8c-.746,1.52-2.122,3.625-2.947,3.705A18.415,18.415,0,0,0,.37,6.377" transform="translate(107.698 24.738)" fill="#6bb7bf"/>
      <path id="Fill_68" data-name="Fill 68" d="M.01,2.119l0,.367S-.088,3.635,1.327,3.8s2.574.146,2.536-.74A18.712,18.712,0,0,1,3.5.743a4,4,0,0,1,.05-.688L.807,0,0,.132Z" transform="translate(91.503 5.973)" fill="#ffb27d"/>
      <path id="Fill_69" data-name="Fill 69" d="M0,.132.01,2.119A2.317,2.317,0,0,0,1,2.337,3.061,3.061,0,0,0,3.5.743a4,4,0,0,1,.05-.688L.807,0Z" transform="translate(91.503 5.973)" fill="#e2915a"/>
      <path id="Fill_70" data-name="Fill 70" d="M4.525,4.31C4.207,6.022,2,5.966,1.044,5.858c-.269-.03-.438-.064-.438-.064C.3,5.713.135,5.236.056,4.611A9.734,9.734,0,0,1,.306,1.1C.62.4,1.213-.359,3.436.187s1.5,1.931,1.088,4.124" transform="translate(90.736 1.276)" fill="#ffb27d"/>
      <path id="Fill_71" data-name="Fill 71" d="M3.129,1.916H0A7.55,7.55,0,0,1,.25.793,3.178,3.178,0,0,1,.427.342C.731-.265,2.664.121,2.664.121a1.488,1.488,0,0,1,.32.741,6.223,6.223,0,0,1,.145,1.054" transform="translate(93.938 54.342)" fill="#233862"/>
      <path id="Fill_72" data-name="Fill 72" d="M6.406,2.2a1.7,1.7,0,0,1-.217.988H0a1.068,1.068,0,0,1,.937-.664,4.7,4.7,0,0,0,2.5-1.159A1.865,1.865,0,0,0,3.927.489c.291-1.3,2.408.4,2.408.4A10.493,10.493,0,0,1,6.406,2.2" transform="translate(81.205 53.068)" fill="#233862"/>
      <path id="Fill_73" data-name="Fill 73" d="M7.211,15.788a9.749,9.749,0,0,0-.155,1.143c-.2,3.838-3.231,12.614-3.774,12.819-.84.317-2.162-.357-2.854-.577A.593.593,0,0,1,.012,28.5c1.5-6.907,2.055-16.854,2.256-22.743A26.719,26.719,0,0,1,2.879.741s7.4-1.974,7.444.523c.039,2.21-2.451,10.878-3.111,14.524" transform="translate(84.517 25.468)" fill="#2b478b"/>
      <path id="Fill_74" data-name="Fill 74" d="M4.943,15.788,0,5.756A26.719,26.719,0,0,1,.611.741s7.4-1.974,7.444.523C8.094,3.474,5.6,12.142,4.943,15.788" transform="translate(86.785 25.468)" fill="#233862"/>
      <path id="Fill_75" data-name="Fill 75" d="M0,.9,3.912,29.255a7.653,7.653,0,0,0,3.054.083s1.145-15.079,1.05-18.725S8.838.858,7.807.184,0,.9,0,.9" transform="translate(90.082 25.839)" fill="#2b478b"/>
      <path id="Fill_76" data-name="Fill 76" d="M.022.743A7.359,7.359,0,0,0,2.156.165a3.253,3.253,0,0,1,2.5.243A.571.571,0,0,0,4.565.178a.515.515,0,0,1,.2.293c.018.013.026.022.021.025A.66.66,0,0,1,5.1.517S5.017.5,4.986.561a.051.051,0,0,1-.014.015A2.876,2.876,0,0,1,6.1,4.127,11.73,11.73,0,0,0,4.853,6.219a1.242,1.242,0,0,1-.145-.908c.1-.566-.386-.566-1-.823s-.1-.978-.643-1.415-2.521-.18-2.5-.515C-.168,2.29.022.818.022.743" transform="translate(90.337 0)" fill="#233862"/>
      <path id="Fill_77" data-name="Fill 77" d="M8.208,0l-.9,19.325S-.21,19.448,0,17.747,2.714.592,2.714.592Z" transform="translate(87.491 9.528)" fill="#e9f3fe"/>
      <path id="Fill_78" data-name="Fill 78" d="M5.162,11.673c-.447,1.342.4,5.844.7,7.369.066.323.11.513.11.513-1.041,1.694-4.854,1.672-4.854,1.672A72.873,72.873,0,0,1,0,12.824L2.925,0,6.606,3.4s-.279,2.075-.623,4.187a35,35,0,0,1-.821,4.084" transform="translate(93.221 8.809)" fill="#22407a"/>
      <path id="Fill_79" data-name="Fill 79" d="M1.064.2S.992.425.435.344c0,0-.468-.068-.433-.314A1.518,1.518,0,0,1,1.064.2" transform="translate(91.063 5.664)" fill="#fff"/>
      <path id="Fill_80" data-name="Fill 80" d="M6.553,20.686a2.505,2.505,0,0,1-1.689-1.934,17.7,17.7,0,0,1,.268-4.066c.037-.293.074-.591.11-.892a.591.591,0,0,1-.127.013,1.526,1.526,0,0,1-.473-.1,25.391,25.391,0,0,1-2.633-2.17,9.656,9.656,0,0,1-1.6-1.9A1.792,1.792,0,0,1,.118,7.916C1.1,5.985,6.235,1.013,6.287.963V.955A10.745,10.745,0,0,1,9.485,0a100.361,100.361,0,0,0-2.1,12.264c-.28,2.867-.8,8.366-.8,8.406C6.586,20.681,6.575,20.686,6.553,20.686ZM5.532,7.079h0L5.507,7.1l-.488.305c-.965.6-1.726,1.076-1.726,1.315a.046.046,0,0,0,.007.03c.109.321,1.65,2.738,2.119,3.47A21.441,21.441,0,0,0,5.549,8.8C5.516,8.288,5.51,7.711,5.532,7.079Z" transform="translate(81.614 8.848)" fill="#22407a"/>
      <path id="Fill_81" data-name="Fill 81" d="M3.512.439C3.521.255,2.647,0,2.647,0A3.629,3.629,0,0,1,0,1.41,2.919,2.919,0,0,0,1.023,2.56S3.457,1.534,3.512.439" transform="translate(92.401 8.347)" fill="#d9e9f9"/>
      <path id="Fill_82" data-name="Fill 82" d="M1.76,1.086S.888.569.885.008c0,0-.564-.071-.81.2A2.9,2.9,0,0,0,.142,1.73S1.4,1.539,1.76,1.086" transform="translate(90.64 8.638)" fill="#d9e9f9"/>
      <path id="Fill_83" data-name="Fill 83" d="M1.334.284.15,0A.179.179,0,0,0,0,.206a1.507,1.507,0,0,0,.479.8c.146.045,1.135-.334.855-.724" transform="translate(91.659 9.358)" fill="#ba4c43"/>
      <path id="Fill_84" data-name="Fill 84" d="M3.374.564C3.383.38,2.792,0,2.792,0A4.164,4.164,0,0,1,0,1.361a2.919,2.919,0,0,0,1.023,1.15S3.319,1.66,3.374.564" transform="translate(92.401 8.126)" fill="#e9f3fe"/>
      <path id="Fill_85" data-name="Fill 85" d="M1.753,1.029S.871.561.868,0A2.82,2.82,0,0,0,.089.508,1.619,1.619,0,0,0,.135,1.673s1.257-.191,1.618-.644" transform="translate(90.647 8.459)" fill="#e9f3fe"/>
      <path id="Fill_86" data-name="Fill 86" d="M.071,12.806a1.824,1.824,0,0,0,.581,1.179l.524.483a.307.307,0,0,0,.449-.036l.649-.825a1.1,1.1,0,0,0,.229-.781C2.443,12.2,2.33,11,2.24,9.84,2.166,8.9,2.107,7.987,2.1,7.431,2.088,5.657,2.44,0,2.44,0L2.015.022A22.779,22.779,0,0,0,.406,5.206,19.781,19.781,0,0,0,.112,7.535a43.089,43.089,0,0,0-.04,5.271" transform="translate(90.016 10.012)" fill="#c65447"/>
      <path id="Fill_87" data-name="Fill 87" d="M.071,7.6A1.824,1.824,0,0,0,.652,8.779l.524.483a.307.307,0,0,0,.449-.036L2.275,8.4A1.1,1.1,0,0,0,2.5,7.621C2.443,7,2.33,5.795,2.24,4.634A8.582,8.582,0,0,1,.406,0,19.781,19.781,0,0,0,.112,2.329,43.089,43.089,0,0,0,.071,7.6" transform="translate(90.016 15.218)" fill="#ba4c43"/>
      <path id="Fill_88" data-name="Fill 88" d="M0,.823A.814.814,0,0,1,.92.009.5.5,0,0,1,1.262.2c.335.446.654,1.744.06,1.8a1.3,1.3,0,0,1-.791-.327A1.151,1.151,0,0,1,0,.9Z" transform="translate(85.904 22.047)" fill="#ffb27d"/>
      <path id="Fill_89" data-name="Fill 89" d="M2.876,11.453C1.8,10.331-.064,8.124,0,6.313.09,3.776,3,0,3,0a35,35,0,0,1-.821,4.084c-.447,1.342.4,5.844.7,7.369" transform="translate(96.204 16.398)" fill="#233862"/>
      <path id="Fill_90" data-name="Fill 90" d="M3.36,0A1.929,1.929,0,0,1,2.114.194,1.2,1.2,0,0,0,.565.453c-.526.6-.636,1.014-.526,1.235s1.337.138,1.54,0,.525-.479.729-.42A1.288,1.288,0,0,0,3.611.66C3.771.454,3.339.354,3.36,0" transform="translate(95.686 23.438)" fill="#ffb27d"/>
      <path id="Fill_91" data-name="Fill 91" d="M0,0S3.086.342,3.814,1.686,8.326,8.476,8.2,10.739s-5.163,4.8-5.163,4.8-1.116-.472-1.133-.979,3.483-3.54,3.271-4.106S1.112,5.415.74,3.939,0,0,0,0" transform="translate(96.147 8.809)" fill="#22407a"/>
      <path id="Fill_92" data-name="Fill 92" d="M2.247,1.386l-.022.022C1.074,2.134.011,2.75.011,3.029-.143,2.538,1.353.485,1.837.067s.411,1.32.411,1.32" transform="translate(84.896 14.542)" fill="#233862"/>
      <path id="Fill_93" data-name="Fill 93" d="M2.01,0S-.333,9.813.04,13.509A25.184,25.184,0,0,1,2.975,6.324s-.756-.665-.715-.911a2.59,2.59,0,0,1,1.106-.054s-.06-4.23-.4-4.677A2.476,2.476,0,0,0,2.01,0" transform="translate(93.182 8.126)" fill="#233862"/>
      <path id="Fill_94" data-name="Fill 94" d="M2.52,0C2.568-.028.2,9.589,0,12.653c0,0,.235-5.468.212-7.045,0,0,.973-.515.973-.7S.147,4.243.147,4.243A20,20,0,0,1,1.163.5,3,3,0,0,1,2.52,0" transform="translate(88.995 8.459)" fill="#233862"/>
      <path id="Fill_95" data-name="Fill 95" d="M3.962,3.941a.439.439,0,0,1,.078.47v0a2.921,2.921,0,0,1-.923,1.012c-.056.045-.105.086-.148.123l-.033.03L2.909,5.6c-.405.374-.253.459-.981,1.218-.831.864-1.4.88-1.565.8C.225,7.554.5,7.1.814,6.58L.86,6.5.983,6.3c.363-.62.27-.911.184-1.834C1.1,3.714,0,.274,0,.274L1.592,0S2.071,2.739,2.6,3.161c.283.225.6.228.87.394l.056.036a2.09,2.09,0,0,1,.436.35" transform="translate(70.473 47.178)" fill="#ffb27d"/>
      <path id="Fill_96" data-name="Fill 96" d="M3.635.386a.439.439,0,0,1,.078.47v0a3.383,3.383,0,0,1-.924,1.009c-.055.046-.1.088-.147.127l-.033.03-.026.023c-.405.374-.253.459-.981,1.218-.831.864-1.4.88-1.565.8C-.1,4,.178,3.54.488,3.025A3.54,3.54,0,0,0,1.969,1.934C2.469,1.3,2.8.475,3.143,0L3.2.036a2.09,2.09,0,0,1,.436.35" transform="translate(70.799 50.733)" fill="#c65447"/>
      <path id="Fill_97" data-name="Fill 97" d="M4.778,3.431c-.1.491-.8.409-1.581.218s-.6.036-1.71-.087S.035,3.024,0,2.858c-.03-.147.52-.2,1.11-.267l.223-.027A4.819,4.819,0,0,0,3.095,1.7,7.072,7.072,0,0,0,4.524,0L6.051.121S5.25,1.338,4.94,1.868a1.846,1.846,0,0,0-.15,1.041,1.96,1.96,0,0,1-.012.523" transform="translate(56.819 46.693)" fill="#ffb27d"/>
      <path id="Fill_98" data-name="Fill 98" d="M3.2,1.058c-.783-.191-.6.036-1.71-.087S.035.432,0,.267C-.029.12.521.068,1.111,0l.005.011a3.14,3.14,0,0,0,1.6.5c.756.018,1.556-.2,2.078-.19A1.957,1.957,0,0,1,4.778.84c-.1.491-.8.409-1.581.218" transform="translate(56.819 49.285)" fill="#c65447"/>
      <path id="Fill_99" data-name="Fill 99" d="M2.563,1.058S2.2.166,1.8.13.125-.107.034.075A1.259,1.259,0,0,0,.307,1.149a9.731,9.731,0,0,0,1.965.619Z" transform="translate(62.433 26.632)" fill="#ffb27d"/>
      <path id="Fill_100" data-name="Fill 100" d="M0,2.449l3.292,8.859a3.014,3.014,0,0,0,.991-.091,4.268,4.268,0,0,0,.957-.466S4.423,2.244,2.926.475,0,2.449,0,2.449" transform="translate(67.451 37.909)" fill="#aa413e"/>
      <path id="Fill_101" data-name="Fill 101" d="M20.013,2.613S10.553-.586,8.444.1,0,13.378,0,13.378a1.222,1.222,0,0,0,.533.337,5.031,5.031,0,0,0,1.241.127s5.716-4.9,6.4-6.329S9.124,4.723,9.8,4.859s8.779,3.335,10.616,1.429a5.3,5.3,0,0,0,1.357-4.381Z" transform="translate(60.459 34.16)" fill="#c65447"/>
      <path id="Fill_102" data-name="Fill 102" d="M.9,8.045a5.378,5.378,0,0,1-.4-1.853,5.689,5.689,0,0,0,.662,2.049c1.967,1.292,5.738,5.6,5.663,6.421,0,0,1.328-2.253,1.351-2.266,0,0,2.45-3.115-.454-4.9A2.893,2.893,0,0,1,6.309,4.414C6.371,3.4,5.907-.951,2.95.189A1.925,1.925,0,0,0,2.264.009a.581.581,0,0,1,.262.124A2.294,2.294,0,0,0,1.284.371C.2.987-.77,6.512.9,8.045" transform="translate(73.795 13.848)" fill="#b5453c"/>
      <path id="Fill_103" data-name="Fill 103" d="M0,2.913a2.725,2.725,0,0,0,1.672.305A2.169,2.169,0,0,0,2.785,2.15C2.5,2.093,2.415,1.7,2.421,0l-.13.026L.1.458s.05.688.051,1.336c0,.544-.032,1.06-.156,1.118" transform="translate(75.067 19.24)" fill="#ffb27d"/>
      <path id="Fill_104" data-name="Fill 104" d="M0,.433s.05.688.051,1.336A2.593,2.593,0,0,0,2.186,0Z" transform="translate(75.172 19.266)" fill="#ed975d"/>
      <path id="Fill_105" data-name="Fill 105" d="M3.788,4.491a6.428,6.428,0,0,0,.795-1.879c.11-.618-.205-2.91-2.508-2.58a3.129,3.129,0,0,0-1.3.491C.277.861-.444,1.59.362,3.59l.21.675Z" transform="translate(73.795 14.537)" fill="#b5453c"/>
      <path id="Fill_106" data-name="Fill 106" d="M.964,4.883s2.894.048,2.9-1.755S4.237.118,2.389.011.182.592.035,1.193s.177,3.631.929,3.69" transform="translate(73.799 15.429)" fill="#ffb27d"/>
      <path id="Fill_107" data-name="Fill 107" d="M0,.366S.792,2.481,2.008,2.794a2.394,2.394,0,0,0,1.743-.013A3.444,3.444,0,0,1,2.626.746S.6-.64,0,.366" transform="translate(74.87 15.03)" fill="#b5453c"/>
      <path id="Fill_108" data-name="Fill 108" d="M1.465.345a2.555,2.555,0,0,0-.736.931C.585,1.735.52,2.68.245,2.648c0,0-.6-1.438.074-2.251C1.03-.465,1.465.345,1.465.345" transform="translate(73.602 15.223)" fill="#b5453c"/>
      <path id="Fill_109" data-name="Fill 109" d="M9.661,15.434c-.156.433-.635.545-1.276.47a19.083,19.083,0,0,1-4.35-1.532c-2-.865-2.9-.052-3.539-.6s.726-1.775-.454-7.462C-.357,4.378,2.178.244,2.178.244S2.4,1.441,4.823,0a15.042,15.042,0,0,1,1.96,3.106C7.8,5.03,8.767,7.352,8.482,8.549c-.544,2.282,1.633,5.625,1.18,6.885" transform="translate(73.029 21.389)" fill="#699dee"/>
      <path id="Fill_110" data-name="Fill 110" d="M10.833,0l-1.5,6.134s-.186.331-.478.8C8.176,8.044,6.908,9.924,6.1,10.115A4.575,4.575,0,0,1,3.9,9.4,44.546,44.546,0,0,1,.017,7.091,1.869,1.869,0,0,1,.592,5.609s4.265,1.6,4.689,1.633c.923.066,1.863-4.391,2.726-5.875C8.63.293,10.833,0,10.833,0" transform="translate(64.374 21.634)" fill="#699dee"/>
      <path id="Fill_111" data-name="Fill 111" d="M1.088.146S1.034.375.464.34c0,0-.478-.03-.464-.281A1.539,1.539,0,0,1,1.088.146" transform="translate(74.319 19.073)" fill="#fff"/>
      <path id="Fill_112" data-name="Fill 112" d="M5.74,10.1c-.156.433-.635.545-1.276.47C3.617,10.2-.041,8.779,0,7.819.061,6.4.7,6.352.25,4.6-.114,3.189,3.265.569,3.8,0c1.013,1.923,1.042,2.014.756,3.211C4.016,5.492,6.193,8.836,5.74,10.1" transform="translate(76.951 26.728)" fill="#4a75cb"/>
      <path id="Fill_113" data-name="Fill 113" d="M4.956.245C4.272,1.352,3,3.232,2.193,3.423A4.574,4.574,0,0,1,0,2.709a5.7,5.7,0,0,0,2,.11c.7-.068.907-.93,2.019-2.223.721-.838.9-.627.933-.351" transform="translate(68.278 28.326)" fill="#4a75cb"/>
      <path id="Fill_114" data-name="Fill 114" d="M2.032.38A1.744,1.744,0,0,0,.841.017C.262.131-.021.528,0,.709a1.032,1.032,0,0,0,.771.737,8.352,8.352,0,0,0,1.7-.272Z" transform="translate(74.591 30.911)" fill="#ffb27d"/>
      <path id="Fill_115" data-name="Fill 115" d="M1.46,0S3.819.145,4.635,1.284c1.149,1.6,3.146,8.148,2.6,9.645L.061,10.9A2.122,2.122,0,0,1,.129,9.693C.37,9.3,4.3,8.664,4.484,8.483S2.216,4.944,2.216,4.4,1.46,0,1.46,0" transform="translate(76.392 21.391)" fill="#699dee"/>
      <path id="Fill_116" data-name="Fill 116" d="M10.254,5.462H1.566L0,0H8.674Z" transform="translate(65.753 28.51)" fill="#1c468a"/>
      <path id="Fill_117" data-name="Fill 117" d="M0,.213H11.358V0H0Z" transform="translate(67.349 33.759)" fill="#163560"/>
      <path id="Fill_118" data-name="Fill 118" d="M.014.348A.253.253,0,0,1,.262,0,.5.5,0,0,1,.709.348.253.253,0,0,1,.461.7.5.5,0,0,1,.014.348" transform="translate(70.064 30.805)" fill="#163560"/>
      <path id="Fill_119" data-name="Fill 119" d="M4.175.038l-.6,3.38h0L1.932,12.755.459,21.1a.269.269,0,0,1-.267.219A.189.189,0,0,1,0,21.109l1.27-9.462L2.63,1.527,2.835,0Z" transform="translate(33.402 35.093)" fill="#c69d7f"/>
      <path id="Fill_120" data-name="Fill 120" d="M4.175.038l-.6,3.38h0L1.932,12.755.459,21.1a.268.268,0,0,1-.267.219A.189.189,0,0,1,0,21.109l1.27-9.462L2.63,1.527,2.835,0Z" transform="translate(39.923 35.093)" fill="#c69d7f"/>
      <path id="Fill_121" data-name="Fill 121" d="M.949,3.418A1.852,1.852,0,0,0,0,1.527L.205,0l1.34.038Z" transform="translate(36.032 35.093)" fill="#a0795f"/>
      <path id="Fill_122" data-name="Fill 122" d="M3.983,21.32a.269.269,0,0,1-.267-.219L2.408,13.686.526,3.021,0,.038,1.34,0l.232,1.731L3.206,13.9l.968,7.211a.189.189,0,0,1-.191.211" transform="translate(89.85 35.093)" fill="#c69d7f"/>
      <path id="Fill_123" data-name="Fill 123" d="M1.573,1.731A1.923,1.923,0,0,0,.526,3.021L0,.038,1.34,0Z" transform="translate(89.85 35.093)" fill="#a0795f"/>
      <path id="Fill_124" data-name="Fill 124" d="M3.983,21.32a.269.269,0,0,1-.267-.219L2.408,13.686.526,3.021,0,.038,1.34,0l.232,1.731L3.206,13.9l.968,7.211a.189.189,0,0,1-.191.211" transform="translate(97.365 35.093)" fill="#c69d7f"/>
      <path id="Fill_125" data-name="Fill 125" d="M1.573,1.731A1.923,1.923,0,0,0,.526,3.021L0,.038,1.34,0Z" transform="translate(97.365 35.093)" fill="#a0795f"/>
      <path id="Fill_126" data-name="Fill 126" d="M71.094,2.342H1.159A1.162,1.162,0,0,1,0,1.183V1.159A1.162,1.162,0,0,1,1.159,0H71.094a1.162,1.162,0,0,1,1.159,1.159v.024a1.162,1.162,0,0,1-1.159,1.159" transform="translate(30.073 33.96)" fill="#e0b594"/>
      <path id="Fill_175" data-name="Fill 175" d="M14.378,7.6a2.057,2.057,0,0,0-.994.318A17.557,17.557,0,0,1,11.565,7.1S6.6,4.647,6.341,4.505L2.76,0,0,1.273s4.027,4.79,4.282,5,7.368,2.706,7.987,2.946c0,0,.624.57,1.027.914a4.275,4.275,0,0,0,1.072.559,4.51,4.51,0,0,0,1.093.383c.542.118.09-.25.09-.25s-.959-.4-.912-.478c.036-.056.546.2,1.144.334.154.035.306.069.446.1.367.079.528-.131.16-.277a3.59,3.59,0,0,0-.514-.166,2.969,2.969,0,0,1-.471-.185,3.869,3.869,0,0,1-.484-.194c.015-.013-.026-.076.139-.044a9.094,9.094,0,0,0,.893.25c.168.019.516.081.516.081s.616.059.62-.027c.009-.189-.37-.294-.6-.289a2.428,2.428,0,0,0-.515-.129s-.714-.282-.672-.387a5.051,5.051,0,0,1,.907.054c.485.033.836.033.862-.061.041-.149-.345-.205-.345-.205s-.34-.05-.452-.075c-.131-.03-.514-.15-.514-.15s-1.313-.482-1.266-.579.264-.3.357-.3.258.093.351.093.292-.017.306-.134S15,7.7,15,7.7a1.454,1.454,0,0,0-.627-.1" transform="translate(21.172 12.91)" fill="#ffb27d"/>
      <g id="Group_7" data-name="Group 7" transform="translate(33.566 18.075) rotate(42)">
        <path id="Rectangle" d="M1.915,0H5.938L8.045,1.532V5.746H0V1.532Z" fill="#fff"/>
        <g id="Group_3-3" data-name="Group 3" transform="translate(0 1.76)">
          <path id="Clip_2-13" data-name="Clip 2" d="M0,0H7.979V4.015H0Z" fill="none"/>
          <g id="Group_3-4" data-name="Group 3" clip-path="url(#clip-path-3)">
            <path id="Fill_1-3" data-name="Fill 1" d="M7.979,4.015V0H0V2.477l.283-.171a.814.814,0,0,1,.1-.1l.326-.292c.075-.058.241-.215.334-.283s.233-.2.34-.278L1.836.983c.038-.032.072-.058.109-.094A1.247,1.247,0,0,1,2.173.711a.177.177,0,0,1,.176.3c-.02.02-.036.028-.056.046l-.584.54a.541.541,0,0,0-.053.048c-.068.077-.095.085-.156.148-.079.082-.1.093-.157.147A.735.735,0,0,1,1.288,2l-.32.289c-.037.041-.066.058-.109.1a.2.2,0,0,0,.107.358A.138.138,0,0,0,1.125,2.7L2.563,1.267a.182.182,0,0,1,.282-.025c.164.164-.065.315-.225.478-.138.14-.272.269-.411.409-.26.261-.517.515-.778.774a1.152,1.152,0,0,1,.38.187l.47-.5c.037-.037.063-.068.1-.106l.649-.686c.017-.019.026-.037.045-.056a.178.178,0,0,1,.311.156,1.876,1.876,0,0,1-.272.345l-.375.445c-.029.035-.063.074-.092.111l-.281.337c-.031.039-.063.071-.092.109L2.063,3.5C1.683,4.328,0,3.8,0,4.015H6.679l-.711-.971c-.061-.069-.126-.151-.187-.225l-.36-.464a8.678,8.678,0,0,1-.636-1A3.436,3.436,0,0,1,4.435.48a.472.472,0,0,1,0-.182c.012-.05.062-.111.122-.074L4.87.515l.109.1.411.4" fill="#b91a1f"/>
          </g>
        </g>
        <g id="Group_6" data-name="Group 6" transform="translate(0 0.052)">
          <path id="Clip_5-11" data-name="Clip 5" d="M0,0H7.978V1.637H0Z" fill="none"/>
          <g id="Group_6-2" data-name="Group 6" clip-path="url(#clip-path-4)">
            <path id="Fill_4-2" data-name="Fill 4" d="M7.978,1.637H0L1.995,0h3.99L7.977,1.636ZM3.137.536a.3.3,0,0,0-.315.283.3.3,0,0,0,.315.282H4.842A.3.3,0,0,0,5.156.819.3.3,0,0,0,4.842.536Z" transform="translate(0 0)" fill="#f14f55"/>
          </g>
        </g>
      </g>
      <path id="Fill_176" data-name="Fill 176" d="M6.426,5.092S5.532,5.9,5.161,6.171c-.309.222-1.814.947-1.814.947s-1.5-2.293-2.153-3.443C.4,2.28-.151.2.037.148A2.749,2.749,0,0,1,1.959.2C4.276,1.265,6.426,5.092,6.426,5.092" transform="translate(19.998 10.608)" fill="#bc1717"/>
      <path id="Fill_178" data-name="Fill 178" d="M.28,0S.18,1.756.18,1.759c-.036.223-.18.774-.18.976C0,3.5,3.378,2.09,2.621,1.752c-.069-.031-.427-.261-.45-.521C2.136.832,2.048.025,2.048.025Z" transform="translate(11.48 50.852)" fill="#f7a491"/>
      <path id="Fill_179" data-name="Fill 179" d="M2.732.031a12.134,12.134,0,0,1-1.2.291C1.127.381.591-.11.3.023-.012.169,0,1.48,0,1.48s4.253.373,5.448-.013c.474-.153-1.1-.894-2.716-1.436" transform="translate(11.401 52.58)" fill="#184655"/>
      <path id="Fill_180" data-name="Fill 180" d="M.28,0s-.1,1.756-.1,1.76c-.036.223-.18.774-.18.976C0,3.5,3.378,2.09,2.621,1.752c-.069-.031-.534-.434-.556-.693C2.03.66,2.048.025,2.048.025Z" transform="translate(5.855 50.761)" fill="#f7a491"/>
      <path id="Fill_181" data-name="Fill 181" d="M2.757.031a12.136,12.136,0,0,1-1.2.291C1.151.381.616-.11.329.023.013.169,0,1.481,0,1.481a52.916,52.916,0,0,0,5.473-.013c.492-.073-1.1-.894-2.716-1.436" transform="translate(5.711 52.475)" fill="#184655"/>
      <path id="Fill_182" data-name="Fill 182" d="M1.164.281A21.6,21.6,0,0,0,.824,5.488c.233,2.246.252,10.224.252,10.224L0,28.473l2.3.054S4.8,15.768,4.756,16.1s.84-8.983.84-8.983L2.61,0Z" transform="translate(5.973 22.592)" fill="#50bfa5"/>
      <path id="Fill_183" data-name="Fill 183" d="M1.844,0S-.75,2.731.215,5.715c.387,1.2,4,12.647,4.048,13.582S5.485,30.576,5.485,30.576L7.941,30.5,8.473,19l-.7-15.494L6.28.9Z" transform="translate(6.094 20.96)" fill="#96d9c9"/>
      <path id="Fill_184" data-name="Fill 184" d="M17.451,3.625a22.73,22.73,0,0,0-2.7-2.3A8.783,8.783,0,0,0,13.2.234C12.543.006,11.412-.6,9.775,1.879,8.6,3.654,1.213,12.845,0,13.155l7.922,3.79c.217-1.81,4.133-5.23,4.7-5.868,1.259-1.426,5.636-6.555,4.833-7.452" transform="translate(6.23 8.445)" fill="#e52020"/>
      <path id="Fill_185" data-name="Fill 185" d="M2.469,0,0,1.445S-.068,3.551.739,4.1c.677.459,1.192-.643,1.192-.643A7.531,7.531,0,0,1,3.546,1.788C4.243,1.392,2.469,0,2.469,0" transform="translate(20.843 8.219)" fill="#ffb27d"/>
      <path id="Fill_186" data-name="Fill 186" d="M.069.927a5.167,5.167,0,0,0,.641,1.6,4,4,0,0,1,.85-.738c.322-.183.117-.578-.2-.95C.92.377.483,0,.483,0L.008.278a2.214,2.214,0,0,0,.06.65" transform="translate(22.829 8.219)" fill="#f47458"/>
      <path id="Fill_187" data-name="Fill 187" d="M1.841.108C1.8.056-.229,2.582.021,3.766S1.5,6.032,2.35,5.734c.943-.329,2.7-3.3,2.067-4.745S1.841.108,1.841.108" transform="translate(22.756 4.491)" fill="#ffb27d"/>
      <path id="Fill_188" data-name="Fill 188" d="M4.79.434a3.841,3.841,0,0,0-3.4-.069A2.923,2.923,0,0,0,.173,3.87a1.722,1.722,0,0,1-.06,1.667l.7-.411A3.349,3.349,0,0,0,1.28,3.975c.054-.511.8-.42,1.163-.652.28-.178.638-.758,1.091-1.059a3.614,3.614,0,0,1,1.7.175c.957.537.821-1.3-.446-2" transform="translate(22.028 3.367)" fill="#13375b"/>
      <path id="Fill_197" data-name="Fill 197" d="M.824.679c.006.379-.173.689-.4.693S.007,1.072,0,.693.173,0,.4,0,.817.3.824.679" transform="translate(23.077 6.436)" fill="#f7a491"/>
      <path id="Fill_198" data-name="Fill 198" d="M1.16.8.086,0A.593.593,0,0,0,.264.8c.563.448.9,0,.9,0" transform="translate(24.819 8.323)" fill="#fff"/>
      <path id="Fill_199" data-name="Fill 199" d="M11.337,12a11.754,11.754,0,0,0-.758-1.393,3.313,3.313,0,0,0-.55-.472C8.239,9.09,3.578,6.391,3.4,6.182,3.182,5.933,0,.647,0,.647L2.857,0,5.65,4.931c.233.185,4.666,3.461,4.666,3.461s.881.689,1.363,1.011a3.824,3.824,0,0,0,.686.306,4.365,4.365,0,0,1,.856.426c.116.1.349.322.488.455s.306.285.371.364a.984.984,0,0,0,.252.16.165.165,0,0,1-.027.306.714.714,0,0,1-.433-.1c-.321-.151-.713-.558-.734-.508s.377.922.416,1.025a11.662,11.662,0,0,1,.52,1.346c.023.227-.113.279-.215.2s-.823-1.429-.823-1.429-.094-.173-.131-.074.628,1.333.693,1.535.013.368-.174.3c-.228-.086-.857-1.447-.857-1.447s-.082-.169-.138-.11.527,1.1.534,1.219a.156.156,0,0,1-.259.138,7.321,7.321,0,0,1-.736-1.337s-.068-.081-.089-.024.413.979.38,1.114a.108.108,0,0,1-.129.091c-.227,0-.525-.956-.795-1.349" transform="translate(17.677 14.647) rotate(-13)" fill="#ffb27d"/>
      <path id="Fill_200" data-name="Fill 200" d="M1.967,8.153s.931-.3,1.527-.569c.4-.183,2.143-1.051,2.143-1.051a38.361,38.361,0,0,0-1.26-4.311C2.513-1.963.393.923.106,1.6-.538,3.1,1.967,8.153,1.967,8.153" transform="translate(16.155 8.386)" fill="#bc1717"/>
    </g>
    <g id="Group_7-2" data-name="Group 7" transform="translate(35.216 28.077)">
      <path id="Rectangle-2" data-name="Rectangle" d="M1.915,0H5.938L8.045,1.532V5.746H0V1.532Z" fill="#fff"/>
      <g id="Group_3-5" data-name="Group 3" transform="translate(0 1.76)">
        <path id="Clip_2-14" data-name="Clip 2" d="M0,0H7.979V4.015H0Z" transform="translate(0 0)" fill="none"/>
        <g id="Group_3-6" data-name="Group 3" transform="translate(0 0)" clip-path="url(#clip-path-3)">
          <path id="Fill_1-4" data-name="Fill 1" d="M7.979,4.015V0H0V2.477l.283-.171a.814.814,0,0,1,.1-.1l.326-.292c.075-.058.241-.215.334-.283s.233-.2.34-.278L1.836.983c.038-.032.072-.058.109-.094A1.247,1.247,0,0,1,2.173.711a.177.177,0,0,1,.176.3c-.02.02-.036.028-.056.046l-.584.54a.541.541,0,0,0-.053.048c-.068.077-.095.085-.156.148-.079.082-.1.093-.157.147A.735.735,0,0,1,1.288,2l-.32.289c-.037.041-.066.058-.109.1a.2.2,0,0,0,.107.358A.138.138,0,0,0,1.125,2.7L2.563,1.267a.182.182,0,0,1,.282-.025c.164.164-.065.315-.225.478-.138.14-.272.269-.411.409-.26.261-.517.515-.778.774a1.152,1.152,0,0,1,.38.187l.47-.5c.037-.037.063-.068.1-.106l.649-.686c.017-.019.026-.037.045-.056a.178.178,0,0,1,.311.156,1.876,1.876,0,0,1-.272.345l-.375.445c-.029.035-.063.074-.092.111l-.281.337c-.031.039-.063.071-.092.109L2.063,3.5C1.683,4.328,0,3.8,0,4.015H6.679l-.711-.971c-.061-.069-.126-.151-.187-.225l-.36-.464a8.678,8.678,0,0,1-.636-1A3.436,3.436,0,0,1,4.435.48a.472.472,0,0,1,0-.182c.012-.05.062-.111.122-.074L4.87.515l.109.1.411.4" fill="#b91a1f"/>
        </g>
      </g>
      <g id="Group_6-3" data-name="Group 6" transform="translate(0 0.052)">
        <path id="Clip_5-12" data-name="Clip 5" d="M0,0H7.978V1.637H0Z" fill="none"/>
        <g id="Group_6-4" data-name="Group 6" clip-path="url(#clip-path-4)">
          <path id="Fill_4-3" data-name="Fill 4" d="M7.978,1.637H0L1.995,0h3.99L7.977,1.636ZM3.137.536a.3.3,0,0,0-.315.283.3.3,0,0,0,.315.282H4.842A.3.3,0,0,0,5.156.819.3.3,0,0,0,4.842.536Z" transform="translate(0 0)" fill="#f14f55"/>
        </g>
      </g>
    </g>
    <g id="Group_7-3" data-name="Group 7" transform="translate(44.257 28.077)">
      <path id="Rectangle-3" data-name="Rectangle" d="M1.915,0H5.938L8.045,1.532V5.746H0V1.532Z" fill="#fff"/>
      <g id="Group_3-7" data-name="Group 3" transform="translate(0 1.76)">
        <path id="Clip_2-15" data-name="Clip 2" d="M0,0H7.979V4.015H0Z" transform="translate(0 0)" fill="none"/>
        <g id="Group_3-8" data-name="Group 3" transform="translate(0 0)" clip-path="url(#clip-path-3)">
          <path id="Fill_1-5" data-name="Fill 1" d="M7.979,4.015V0H0V2.477l.283-.171a.814.814,0,0,1,.1-.1l.326-.292c.075-.058.241-.215.334-.283s.233-.2.34-.278L1.836.983c.038-.032.072-.058.109-.094A1.247,1.247,0,0,1,2.173.711a.177.177,0,0,1,.176.3c-.02.02-.036.028-.056.046l-.584.54a.541.541,0,0,0-.053.048c-.068.077-.095.085-.156.148-.079.082-.1.093-.157.147A.735.735,0,0,1,1.288,2l-.32.289c-.037.041-.066.058-.109.1a.2.2,0,0,0,.107.358A.138.138,0,0,0,1.125,2.7L2.563,1.267a.182.182,0,0,1,.282-.025c.164.164-.065.315-.225.478-.138.14-.272.269-.411.409-.26.261-.517.515-.778.774a1.152,1.152,0,0,1,.38.187l.47-.5c.037-.037.063-.068.1-.106l.649-.686c.017-.019.026-.037.045-.056a.178.178,0,0,1,.311.156,1.876,1.876,0,0,1-.272.345l-.375.445c-.029.035-.063.074-.092.111l-.281.337c-.031.039-.063.071-.092.109L2.063,3.5C1.683,4.328,0,3.8,0,4.015H6.679l-.711-.971c-.061-.069-.126-.151-.187-.225l-.36-.464a8.678,8.678,0,0,1-.636-1A3.436,3.436,0,0,1,4.435.48a.472.472,0,0,1,0-.182c.012-.05.062-.111.122-.074L4.87.515l.109.1.411.4" fill="#b91a1f"/>
        </g>
      </g>
      <g id="Group_6-5" data-name="Group 6" transform="translate(0 0.052)">
        <path id="Clip_5-13" data-name="Clip 5" d="M0,0H7.978V1.637H0Z" fill="none"/>
        <g id="Group_6-6" data-name="Group 6" clip-path="url(#clip-path-4)">
          <path id="Fill_4-4" data-name="Fill 4" d="M7.978,1.637H0L1.995,0h3.99L7.977,1.636ZM3.137.536a.3.3,0,0,0-.315.283.3.3,0,0,0,.315.282H4.842A.3.3,0,0,0,5.156.819.3.3,0,0,0,4.842.536Z" transform="translate(0 0)" fill="#f14f55"/>
        </g>
      </g>
    </g>
    <g id="Group_7-4" data-name="Group 7" transform="translate(52.823 28.077)">
      <path id="Rectangle-4" data-name="Rectangle" d="M1.915,0H5.938L8.045,1.532V5.746H0V1.532Z" fill="#fff"/>
      <g id="Group_3-9" data-name="Group 3" transform="translate(0 1.76)">
        <path id="Clip_2-16" data-name="Clip 2" d="M0,0H7.979V4.015H0Z" transform="translate(0 0)" fill="none"/>
        <g id="Group_3-10" data-name="Group 3" transform="translate(0 0)" clip-path="url(#clip-path-3)">
          <path id="Fill_1-6" data-name="Fill 1" d="M7.979,4.015V0H0V2.477l.283-.171a.814.814,0,0,1,.1-.1l.326-.292c.075-.058.241-.215.334-.283s.233-.2.34-.278L1.836.983c.038-.032.072-.058.109-.094A1.247,1.247,0,0,1,2.173.711a.177.177,0,0,1,.176.3c-.02.02-.036.028-.056.046l-.584.54a.541.541,0,0,0-.053.048c-.068.077-.095.085-.156.148-.079.082-.1.093-.157.147A.735.735,0,0,1,1.288,2l-.32.289c-.037.041-.066.058-.109.1a.2.2,0,0,0,.107.358A.138.138,0,0,0,1.125,2.7L2.563,1.267a.182.182,0,0,1,.282-.025c.164.164-.065.315-.225.478-.138.14-.272.269-.411.409-.26.261-.517.515-.778.774a1.152,1.152,0,0,1,.38.187l.47-.5c.037-.037.063-.068.1-.106l.649-.686c.017-.019.026-.037.045-.056a.178.178,0,0,1,.311.156,1.876,1.876,0,0,1-.272.345l-.375.445c-.029.035-.063.074-.092.111l-.281.337c-.031.039-.063.071-.092.109L2.063,3.5C1.683,4.328,0,3.8,0,4.015H6.679l-.711-.971c-.061-.069-.126-.151-.187-.225l-.36-.464a8.678,8.678,0,0,1-.636-1A3.436,3.436,0,0,1,4.435.48a.472.472,0,0,1,0-.182c.012-.05.062-.111.122-.074L4.87.515l.109.1.411.4" fill="#b91a1f"/>
        </g>
      </g>
      <g id="Group_6-7" data-name="Group 6" transform="translate(0 0.052)">
        <path id="Clip_5-14" data-name="Clip 5" d="M0,0H7.978V1.637H0Z" fill="none"/>
        <g id="Group_6-8" data-name="Group 6" clip-path="url(#clip-path-4)">
          <path id="Fill_4-5" data-name="Fill 4" d="M7.978,1.637H0L1.995,0h3.99L7.977,1.636ZM3.137.536a.3.3,0,0,0-.315.283.3.3,0,0,0,.315.282H4.842A.3.3,0,0,0,5.156.819.3.3,0,0,0,4.842.536Z" transform="translate(0 0)" fill="#f14f55"/>
        </g>
      </g>
    </g>
    <g id="Group_7-5" data-name="Group 7" transform="translate(61.389 28.077)">
      <path id="Rectangle-5" data-name="Rectangle" d="M1.915,0H5.938L8.045,1.532V5.746H0V1.532Z" fill="#fff"/>
      <g id="Group_3-11" data-name="Group 3" transform="translate(0 1.76)">
        <path id="Clip_2-17" data-name="Clip 2" d="M0,0H7.979V4.015H0Z" transform="translate(0 0)" fill="none"/>
        <g id="Group_3-12" data-name="Group 3" transform="translate(0 0)" clip-path="url(#clip-path-3)">
          <path id="Fill_1-7" data-name="Fill 1" d="M7.979,4.015V0H0V2.477l.283-.171a.814.814,0,0,1,.1-.1l.326-.292c.075-.058.241-.215.334-.283s.233-.2.34-.278L1.836.983c.038-.032.072-.058.109-.094A1.247,1.247,0,0,1,2.173.711a.177.177,0,0,1,.176.3c-.02.02-.036.028-.056.046l-.584.54a.541.541,0,0,0-.053.048c-.068.077-.095.085-.156.148-.079.082-.1.093-.157.147A.735.735,0,0,1,1.288,2l-.32.289c-.037.041-.066.058-.109.1a.2.2,0,0,0,.107.358A.138.138,0,0,0,1.125,2.7L2.563,1.267a.182.182,0,0,1,.282-.025c.164.164-.065.315-.225.478-.138.14-.272.269-.411.409-.26.261-.517.515-.778.774a1.152,1.152,0,0,1,.38.187l.47-.5c.037-.037.063-.068.1-.106l.649-.686c.017-.019.026-.037.045-.056a.178.178,0,0,1,.311.156,1.876,1.876,0,0,1-.272.345l-.375.445c-.029.035-.063.074-.092.111l-.281.337c-.031.039-.063.071-.092.109L2.063,3.5C1.683,4.328,0,3.8,0,4.015H6.679l-.711-.971c-.061-.069-.126-.151-.187-.225l-.36-.464a8.678,8.678,0,0,1-.636-1A3.436,3.436,0,0,1,4.435.48a.472.472,0,0,1,0-.182c.012-.05.062-.111.122-.074L4.87.515l.109.1.411.4" fill="#b91a1f"/>
        </g>
      </g>
      <g id="Group_6-9" data-name="Group 6" transform="translate(0 0.052)">
        <path id="Clip_5-15" data-name="Clip 5" d="M0,0H7.978V1.637H0Z" fill="none"/>
        <g id="Group_6-10" data-name="Group 6" clip-path="url(#clip-path-4)">
          <path id="Fill_4-6" data-name="Fill 4" d="M7.978,1.637H0L1.995,0h3.99L7.977,1.636ZM3.137.536a.3.3,0,0,0-.315.283.3.3,0,0,0,.315.282H4.842A.3.3,0,0,0,5.156.819.3.3,0,0,0,4.842.536Z" transform="translate(0 0)" fill="#f14f55"/>
        </g>
      </g>
    </g>
    <g id="Group_7-6" data-name="Group 7" transform="translate(40.926 24.27)">
      <path id="Rectangle-6" data-name="Rectangle" d="M1.915,0H5.938L8.045,1.532V5.746H0V1.532Z" fill="#fff"/>
      <g id="Group_3-13" data-name="Group 3" transform="translate(0 1.76)">
        <path id="Clip_2-18" data-name="Clip 2" d="M0,0H7.979V4.015H0Z" transform="translate(0 0)" fill="none"/>
        <g id="Group_3-14" data-name="Group 3" transform="translate(0 0)" clip-path="url(#clip-path-3)">
          <path id="Fill_1-8" data-name="Fill 1" d="M7.979,4.015V0H0V2.477l.283-.171a.814.814,0,0,1,.1-.1l.326-.292c.075-.058.241-.215.334-.283s.233-.2.34-.278L1.836.983c.038-.032.072-.058.109-.094A1.247,1.247,0,0,1,2.173.711a.177.177,0,0,1,.176.3c-.02.02-.036.028-.056.046l-.584.54a.541.541,0,0,0-.053.048c-.068.077-.095.085-.156.148-.079.082-.1.093-.157.147A.735.735,0,0,1,1.288,2l-.32.289c-.037.041-.066.058-.109.1a.2.2,0,0,0,.107.358A.138.138,0,0,0,1.125,2.7L2.563,1.267a.182.182,0,0,1,.282-.025c.164.164-.065.315-.225.478-.138.14-.272.269-.411.409-.26.261-.517.515-.778.774a1.152,1.152,0,0,1,.38.187l.47-.5c.037-.037.063-.068.1-.106l.649-.686c.017-.019.026-.037.045-.056a.178.178,0,0,1,.311.156,1.876,1.876,0,0,1-.272.345l-.375.445c-.029.035-.063.074-.092.111l-.281.337c-.031.039-.063.071-.092.109L2.063,3.5C1.683,4.328,0,3.8,0,4.015H6.679l-.711-.971c-.061-.069-.126-.151-.187-.225l-.36-.464a8.678,8.678,0,0,1-.636-1A3.436,3.436,0,0,1,4.435.48a.472.472,0,0,1,0-.182c.012-.05.062-.111.122-.074L4.87.515l.109.1.411.4" fill="#b91a1f"/>
        </g>
      </g>
      <g id="Group_6-11" data-name="Group 6" transform="translate(0 0.052)">
        <path id="Clip_5-16" data-name="Clip 5" d="M0,0H7.978V1.637H0Z" fill="none"/>
        <g id="Group_6-12" data-name="Group 6" clip-path="url(#clip-path-4)">
          <path id="Fill_4-7" data-name="Fill 4" d="M7.978,1.637H0L1.995,0h3.99L7.977,1.636ZM3.137.536a.3.3,0,0,0-.315.283.3.3,0,0,0,.315.282H4.842A.3.3,0,0,0,5.156.819.3.3,0,0,0,4.842.536Z" transform="translate(0 0)" fill="#f14f55"/>
        </g>
      </g>
    </g>
    <g id="Group_7-7" data-name="Group 7" transform="translate(49.492 24.27)">
      <path id="Rectangle-7" data-name="Rectangle" d="M1.915,0H5.938L8.045,1.532V5.746H0V1.532Z" fill="#fff"/>
      <g id="Group_3-15" data-name="Group 3" transform="translate(0 1.76)">
        <path id="Clip_2-19" data-name="Clip 2" d="M0,0H7.979V4.015H0Z" transform="translate(0 0)" fill="none"/>
        <g id="Group_3-16" data-name="Group 3" transform="translate(0 0)" clip-path="url(#clip-path-3)">
          <path id="Fill_1-9" data-name="Fill 1" d="M7.979,4.015V0H0V2.477l.283-.171a.814.814,0,0,1,.1-.1l.326-.292c.075-.058.241-.215.334-.283s.233-.2.34-.278L1.836.983c.038-.032.072-.058.109-.094A1.247,1.247,0,0,1,2.173.711a.177.177,0,0,1,.176.3c-.02.02-.036.028-.056.046l-.584.54a.541.541,0,0,0-.053.048c-.068.077-.095.085-.156.148-.079.082-.1.093-.157.147A.735.735,0,0,1,1.288,2l-.32.289c-.037.041-.066.058-.109.1a.2.2,0,0,0,.107.358A.138.138,0,0,0,1.125,2.7L2.563,1.267a.182.182,0,0,1,.282-.025c.164.164-.065.315-.225.478-.138.14-.272.269-.411.409-.26.261-.517.515-.778.774a1.152,1.152,0,0,1,.38.187l.47-.5c.037-.037.063-.068.1-.106l.649-.686c.017-.019.026-.037.045-.056a.178.178,0,0,1,.311.156,1.876,1.876,0,0,1-.272.345l-.375.445c-.029.035-.063.074-.092.111l-.281.337c-.031.039-.063.071-.092.109L2.063,3.5C1.683,4.328,0,3.8,0,4.015H6.679l-.711-.971c-.061-.069-.126-.151-.187-.225l-.36-.464a8.678,8.678,0,0,1-.636-1A3.436,3.436,0,0,1,4.435.48a.472.472,0,0,1,0-.182c.012-.05.062-.111.122-.074L4.87.515l.109.1.411.4" fill="#b91a1f"/>
        </g>
      </g>
      <g id="Group_6-13" data-name="Group 6" transform="translate(0 0.052)">
        <path id="Clip_5-17" data-name="Clip 5" d="M0,0H7.978V1.637H0Z" fill="none"/>
        <g id="Group_6-14" data-name="Group 6" clip-path="url(#clip-path-4)">
          <path id="Fill_4-8" data-name="Fill 4" d="M7.978,1.637H0L1.995,0h3.99L7.977,1.636ZM3.137.536a.3.3,0,0,0-.315.283.3.3,0,0,0,.315.282H4.842A.3.3,0,0,0,5.156.819.3.3,0,0,0,4.842.536Z" transform="translate(0 0)" fill="#f14f55"/>
        </g>
      </g>
    </g>
    <g id="Group_7-8" data-name="Group 7" transform="translate(58.534 24.27)">
      <path id="Rectangle-8" data-name="Rectangle" d="M1.915,0H5.938L8.045,1.532V5.746H0V1.532Z" fill="#fff"/>
      <g id="Group_3-17" data-name="Group 3" transform="translate(0 1.76)">
        <path id="Clip_2-20" data-name="Clip 2" d="M0,0H7.979V4.015H0Z" transform="translate(0 0)" fill="none"/>
        <g id="Group_3-18" data-name="Group 3" transform="translate(0 0)" clip-path="url(#clip-path-3)">
          <path id="Fill_1-10" data-name="Fill 1" d="M7.979,4.015V0H0V2.477l.283-.171a.814.814,0,0,1,.1-.1l.326-.292c.075-.058.241-.215.334-.283s.233-.2.34-.278L1.836.983c.038-.032.072-.058.109-.094A1.247,1.247,0,0,1,2.173.711a.177.177,0,0,1,.176.3c-.02.02-.036.028-.056.046l-.584.54a.541.541,0,0,0-.053.048c-.068.077-.095.085-.156.148-.079.082-.1.093-.157.147A.735.735,0,0,1,1.288,2l-.32.289c-.037.041-.066.058-.109.1a.2.2,0,0,0,.107.358A.138.138,0,0,0,1.125,2.7L2.563,1.267a.182.182,0,0,1,.282-.025c.164.164-.065.315-.225.478-.138.14-.272.269-.411.409-.26.261-.517.515-.778.774a1.152,1.152,0,0,1,.38.187l.47-.5c.037-.037.063-.068.1-.106l.649-.686c.017-.019.026-.037.045-.056a.178.178,0,0,1,.311.156,1.876,1.876,0,0,1-.272.345l-.375.445c-.029.035-.063.074-.092.111l-.281.337c-.031.039-.063.071-.092.109L2.063,3.5C1.683,4.328,0,3.8,0,4.015H6.679l-.711-.971c-.061-.069-.126-.151-.187-.225l-.36-.464a8.678,8.678,0,0,1-.636-1A3.436,3.436,0,0,1,4.435.48a.472.472,0,0,1,0-.182c.012-.05.062-.111.122-.074L4.87.515l.109.1.411.4" fill="#b91a1f"/>
        </g>
      </g>
      <g id="Group_6-15" data-name="Group 6" transform="translate(0 0.052)">
        <path id="Clip_5-18" data-name="Clip 5" d="M0,0H7.978V1.637H0Z" fill="none"/>
        <g id="Group_6-16" data-name="Group 6" clip-path="url(#clip-path-4)">
          <path id="Fill_4-9" data-name="Fill 4" d="M7.978,1.637H0L1.995,0h3.99L7.977,1.636ZM3.137.536a.3.3,0,0,0-.315.283.3.3,0,0,0,.315.282H4.842A.3.3,0,0,0,5.156.819.3.3,0,0,0,4.842.536Z" transform="translate(0 0)" fill="#f14f55"/>
        </g>
      </g>
    </g>
    <g id="Group_7-9" data-name="Group 7" transform="translate(44.733 19.987)">
      <path id="Rectangle-9" data-name="Rectangle" d="M1.915,0H5.938L8.045,1.532V5.746H0V1.532Z" fill="#fff"/>
      <g id="Group_3-19" data-name="Group 3" transform="translate(0 1.76)">
        <path id="Clip_2-21" data-name="Clip 2" d="M0,0H7.979V4.015H0Z" transform="translate(0 0)" fill="none"/>
        <g id="Group_3-20" data-name="Group 3" transform="translate(0 0)" clip-path="url(#clip-path-3)">
          <path id="Fill_1-11" data-name="Fill 1" d="M7.979,4.015V0H0V2.477l.283-.171a.814.814,0,0,1,.1-.1l.326-.292c.075-.058.241-.215.334-.283s.233-.2.34-.278L1.836.983c.038-.032.072-.058.109-.094A1.247,1.247,0,0,1,2.173.711a.177.177,0,0,1,.176.3c-.02.02-.036.028-.056.046l-.584.54a.541.541,0,0,0-.053.048c-.068.077-.095.085-.156.148-.079.082-.1.093-.157.147A.735.735,0,0,1,1.288,2l-.32.289c-.037.041-.066.058-.109.1a.2.2,0,0,0,.107.358A.138.138,0,0,0,1.125,2.7L2.563,1.267a.182.182,0,0,1,.282-.025c.164.164-.065.315-.225.478-.138.14-.272.269-.411.409-.26.261-.517.515-.778.774a1.152,1.152,0,0,1,.38.187l.47-.5c.037-.037.063-.068.1-.106l.649-.686c.017-.019.026-.037.045-.056a.178.178,0,0,1,.311.156,1.876,1.876,0,0,1-.272.345l-.375.445c-.029.035-.063.074-.092.111l-.281.337c-.031.039-.063.071-.092.109L2.063,3.5C1.683,4.328,0,3.8,0,4.015H6.679l-.711-.971c-.061-.069-.126-.151-.187-.225l-.36-.464a8.678,8.678,0,0,1-.636-1A3.436,3.436,0,0,1,4.435.48a.472.472,0,0,1,0-.182c.012-.05.062-.111.122-.074L4.87.515l.109.1.411.4" fill="#b91a1f"/>
        </g>
      </g>
      <g id="Group_6-17" data-name="Group 6" transform="translate(0 0.052)">
        <path id="Clip_5-19" data-name="Clip 5" d="M0,0H7.978V1.637H0Z" fill="none"/>
        <g id="Group_6-18" data-name="Group 6" clip-path="url(#clip-path-4)">
          <path id="Fill_4-10" data-name="Fill 4" d="M7.978,1.637H0L1.995,0h3.99L7.977,1.636ZM3.137.536a.3.3,0,0,0-.315.283.3.3,0,0,0,.315.282H4.842A.3.3,0,0,0,5.156.819.3.3,0,0,0,4.842.536Z" transform="translate(0 0)" fill="#f14f55"/>
        </g>
      </g>
    </g>
    <g id="Group_7-10" data-name="Group 7" transform="translate(53.299 19.987)">
      <path id="Rectangle-10" data-name="Rectangle" d="M1.915,0H5.938L8.045,1.532V5.746H0V1.532Z" fill="#fff"/>
      <g id="Group_3-21" data-name="Group 3" transform="translate(0 1.76)">
        <path id="Clip_2-22" data-name="Clip 2" d="M0,0H7.979V4.015H0Z" transform="translate(0 0)" fill="none"/>
        <g id="Group_3-22" data-name="Group 3" transform="translate(0 0)" clip-path="url(#clip-path-3)">
          <path id="Fill_1-12" data-name="Fill 1" d="M7.979,4.015V0H0V2.477l.283-.171a.814.814,0,0,1,.1-.1l.326-.292c.075-.058.241-.215.334-.283s.233-.2.34-.278L1.836.983c.038-.032.072-.058.109-.094A1.247,1.247,0,0,1,2.173.711a.177.177,0,0,1,.176.3c-.02.02-.036.028-.056.046l-.584.54a.541.541,0,0,0-.053.048c-.068.077-.095.085-.156.148-.079.082-.1.093-.157.147A.735.735,0,0,1,1.288,2l-.32.289c-.037.041-.066.058-.109.1a.2.2,0,0,0,.107.358A.138.138,0,0,0,1.125,2.7L2.563,1.267a.182.182,0,0,1,.282-.025c.164.164-.065.315-.225.478-.138.14-.272.269-.411.409-.26.261-.517.515-.778.774a1.152,1.152,0,0,1,.38.187l.47-.5c.037-.037.063-.068.1-.106l.649-.686c.017-.019.026-.037.045-.056a.178.178,0,0,1,.311.156,1.876,1.876,0,0,1-.272.345l-.375.445c-.029.035-.063.074-.092.111l-.281.337c-.031.039-.063.071-.092.109L2.063,3.5C1.683,4.328,0,3.8,0,4.015H6.679l-.711-.971c-.061-.069-.126-.151-.187-.225l-.36-.464a8.678,8.678,0,0,1-.636-1A3.436,3.436,0,0,1,4.435.48a.472.472,0,0,1,0-.182c.012-.05.062-.111.122-.074L4.87.515l.109.1.411.4" fill="#b91a1f"/>
        </g>
      </g>
      <g id="Group_6-19" data-name="Group 6" transform="translate(0 0.052)">
        <path id="Clip_5-20" data-name="Clip 5" d="M0,0H7.978V1.637H0Z" fill="none"/>
        <g id="Group_6-20" data-name="Group 6" clip-path="url(#clip-path-4)">
          <path id="Fill_4-11" data-name="Fill 4" d="M7.978,1.637H0L1.995,0h3.99L7.977,1.636ZM3.137.536a.3.3,0,0,0-.315.283.3.3,0,0,0,.315.282H4.842A.3.3,0,0,0,5.156.819.3.3,0,0,0,4.842.536Z" transform="translate(0 0)" fill="#f14f55"/>
        </g>
      </g>
    </g>
  </g>
</svg>
