<svg id="Component_15_1" data-name="Component 15 – 1" xmlns="http://www.w3.org/2000/svg" xmlns:xlink="http://www.w3.org/1999/xlink" width="256.364" height="174" viewBox="0 0 256.364 174">
  <defs>
    <style>
      .cls-1 {
        fill: none;
      }

      .cls-2 {
        fill: #edd5ff;
        opacity: 0.33;
      }

      .cls-3 {
        clip-path: url(#clip-path);
      }

      .cls-4 {
        fill: #d1a586;
      }

      .cls-5 {
        fill: #e5bd9e;
      }

      .cls-6 {
        fill: #dfb697;
      }

      .cls-7 {
        fill: #a0795f;
      }

      .cls-8 {
        fill: #ffb27d;
      }

      .cls-9 {
        fill: #c45446;
      }

      .cls-10 {
        fill: #e37970;
      }

      .cls-11 {
        clip-path: url(#clip-path-2);
      }

      .cls-12 {
        fill: #1c468a;
      }

      .cls-13 {
        fill: #c65447;
      }

      .cls-14 {
        fill: #163560;
      }

      .cls-15 {
        fill: #6bb7bf;
      }

      .cls-16 {
        fill: #f4a269;
      }

      .cls-17 {
        fill: #599dad;
      }

      .cls-18 {
        fill: #e2915a;
      }

      .cls-19 {
        fill: #233862;
      }

      .cls-20 {
        fill: #2b478b;
      }

      .cls-21 {
        fill: #e9f3fe;
      }

      .cls-22 {
        fill: #22407a;
      }

      .cls-23 {
        fill: #fff;
      }

      .cls-24 {
        fill: #d9e9f9;
      }

      .cls-25 {
        fill: #ba4c43;
      }

      .cls-26 {
        fill: #aa413e;
      }

      .cls-27 {
        fill: #b5453c;
      }

      .cls-28 {
        fill: #ed975d;
      }

      .cls-29 {
        fill: #699dee;
      }

      .cls-30 {
        fill: #4a75cb;
      }

      .cls-31 {
        fill: #c69d7f;
      }

      .cls-32 {
        fill: #e0b594;
      }

      .cls-33 {
        clip-path: url(#clip-path-3);
      }

      .cls-34 {
        fill: #b91a1f;
      }

      .cls-35 {
        clip-path: url(#clip-path-4);
      }

      .cls-36 {
        fill: #f14f55;
      }

      .cls-37 {
        fill: #bc1717;
      }

      .cls-38 {
        fill: #f7a491;
      }

      .cls-39 {
        fill: #184655;
      }

      .cls-40 {
        fill: #50bfa5;
      }

      .cls-41 {
        fill: #96d9c9;
      }

      .cls-42 {
        fill: #e52020;
      }

      .cls-43 {
        fill: #f47458;
      }

      .cls-44 {
        fill: #13375b;
      }
    </style>
    <clipPath id="clip-path">
      <path id="Clip_2" data-name="Clip 2" class="cls-1" d="M0,0H13.071V34.164H0Z" transform="translate(0.143 0.083)"/>
    </clipPath>
    <clipPath id="clip-path-2">
      <path id="Clip_49" data-name="Clip 49" class="cls-1" d="M0,118.545H256.364V0H0Z"/>
    </clipPath>
    <clipPath id="clip-path-3">
      <path id="Clip_2-2" data-name="Clip 2" class="cls-1" d="M0,0H16.766V8.438H0Z" transform="translate(0 0.479)"/>
    </clipPath>
    <clipPath id="clip-path-4">
      <path id="Clip_5" data-name="Clip 5" class="cls-1" d="M0,0H16.765V3.44H0Z" transform="translate(0.001 0.11)"/>
    </clipPath>
  </defs>
  <path id="Fill_1" data-name="Fill 1" class="cls-2" d="M102.126,34.826c-9.975,10.394-20.2,20.947-32.935,27.694C58.331,68.272,46.152,70.984,34.7,75.439s-21.725,9.5-28.969,21.228C2.48,101.923.819,109.478.218,115.626c-.88,9,.967,18.253,4.369,26.63,4.445,10.947,14.059,19.245,24.849,24.1s22.73,6.577,34.545,7.274a215.571,215.571,0,0,0,47.164-2.405c13.812-2.24,27.5-5.866,40.039-12.06A105.539,105.539,0,0,0,201.329,105.8c9.615-22.992,11.718-49.859,3.854-73.5-3.588-10.788-8.96-20.215-18.9-26.422a37.059,37.059,0,0,0-13.3-5.11c-5.9-1.094-10.914-.85-16.958-.3a55.368,55.368,0,0,0-21.054,6.54C122.28,13.848,112.1,24.432,102.126,34.826Z" transform="translate(21)"/>
  <g id="Group_201" data-name="Group 201" transform="translate(0 34)">
    <g id="Group_3" data-name="Group 3" transform="translate(243.15 54.645)">
      <path id="Clip_2-12" data-name="Clip 2" class="cls-1" d="M0,0H13.071V34.164H0Z" transform="translate(0.143 0.083)"/>
      <g id="Group_3-2" data-name="Group 3" class="cls-3">
        <path id="Fill_1-2" data-name="Fill 1" class="cls-4" d="M.348,24.757A111.5,111.5,0,0,1,1.671,10.9c.949-5.411,1.8-8.524,1.813-8.557C3.609,1.867,5.414-.058,9.428,0s3.633,2.584,3.633,2.584a.806.806,0,0,1-.029.225A119.646,119.646,0,0,0,9.469,33.131c0,.239.029.652.012.927,0,0-9.3.237-9.3,0-.324-1.487-.166-5.607.171-9.3" transform="translate(0.143 0.083)"/>
      </g>
    </g>
    <path id="Fill_4" data-name="Fill 4" class="cls-5" d="M.191,33.047c0,.237.13.427.284.427h0c.155,0,.278-.193.28-.427H8.73c0,.237.129.427.284.427h0c.157,0,.282-.2.281-.439A117.154,117.154,0,0,1,9.96,19.6,104.231,104.231,0,0,1,13.007,2.81a.826.826,0,0,0,.029-.225S13.416.061,9.4,0,3.583,1.868,3.458,2.343C3.45,2.368,2.967,4.131,2.324,7.3c-.213,1.05-.443,2.254-.679,3.6A111.609,111.609,0,0,0,.323,24.757a35.241,35.241,0,0,0-.132,8.291" transform="translate(242.281 54.728)"/>
    <path id="Fill_6" data-name="Fill 6" class="cls-6" d="M.191,25.747c0,.237.13.427.284.427h0c.155,0,.278-.193.28-.427H8.73c0,.237.129.427.284.427h0c.157,0,.282-.2.281-.439A117.154,117.154,0,0,1,9.96,12.3C8.642,5.95,3.549,1.092,2.324,0c-.213,1.05-.443,2.254-.679,3.6A111.609,111.609,0,0,0,.323,17.457a35.241,35.241,0,0,0-.132,8.291" transform="translate(242.281 62.028)"/>
    <path id="Fill_8" data-name="Fill 8" class="cls-4" d="M7.627,31.964h0l-.021-.015c-.007,0-.012-.007-.014-.04H7.585a.21.21,0,0,0-.062-.165c-.193-.2-.809-.237-1.674-.237-.242,0-.508,0-.765.006H5.07c-.307,0-.625.007-.959.007a21.821,21.821,0,0,1-3.679-.26c-.855-.149-.278-6.649.33-12.73.1-1.027.185-1.85.221-2.328A115.672,115.672,0,0,1,3.69,1.775C3.789,1.4,5.12,0,8.011,0h.142a3.063,3.063,0,0,1,2.378.824,1.53,1.53,0,0,1,.368,1.15.632.632,0,0,1-.023.173C10.863,2.2,8.8,14.062,8.464,16.924c-.573,4.841-.786,14.865-.788,14.963a.084.084,0,0,1,0,.014v.033l-.048.029Zm-1.78-.549c.915,0,1.526.044,1.741.265v-.1c.007-.233.017-.618.038-1.334.026-.927.071-2.377.137-4.02.114-2.863.313-6.8.609-9.315.342-2.887,2.4-14.753,2.416-14.792a.563.563,0,0,0,.02-.153A1.469,1.469,0,0,0,10.461.882,2.982,2.982,0,0,0,8.152.092H8.031C5.177.091,3.872,1.437,3.777,1.8c-.022.084-2.309,9.265-2.7,14.41-.036.475-.117,1.279-.219,2.3l0,.034v.009C.447,22.6-.4,31.024.448,31.17a21.686,21.686,0,0,0,3.663.259c.334,0,.651,0,.957-.007h.013C5.316,31.419,5.591,31.415,5.846,31.415Z" transform="translate(242.879 55.73)"/>
    <path id="Fill_10" data-name="Fill 10" class="cls-5" d="M31.252,2.516H0S.728-.389,18.827.044C31.635.35,31.252,2.516,31.252,2.516" transform="translate(220.917 85.686)"/>
    <path id="Fill_12" data-name="Fill 12" class="cls-4" d="M5.3,29.893C1.674,11.8,2.606.7,2.611.556,2.62.278,2.1.025,1.819.016S.285-.066.14.172C-.049.484-.779,14.164,4.622,29.893Z" transform="translate(249.414 88.652)"/>
    <path id="Fill_14" data-name="Fill 14" class="cls-4" d="M0,29.893C3.624,11.8,2.692.7,2.687.556,2.678.278,3.2.025,3.478.016S5.013-.066,5.157.172c.19.312.919,13.992-4.481,29.721Z" transform="translate(225.533 88.652)"/>
    <path id="Fill_16" data-name="Fill 16" class="cls-7" d="M0,29.893C3.624,11.8,2.692.7,2.687.556,2.678.278,3.2.025,3.478.016S5.013-.066,5.158.172c.189.312.919,13.992-4.481,29.721Z" transform="translate(219.75 88.652)"/>
    <path id="Fill_18" data-name="Fill 18" class="cls-7" d="M5.3,29.893C1.674,11.8,2.606.7,2.611.556,2.62.278,2.1.025,1.819.016S.285-.066.14.172c-.19.312-.919,13.992,4.481,29.721Z" transform="translate(243.593 88.652)"/>
    <path id="Fill_20" data-name="Fill 20" class="cls-4" d="M.636,1.678H31.9a.638.638,0,0,0,.636-.636V.636A.638.638,0,0,0,31.9,0H.636A.638.638,0,0,0,0,.636v.406a.638.638,0,0,0,.636.636" transform="translate(220.258 87.452)"/>
    <path id="Fill_22" data-name="Fill 22" class="cls-4" d="M.348,25.1A114.583,114.583,0,0,1,1.671,11.051c.949-5.486,1.8-8.642,1.813-8.675C3.609,1.893,5.414-.059,9.428,0s3.633,2.62,3.633,2.62a.833.833,0,0,1-.029.228,122.86,122.86,0,0,0-3.564,30.74c0,.242.029.661.012.939,0,0-9.3.24-9.3,0C-.147,33.021.011,28.844.348,25.1" transform="translate(158.844 53.843)"/>
    <path id="Fill_24" data-name="Fill 24" class="cls-5" d="M.191,33.5c0,.24.13.433.284.433h0c.155,0,.278-.2.28-.433H8.73c0,.24.13.433.284.433h0c.157,0,.282-.2.281-.445A120.365,120.365,0,0,1,9.96,19.874,106.979,106.979,0,0,1,13.007,2.849a.85.85,0,0,0,.029-.228S13.416.062,9.4,0,3.583,1.893,3.458,2.376C3.45,2.4,2.967,4.188,2.324,7.4c-.213,1.064-.443,2.285-.679,3.65A114.662,114.662,0,0,0,.322,25.1,36.227,36.227,0,0,0,.191,33.5" transform="translate(157.832 53.843)"/>
    <path id="Fill_26" data-name="Fill 26" class="cls-6" d="M.191,26.1c0,.24.13.433.284.433h0c.155,0,.278-.2.28-.433H8.73c0,.24.13.433.284.433h0c.157,0,.282-.2.281-.446A120.365,120.365,0,0,1,9.96,12.473C8.642,6.033,3.549,1.107,2.324,0c-.213,1.064-.443,2.285-.679,3.649A114.662,114.662,0,0,0,.322,17.7,36.227,36.227,0,0,0,.191,26.1" transform="translate(157.832 61.244)"/>
    <path id="Fill_28" data-name="Fill 28" class="cls-4" d="M7.627,32.405h0L7.6,32.39c-.007,0-.012-.007-.014-.041H7.585a.216.216,0,0,0-.064-.169c-.195-.2-.816-.24-1.69-.24-.233,0-.48,0-.743.006H5.083c-.314,0-.639.007-.982.007a21.488,21.488,0,0,1-3.669-.263c-.856-.15-.278-6.739.33-12.9.106-1.078.185-1.878.221-2.362C1.378,11.2,3.668,1.873,3.69,1.8,3.789,1.418,5.12,0,8.008,0h.146a3.054,3.054,0,0,1,2.37.825A1.574,1.574,0,0,1,10.9,2a.624.624,0,0,1-.023.175C10.864,2.228,8.8,14.26,8.464,17.157c-.571,4.9-.785,15.072-.787,15.171v.048l-.049.029Zm-1.78-.556c.913,0,1.522.045,1.741.267,0-.168.011-.445.025-.927l.015-.524c.026-.939.071-2.409.137-4.075.114-2.9.313-6.9.609-9.444.341-2.912,2.4-14.956,2.416-14.995a.588.588,0,0,0,.02-.157A1.5,1.5,0,0,0,10.453.884a2.972,2.972,0,0,0-2.3-.791H8.017c-2.844,0-4.144,1.365-4.239,1.732-.022.085-2.307,9.366-2.7,14.609l-.045,0,.045,0c-.036.481-.116,1.294-.217,2.322l0,.042v.011c-.4,4.1-1.247,12.645-.4,12.793a21.363,21.363,0,0,0,3.661.263c.331,0,.645,0,.948-.007h.024C5.316,31.852,5.59,31.849,5.846,31.849Z" transform="translate(158.43 54.859)"/>
    <path id="Fill_30" data-name="Fill 30" class="cls-5" d="M31.252,2.551H0S.728-.394,18.827.045c12.808.31,12.425,2.507,12.425,2.507" transform="translate(136.468 85.229)"/>
    <path id="Fill_32" data-name="Fill 32" class="cls-4" d="M5.3,30.306C1.674,11.962,2.606.706,2.611.564,2.62.282,2.1.025,1.819.016S.285-.067.14.174C-.049.491-.779,14.36,4.621,30.306Z" transform="translate(164.966 88.236)"/>
    <path id="Fill_34" data-name="Fill 34" class="cls-4" d="M0,30.306C3.624,11.962,2.692.706,2.687.564,2.678.282,3.2.025,3.479.016S5.013-.067,5.158.174C5.347.491,6.077,14.36.676,30.306Z" transform="translate(141.084 88.236)"/>
    <path id="Fill_36" data-name="Fill 36" class="cls-7" d="M0,30.306C3.624,11.962,2.692.706,2.687.564,2.678.282,3.2.025,3.479.016S5.013-.067,5.158.174c.19.317.919,14.185-4.481,30.132Z" transform="translate(135.301 88.236)"/>
    <path id="Fill_38" data-name="Fill 38" class="cls-7" d="M5.3,30.306C1.674,11.962,2.606.706,2.611.564,2.62.282,2.1.025,1.819.016S.285-.067.14.174C-.049.491-.779,14.36,4.622,30.306Z" transform="translate(159.144 88.236)"/>
    <path id="Fill_40" data-name="Fill 40" class="cls-4" d="M.64,1.7H31.892a.642.642,0,0,0,.64-.64V.64a.642.642,0,0,0-.64-.64H.64A.642.642,0,0,0,0,.64v.421a.642.642,0,0,0,.64.64" transform="translate(135.809 87.019)"/>
    <path id="Fill_42" data-name="Fill 42" class="cls-8" d="M12.427,0S6.714,6.525,5.545,6.419c-1.195-.109-1.924-.485-2.963,0C1.835,6.768-.527,8.667.107,8.541s1.781-.273,2.084-.3c.417-.04,1.087-.049,1.541-.128.287-.05,1.325-.079,1.671-.091,1.5-.049,8.615-4.2,8.615-4.2Z" transform="translate(214.914 68.444)"/>
    <path id="Fill_44" data-name="Fill 44" class="cls-9" d="M2.421,3.666A2.424,2.424,0,0,1,0,1.245V.3A2.406,2.406,0,0,1,.02,0h4.8a2.408,2.408,0,0,1,.02.3V.766A2.9,2.9,0,0,1,5.417.7.8.8,0,0,1,5.83.784a.507.507,0,0,1,.226.368,1.323,1.323,0,0,1-.319.983,3.821,3.821,0,0,1-1.5.707A2.423,2.423,0,0,1,2.421,3.666Zm2.97-2.589a.76.76,0,0,0-.556.33,2.386,2.386,0,0,1-.193.8c.3-.073.814-.238.934-.547a.584.584,0,0,0,.042-.468.221.221,0,0,0-.164-.106A.357.357,0,0,0,5.391,1.076Z" transform="translate(212.111 60.69)"/>
    <path id="Fill_46" data-name="Fill 46" class="cls-10" d="M0,.3v.943A2.428,2.428,0,0,0,2.42,3.666a2.24,2.24,0,0,0,.325-.024,2.427,2.427,0,0,1-2.095-2.4V.3A2.381,2.381,0,0,1,.67,0H.02A2.381,2.381,0,0,0,0,.3" transform="translate(212.504 60.69)"/>
    <path id="Clip_49-2" data-name="Clip 49" class="cls-1" d="M0,118.545H256.364V0H0Z"/>
    <g id="Mask_Group_2" data-name="Mask Group 2" class="cls-11">
      <path id="Fill_48" data-name="Fill 48" class="cls-9" d="M0,.3H1.976V0H0Z" transform="translate(213.542 64.145)"/>
      <path id="Fill_50" data-name="Fill 50" class="cls-12" d="M1.363,3.8S1.621.526,6.335,1.377c1.246.225,2.1-2,4.143-1.205,4.393,1.705,4.651-.546,5.921,2.614.531,1.323,3.911,2.862,2.879,5.148s.695,3.823-.519,5.614c-.628.927-.373,2.584-3.335,2.643-1.475.029-3.773,2.763-5.429,3.26s-6.627-.22-6.44-2.491C3.7,15.186,1.636,15.333.366,13.3c-1.11-1.781.871-2.229-.188-5.108C-.6,6.078,1.423,5.564,1.363,3.8" transform="translate(229.943 31.505)"/>
      <path id="Fill_51" data-name="Fill 51" class="cls-8" d="M10.432,7.768c.1,1.1-1.425,1.363-3.193,1.451s-1.233.45-3.656.889S.19,9.884.015,9.556c-.156-.29.97-.744,2.17-1.258.151-.064.3-.13.453-.2C3.989,7.508,4.747,6.3,5.8,5.173,6.8,4.109,7.745.7,7.745.7L11.037,0s-.924,3.066-1.245,4.375a4.055,4.055,0,0,0,.337,2.286,4.3,4.3,0,0,1,.3,1.108" transform="translate(194.959 108.166)"/>
      <path id="Fill_52" data-name="Fill 52" class="cls-13" d="M7.239,2.559c-1.768.088-1.233.45-3.656.889S.19,3.223.015,2.9c-.156-.29.97-.744,2.17-1.258l.019.02A6.9,6.9,0,0,0,5.873,1.7C7.475,1.267,9.025.309,10.129,0a4.307,4.307,0,0,1,.3,1.108c.1,1.1-1.425,1.363-3.193,1.451" transform="translate(194.959 114.826)"/>
      <path id="Fill_53" data-name="Fill 53" class="cls-14" d="M33.085,0S14.841.82,10.723,3.419,0,36.292,0,36.292a2.684,2.684,0,0,0,1.318.425,11.047,11.047,0,0,0,2.712-.406S13.521,22.765,14.19,19.353s.505-6.458,2.028-6.539,20.5,2.307,23.372-2.75S33.085,0,33.085,0" transform="translate(201.456 74.431)"/>
      <path id="Fill_54" data-name="Fill 54" class="cls-8" d="M10.432,7.768c.1,1.1-1.425,1.363-3.193,1.451s-1.234.45-3.656.889S.19,9.884.015,9.556c-.156-.29.97-.745,2.17-1.258.151-.064.3-.13.453-.2C3.989,7.508,4.747,6.3,5.8,5.174,6.8,4.109,7.745.7,7.745.7L11.037,0s-.924,3.066-1.245,4.375a4.056,4.056,0,0,0,.337,2.286,4.307,4.307,0,0,1,.3,1.108" transform="translate(202.486 108.289)"/>
      <path id="Fill_55" data-name="Fill 55" class="cls-13" d="M7.239,2.559c-1.768.088-1.234.45-3.656.889S.19,3.223.015,2.9c-.156-.29.97-.745,2.17-1.258l.019.02A6.9,6.9,0,0,0,5.873,1.7C7.475,1.267,9.025.309,10.129,0a4.313,4.313,0,0,1,.3,1.108c.1,1.1-1.425,1.363-3.193,1.451" transform="translate(202.486 114.95)"/>
      <path id="Fill_56" data-name="Fill 56" class="cls-12" d="M32.882,0S13.449.92,9.435,3.677,0,36.943,0,36.943a2.686,2.686,0,0,0,1.334.374A11.053,11.053,0,0,0,4.027,36.8s8.957-13.9,9.493-17.341.253-6.472,1.772-6.613,20.575,1.508,23.247-3.658S32.882,0,32.882,0" transform="translate(208.731 74.862)"/>
      <path id="Fill_57" data-name="Fill 57" class="cls-8" d="M17.344,6.383a.341.341,0,0,0-.025-.03,3.065,3.065,0,0,0-.542-.475l-.007-.005h0a10.977,10.977,0,0,0-4.424-1.346v0h0v0s-.31-.029-.8-.052A14.7,14.7,0,0,1,10.617,0l-.281.075L5.607,1.343s.209,1.5.308,2.921c.022.311.037.618.045.9-.137.05-3.079.465-3.719,1.152S.322,11.588,0,12.4l18.2.3s.457-4.757-.859-6.314" transform="translate(230.086 43.651)"/>
      <path id="Fill_58" data-name="Fill 58" class="cls-15" d="M23.3,33.068c-2.155.2-9.419-4.181-11.839-5.608l-.122-.072a11.533,11.533,0,0,0-3.774-1.1c-1.718-.281-3.321-.47-3.834-1.084-.611-.731,1.186-1.541,2.63-2.382a4,4,0,0,0,1.566-1.289A4.955,4.955,0,0,0,7.962,19.5h0c-.017-.178-.04-.363-.066-.555a6.169,6.169,0,0,1-.433.749A10.976,10.976,0,0,1,5.921,21.5a5.124,5.124,0,0,1-1.792,1.236,1.411,1.411,0,0,1-.856-.077A5.5,5.5,0,0,1,1.208,20.73c-.136-.189-.265-.378-.383-.558-.4-.6-.677-1.1-.783-1.214C-.281,18.6,1.34,17.894,2,17.363S5.28,6.527,5.28,6.527c.323-.812,1.6-5.39,2.241-6.079,0,0,2.495,3.047,5.73,2.872C16.462,3.147,21.963.049,22.048,0a2,2,0,0,1,.576.51c1.316,1.557.859,6.313.859,6.313s-2.518,11.1-2.518,12.216c0,2.053,1.7,6.773,2.508,10.173.515,2.154.674,3.775-.176,3.856" transform="translate(224.805 49.525)"/>
      <path id="Fill_59" data-name="Fill 59" class="cls-16" d="M0,1.268s.21,1.5.308,2.921C2.984,3.935,4.238,1.394,4.728,0Z" transform="translate(235.693 43.726)"/>
      <path id="Fill_60" data-name="Fill 60" class="cls-8" d="M2.607,10.888S8.957,10.57,8.7,6.618,9.084-.036,5.018,0,.265,1.6.03,2.936s.918,7.933,2.576,7.952" transform="translate(232.281 35.511)"/>
      <path id="Fill_61" data-name="Fill 61" class="cls-12" d="M0,2.627s1.518-.354,2.014.384.142,1.152,1.249,1.462,1.484.288,1.373,1.063S5.749,6.887,5.8,7.507a1.085,1.085,0,0,0,1.049.974c.487.044.266-7.994-1.616-8.349A6.336,6.336,0,0,0,.982.642,5.255,5.255,0,0,0,0,2.627" transform="translate(234.62 34.29)"/>
      <path id="Fill_62" data-name="Fill 62" class="cls-12" d="M3.44,2.125s-1.476-.1-1.742.738.089,1.041-.288,1.55a2.015,2.015,0,0,0-.159,1.413S-1.668.449,1.411.1s3,.273,2.03,2.03" transform="translate(231.179 34.793)"/>
      <path id="Fill_63" data-name="Fill 63" class="cls-17" d="M7.062,9.713A16.37,16.37,0,0,1,5.1,13.533,5.125,5.125,0,0,1,3.3,14.769a1.411,1.411,0,0,1-.856-.077A5.5,5.5,0,0,1,.383,12.763c-.136-.189-.265-.378-.383-.558C2.017,10.587,5.841,6.883,6.239,1.814c.543-6.923.852,8.217.823,7.9" transform="translate(225.629 57.491)"/>
      <path id="Fill_64" data-name="Fill 64" class="cls-17" d="M0,2.964A9,9,0,0,1,4.191,0,8.529,8.529,0,0,1,.856,3.041,1.411,1.411,0,0,1,0,2.964" transform="translate(228.077 69.219)"/>
      <path id="Fill_65" data-name="Fill 65" class="cls-17" d="M16.455,0s-1.586,15.935-8.6,18.123l-.122-.072a11.533,11.533,0,0,0-3.774-1.1c-1.718-.281-3.321-.47-3.834-1.084-.611-.731,1.186-1.541,2.63-2.382A4,4,0,0,0,4.318,12.2a4.955,4.955,0,0,0,.039-2.036h0C11.166,7.647,16.455,0,16.455,0" transform="translate(228.41 58.861)"/>
      <path id="Fill_66" data-name="Fill 66" class="cls-8" d="M31.671,1.955C30.936-1.358,27.6.543,27.6.543c-1.156-.264-9.642,13.491-10.321,13.8-.576.264-8.4-2.007-10.771-2.707A20.436,20.436,0,0,0,3.365,9.457c-.44-.033-3.383.723-3.365,1.19S.707,11.8,1.794,11.973c.823.131,2.22.674,3.11.809,0,0,8.632,5.88,12.306,6.6,3.308.646,15.2-14.112,14.461-17.424" transform="translate(214.98 52.188)"/>
      <path id="Fill_67" data-name="Fill 67" class="cls-15" d="M.778,13.4s-1.99,5.113.394,7.056,7.557,1.29,13.223-6.612S22.367,1.64,19.426.384s-5.372.714-6.881,3.788c-1.568,3.195-4.459,7.618-6.193,7.786A38.7,38.7,0,0,0,.778,13.4" transform="translate(226.31 51.983)"/>
      <path id="Fill_68" data-name="Fill 68" class="cls-8" d="M.022,4.452l0,.772S-.184,7.638,2.788,7.99,8.2,8.3,8.118,6.435A39.32,39.32,0,0,1,7.35,1.56,8.411,8.411,0,0,1,7.456.115L1.7,0,0,.277Z" transform="translate(192.278 12.551)"/>
      <path id="Fill_69" data-name="Fill 69" class="cls-18" d="M0,.277.022,4.452A4.869,4.869,0,0,0,2.1,4.91c2.647,0,4.358-1.941,5.252-3.35A8.4,8.4,0,0,1,7.456.115L1.7,0Z" transform="translate(192.278 12.551)"/>
      <path id="Fill_70" data-name="Fill 70" class="cls-8" d="M9.508,9.058c-.668,3.6-5.309,3.478-7.314,3.252-.564-.063-.919-.135-.919-.135C.638,12.005.283,11,.118,9.69A20.454,20.454,0,0,1,.643,2.3C1.3.834,2.548-.754,7.221.392S10.365,4.45,9.508,9.058" transform="translate(190.667 2.682)"/>
      <path id="Fill_71" data-name="Fill 71" class="cls-19" d="M6.576,4.027H0a15.866,15.866,0,0,1,.524-2.36A6.679,6.679,0,0,1,.9.719C1.536-.558,5.6.255,5.6.255A3.126,3.126,0,0,1,6.27,1.812a13.076,13.076,0,0,1,.305,2.214" transform="translate(197.397 114.191)"/>
      <path id="Fill_72" data-name="Fill 72" class="cls-19" d="M13.462,4.628A3.566,3.566,0,0,1,13.007,6.7H0a2.244,2.244,0,0,1,1.969-1.4A9.866,9.866,0,0,0,7.232,2.872,3.918,3.918,0,0,0,8.251,1.027c.612-2.724,5.06.835,5.06.835a22.049,22.049,0,0,1,.151,2.766" transform="translate(170.639 111.515)"/>
      <path id="Fill_73" data-name="Fill 73" class="cls-20" d="M15.154,33.176a20.485,20.485,0,0,0-.327,2.4C14.413,43.644,8.038,62.085,6.9,62.515c-1.765.666-4.543-.749-6-1.213a1.247,1.247,0,0,1-.875-1.416C3.183,45.371,4.343,24.47,4.766,12.1A56.146,56.146,0,0,1,6.049,1.557s15.55-4.149,15.642,1.1c.082,4.644-5.151,22.858-6.537,30.519" transform="translate(177.599 53.516)"/>
      <path id="Fill_74" data-name="Fill 74" class="cls-19" d="M10.388,33.176,0,12.1A56.146,56.146,0,0,1,1.283,1.557s15.55-4.149,15.642,1.1c.082,4.644-5.151,22.858-6.537,30.519" transform="translate(182.364 53.516)"/>
      <path id="Fill_75" data-name="Fill 75" class="cls-20" d="M0,1.9,8.22,61.474a16.082,16.082,0,0,0,6.418.174S17.045,29.962,16.844,22.3,18.572,1.8,16.4.387,0,1.9,0,1.9" transform="translate(189.292 54.296)"/>
      <path id="Fill_76" data-name="Fill 76" class="cls-19" d="M.047,1.561A15.463,15.463,0,0,0,4.53.348C6.5-.509,8.983.434,9.79.859a1.2,1.2,0,0,0-.2-.485,1.082,1.082,0,0,1,.415.616c.037.027.054.046.044.053a1.387,1.387,0,0,1,.674.044s-.184-.026-.25.092a.106.106,0,0,1-.03.033C13.519,2.7,13.8,7.55,12.814,8.673A24.649,24.649,0,0,0,10.2,13.068a2.609,2.609,0,0,1-.3-1.908c.216-1.189-.811-1.189-2.108-1.73S7.57,7.376,6.435,6.457s-5.3-.378-5.244-1.081C-.354,4.813.047,1.719.047,1.561" transform="translate(189.829 0)"/>
      <path id="Fill_77" data-name="Fill 77" class="cls-21" d="M17.247,0,15.355,40.609s-15.8.258-15.345-3.316S5.7,1.244,5.7,1.244Z" transform="translate(183.849 20.021)"/>
      <path id="Fill_78" data-name="Fill 78" class="cls-22" d="M10.847,24.528c-.94,2.819.832,12.279,1.464,15.484.139.678.231,1.078.231,1.078C10.354,44.65,2.342,44.6,2.342,44.6A153.131,153.131,0,0,1,0,26.947L6.147,0l7.734,7.149s-.585,4.36-1.309,8.8a73.555,73.555,0,0,1-1.726,8.582" transform="translate(195.889 18.511)"/>
      <path id="Fill_79" data-name="Fill 79" class="cls-23" d="M2.235.429S2.085.893.914.724c0,0-.983-.142-.91-.659A3.19,3.19,0,0,1,2.235.429" transform="translate(191.355 11.902)"/>
      <path id="Fill_80" data-name="Fill 80" class="cls-22" d="M13.772,43.469A5.265,5.265,0,0,1,10.223,39.4c-.312-1.522.094-4.776.564-8.544.077-.615.155-1.241.232-1.875a1.242,1.242,0,0,1-.268.027,3.206,3.206,0,0,1-.995-.206,53.355,53.355,0,0,1-5.533-4.561A20.29,20.29,0,0,1,.858,20.252C-.02,18.78-.224,17.562.25,16.635,2.318,12.577,13.1,2.129,13.212,2.024c0-.01,0-.017,0-.017A22.579,22.579,0,0,1,19.933,0a210.893,210.893,0,0,0-4.421,25.772c-.588,6.024-1.671,17.58-1.671,17.663C13.841,43.457,13.817,43.469,13.772,43.469ZM11.625,14.875l0,0-.047.047c-.348.219-.691.433-1.025.642-2.027,1.263-3.628,2.261-3.628,2.763a.1.1,0,0,0,.015.062c.229.675,3.466,5.752,4.453,7.293a45.056,45.056,0,0,0,.272-7.2C11.591,17.416,11.579,16.2,11.625,14.875Z" transform="translate(171.497 18.593)"/>
      <path id="Fill_81" data-name="Fill 81" class="cls-24" d="M7.379.923C7.4.535,5.563,0,5.563,0A7.626,7.626,0,0,1,0,2.963,6.135,6.135,0,0,0,2.149,5.38S7.265,3.224,7.379.923" transform="translate(194.165 17.539)"/>
      <path id="Fill_82" data-name="Fill 82" class="cls-24" d="M3.7,2.283S1.865,1.2,1.859.017c0,0-1.184-.148-1.7.426A6.1,6.1,0,0,0,.3,3.636s2.641-.4,3.4-1.353" transform="translate(190.466 18.152)"/>
      <path id="Fill_83" data-name="Fill 83" class="cls-25" d="M2.8.6.316,0A.377.377,0,0,0,0,.433,3.166,3.166,0,0,0,1.007,2.116c.306.095,2.384-.7,1.8-1.521" transform="translate(192.607 19.664)"/>
      <path id="Fill_84" data-name="Fill 84" class="cls-21" d="M7.089,1.186C7.109.8,5.866,0,5.866,0A8.75,8.75,0,0,1,0,2.861,6.135,6.135,0,0,0,2.149,5.278s4.826-1.79,4.94-4.092" transform="translate(194.165 17.076)"/>
      <path id="Fill_85" data-name="Fill 85" class="cls-21" d="M3.684,2.162S1.83,1.179,1.823,0A5.925,5.925,0,0,0,.186,1.067a3.4,3.4,0,0,0,.1,2.448s2.641-.4,3.4-1.353" transform="translate(190.481 17.775)"/>
      <path id="Fill_86" data-name="Fill 86" class="cls-13" d="M.15,26.911a3.833,3.833,0,0,0,1.221,2.478l1.1,1.015a.645.645,0,0,0,.944-.076L4.78,28.594a2.3,2.3,0,0,0,.482-1.641c-.128-1.311-.365-3.837-.556-6.276-.155-1.976-.279-3.895-.288-5.062C4.388,11.887,5.128,0,5.128,0L4.234.047A47.867,47.867,0,0,0,.852,10.939a41.567,41.567,0,0,0-.618,4.894A90.544,90.544,0,0,0,.15,26.911" transform="translate(189.154 21.038)"/>
      <path id="Fill_87" data-name="Fill 87" class="cls-25" d="M.15,15.971a3.833,3.833,0,0,0,1.221,2.478l1.1,1.015a.645.645,0,0,0,.944-.076L4.78,17.655a2.3,2.3,0,0,0,.482-1.641C5.135,14.7,4.9,12.176,4.707,9.738,2.237,6.963,1.236,3.129.852,0A41.567,41.567,0,0,0,.235,4.894,90.544,90.544,0,0,0,.15,15.971" transform="translate(189.154 31.978)"/>
      <path id="Fill_88" data-name="Fill 88" class="cls-8" d="M0,1.729A1.71,1.71,0,0,1,1.934.019a1.058,1.058,0,0,1,.718.4c.7.937,1.374,3.665.126,3.792a2.74,2.74,0,0,1-1.663-.686A2.419,2.419,0,0,1,0,1.885Z" transform="translate(180.514 46.329)"/>
      <path id="Fill_89" data-name="Fill 89" class="cls-19" d="M6.043,24.066C3.778,21.709-.135,17.071,0,13.265.189,7.934,6.305,0,6.305,0A73.544,73.544,0,0,1,4.579,8.582c-.94,2.819.832,12.28,1.464,15.484" transform="translate(202.157 34.457)"/>
      <path id="Fill_90" data-name="Fill 90" class="cls-8" d="M7.059,0S5.431.814,4.443.407A2.53,2.53,0,0,0,1.187.952C.082,2.21-.151,3.082.082,3.547s2.808.291,3.236,0,1.1-1.006,1.532-.882A2.707,2.707,0,0,0,7.587,1.388C7.924.954,7.016.744,7.059,0" transform="translate(201.069 49.251)"/>
      <path id="Fill_91" data-name="Fill 91" class="cls-22" d="M0,0S6.485.718,8.014,3.542,17.5,17.811,17.236,22.567,6.388,32.657,6.388,32.657s-2.345-.991-2.38-2.057,7.32-7.438,6.874-8.627S2.337,11.379,1.556,8.278,0,0,0,0" transform="translate(202.037 18.511)"/>
      <path id="Fill_92" data-name="Fill 92" class="cls-19" d="M4.722,2.913l-.046.047C2.257,4.485.023,5.779.023,6.365-.3,5.332,2.843,1.018,3.86.14c1.032-.894.863,2.773.863,2.773" transform="translate(178.395 30.558)"/>
      <path id="Fill_93" data-name="Fill 93" class="cls-19" d="M4.224,0S-.7,20.62.084,28.387a52.92,52.92,0,0,1,6.166-15.1s-1.59-1.4-1.5-1.913a5.443,5.443,0,0,1,2.325-.114s-.126-8.888-.84-9.827A5.2,5.2,0,0,0,4.224,0" transform="translate(195.807 17.076)"/>
      <path id="Fill_94" data-name="Fill 94" class="cls-19" d="M5.3,0C5.4-.059.416,20.149,0,26.589c0,0,.493-11.491.445-14.8,0,0,2.045-1.083,2.045-1.462S.308,8.917.308,8.917,1.69,1.84,2.443,1.06A6.307,6.307,0,0,1,5.3,0" transform="translate(187.009 17.775)"/>
      <path id="Fill_95" data-name="Fill 95" class="cls-8" d="M8.325,8.281a.923.923,0,0,1,.165.987.007.007,0,0,1,0,0A6.138,6.138,0,0,1,6.549,11.4c-.117.094-.221.18-.311.259l-.07.063-.054.049c-.852.786-.531.966-2.062,2.559C2.306,16.147,1.1,16.179.762,16.014c-.289-.141.3-1.1.95-2.187l.095-.158c.087-.144.173-.29.259-.435.763-1.3.567-1.915.386-3.854C2.3,7.8,0,.576,0,.576L3.345,0S4.353,5.756,5.463,6.642c.594.472,1.258.478,1.829.829.04.024.08.049.119.075a4.391,4.391,0,0,1,.915.735" transform="translate(148.087 99.137)"/>
      <path id="Fill_96" data-name="Fill 96" class="cls-13" d="M7.639.81A.923.923,0,0,1,7.8,1.8a.007.007,0,0,1,0,0,7.108,7.108,0,0,1-1.942,2.12c-.115.1-.217.184-.308.266l-.07.063L5.428,4.3c-.852.786-.531.966-2.062,2.559C1.619,8.676.418,8.708.076,8.543c-.289-.141.3-1.1.95-2.187A7.439,7.439,0,0,0,4.137,4.063C5.188,2.722,5.889,1,6.605,0c.04.024.08.049.119.075A4.391,4.391,0,0,1,7.639.81" transform="translate(148.773 106.608)"/>
      <path id="Fill_97" data-name="Fill 97" class="cls-8" d="M10.041,7.21c-.207,1.033-1.679.86-3.323.459s-1.254.076-3.594-.183S.074,6.354,0,6.006C-.061,5.7,1.1,5.588,2.336,5.445c.156-.017.313-.037.469-.056,1.4-.176,2.426-1.079,3.7-1.821,1.205-.7,3-3.567,3-3.567l3.21.254S11.032,2.813,10.38,3.925a3.878,3.878,0,0,0-.315,2.187,4.119,4.119,0,0,1-.025,1.1" transform="translate(119.397 98.119)"/>
      <path id="Fill_98" data-name="Fill 98" class="cls-13" d="M6.718,2.224c-1.644-.4-1.254.076-3.594-.183S.074.909,0,.561C-.061.252,1.1.143,2.336,0l.012.024A6.6,6.6,0,0,0,5.7,1.066c1.588.039,3.27-.416,4.366-.4a4.112,4.112,0,0,1-.025,1.1c-.207,1.033-1.679.86-3.323.459" transform="translate(119.396 103.564)"/>
      <path id="Fill_99" data-name="Fill 99" class="cls-8" d="M5.387,2.223S4.622.349,3.781.273.263-.224.072.158A2.646,2.646,0,0,0,.645,2.414c.573.5,4.13,1.3,4.13,1.3Z" transform="translate(131.192 55.962)"/>
      <path id="Fill_100" data-name="Fill 100" class="cls-26" d="M0,5.145,6.918,23.762A6.334,6.334,0,0,0,9,23.571a8.968,8.968,0,0,0,2.012-.98S9.3,4.716,6.149,1,0,5.145,0,5.145" transform="translate(141.738 79.659)"/>
      <path id="Fill_101" data-name="Fill 101" class="cls-13" d="M42.054,5.491S22.176-1.231,17.743.2,0,28.111,0,28.111a2.568,2.568,0,0,0,1.12.707,10.572,10.572,0,0,0,2.609.268s12.012-10.3,13.442-13.3,2-5.863,3.432-5.577,18.447,7.007,22.308,3a11.145,11.145,0,0,0,2.851-9.206Z" transform="translate(127.045 71.783)"/>
      <path id="Fill_102" data-name="Fill 102" class="cls-27" d="M1.883,16.906a11.3,11.3,0,0,1-.846-3.895,11.954,11.954,0,0,0,1.391,4.3c4.134,2.714,12.057,11.777,11.9,13.494,0,0,2.791-4.734,2.839-4.762,0,0,5.148-6.547-.953-10.3-3.1-1.906-3.086-4.352-2.956-6.477S12.412-2,6.2.4A4.044,4.044,0,0,0,4.756.02a1.22,1.22,0,0,1,.55.261A4.82,4.82,0,0,0,2.7.78C.42,2.074-1.618,13.684,1.883,16.906" transform="translate(155.069 29.1)"/>
      <path id="Fill_103" data-name="Fill 103" class="cls-8" d="M0,6.12a5.726,5.726,0,0,0,3.513.641,4.557,4.557,0,0,0,2.34-2.243c-.6-.12-.779-.95-.766-4.519L4.814.054.221.963s.1,1.445.108,2.807C.331,4.914.262,6,0,6.12" transform="translate(157.741 40.431)"/>
      <path id="Fill_104" data-name="Fill 104" class="cls-28" d="M0,.909S.1,2.355.108,3.717C2.678,3.644,4.036,1.3,4.593,0Z" transform="translate(157.962 40.485)"/>
      <path id="Fill_105" data-name="Fill 105" class="cls-27" d="M7.96,9.438A13.508,13.508,0,0,0,9.63,5.49C9.861,4.19,9.2-.626,4.36.068A6.574,6.574,0,0,0,1.633,1.1C.582,1.809-.934,3.341.762,7.543L1.2,8.962Z" transform="translate(155.069 30.547)"/>
      <path id="Fill_106" data-name="Fill 106" class="cls-8" d="M2.025,10.261s6.081.1,6.085-3.688S8.9.247,5.02.023.382,1.244.073,2.508s.371,7.63,1.953,7.754" transform="translate(155.078 32.422)"/>
      <path id="Fill_107" data-name="Fill 107" class="cls-27" d="M0,.77s1.665,4.444,4.22,5.1,3.664-.027,3.664-.027A7.236,7.236,0,0,1,5.517,1.569S1.256-1.345,0,.77" transform="translate(157.328 31.583)"/>
      <path id="Fill_108" data-name="Fill 108" class="cls-27" d="M3.079.725A5.37,5.37,0,0,0,1.532,2.681c-.3.965-.44,2.95-1.018,2.883,0,0-1.254-3.021.155-4.729C2.164-.977,3.079.725,3.079.725" transform="translate(154.662 31.989)"/>
      <path id="Fill_109" data-name="Fill 109" class="cls-29" d="M20.3,32.432c-.328.91-1.334,1.145-2.682.987-2.57-.3-6.389-2.026-9.14-3.22-4.195-1.818-6.1-.11-7.436-1.267S2.569,25.2.09,13.252C-.751,9.2,4.577.513,4.577.513s.46,2.515,5.557-.51c.18-.107,2.186,2.864,4.119,6.526,2.13,4.041,4.17,8.921,3.57,11.436-1.144,4.795,3.432,11.821,2.479,14.467" transform="translate(153.459 44.947)"/>
      <path id="Fill_110" data-name="Fill 110" class="cls-29" d="M22.765,0,19.622,12.89s-.391.7-1,1.687c-1.439,2.326-4.1,6.278-5.806,6.679-.841.2-2.63-.5-4.609-1.5A93.607,93.607,0,0,1,.036,14.9a3.928,3.928,0,0,1,1.207-3.115s8.962,3.368,9.852,3.432c1.94.138,3.915-9.226,5.728-12.346C18.135.615,22.765,0,22.765,0" transform="translate(135.272 45.459)"/>
      <path id="Fill_111" data-name="Fill 111" class="cls-23" d="M2.285.308S2.172.789.975.715C.975.715-.03.653,0,.124A3.234,3.234,0,0,1,2.285.308" transform="translate(156.17 40.08)"/>
      <path id="Fill_112" data-name="Fill 112" class="cls-30" d="M12.061,21.213c-.328.91-1.334,1.145-2.682.987C7.6,21.425-.085,18.448,0,16.43c.128-2.987,1.478-3.082.524-6.769C-.24,6.7,6.861,1.2,7.993,0c2.13,4.041,2.189,4.232,1.589,6.747-1.144,4.795,3.432,11.821,2.479,14.467" transform="translate(161.7 56.165)"/>
      <path id="Fill_113" data-name="Fill 113" class="cls-30" d="M10.415.514C8.976,2.84,6.313,6.792,4.609,7.193c-.841.2-2.629-.5-4.609-1.5a11.972,11.972,0,0,0,4.211.231c1.478-.143,1.907-1.955,4.243-4.672C9.969-.511,10.341-.068,10.415.514" transform="translate(143.475 59.522)"/>
      <path id="Fill_114" data-name="Fill 114" class="cls-8" d="M4.269.8a3.666,3.666,0,0,0-2.5-.763C.551.275-.045,1.109,0,1.491A2.168,2.168,0,0,0,1.623,3.04,17.55,17.55,0,0,0,5.2,2.468Z" transform="translate(156.741 64.955)"/>
      <path id="Fill_115" data-name="Fill 115" class="cls-29" d="M3.068,0S8.025.305,9.74,2.7c2.415,3.369,6.61,17.122,5.466,20.268L.127,22.9A4.46,4.46,0,0,1,.27,20.368c.508-.826,8.771-2.161,9.153-2.542S4.656,10.389,4.656,9.245,3.068,0,3.068,0" transform="translate(160.525 44.949)"/>
      <path id="Fill_116" data-name="Fill 116" class="cls-12" d="M21.547,11.477H3.291L0,0H18.228Z" transform="translate(138.169 59.91)"/>
      <path id="Fill_117" data-name="Fill 117" class="cls-14" d="M0,.447H23.866V0H0Z" transform="translate(141.523 70.939)"/>
      <path id="Fill_118" data-name="Fill 118" class="cls-14" d="M.03.73A.532.532,0,0,1,.551,0a1.047,1.047,0,0,1,.94.73.532.532,0,0,1-.521.73A1.047,1.047,0,0,1,.03.73" transform="translate(147.227 64.731)"/>
      <path id="Fill_119" data-name="Fill 119" class="cls-31" d="M8.774.081l-1.253,7.1h0L4.059,26.8.964,44.341a.564.564,0,0,1-.56.46.4.4,0,0,1-.4-.444L2.672,24.475,5.527,3.208,5.958,0Z" transform="translate(70.189 73.742)"/>
      <path id="Fill_120" data-name="Fill 120" class="cls-31" d="M8.774.081l-1.253,7.1h0L4.059,26.8.964,44.341a.564.564,0,0,1-.56.46.4.4,0,0,1-.4-.444L2.672,24.475,5.527,3.208,5.958,0Z" transform="translate(83.892 73.742)"/>
      <path id="Fill_121" data-name="Fill 121" class="cls-7" d="M1.994,7.183A3.891,3.891,0,0,0,0,3.208L.431,0,3.247.081Z" transform="translate(75.716 73.742)"/>
      <path id="Fill_122" data-name="Fill 122" class="cls-31" d="M8.37,44.8a.566.566,0,0,1-.561-.46L5.06,28.758,1.106,6.347,0,.081,2.817,0l.489,3.638L6.736,29.2,8.771,44.357a.4.4,0,0,1-.4.444" transform="translate(188.806 73.742)"/>
      <path id="Fill_123" data-name="Fill 123" class="cls-7" d="M3.305,3.638a4.041,4.041,0,0,0-2.2,2.709L0,.081,2.817,0Z" transform="translate(188.806 73.742)"/>
      <path id="Fill_124" data-name="Fill 124" class="cls-31" d="M8.37,44.8a.566.566,0,0,1-.561-.46L5.06,28.758,1.106,6.347,0,.081,2.817,0l.489,3.638L6.736,29.2,8.771,44.357a.4.4,0,0,1-.4.444" transform="translate(204.597 73.742)"/>
      <path id="Fill_125" data-name="Fill 125" class="cls-7" d="M3.305,3.638a4.041,4.041,0,0,0-2.2,2.709L0,.081,2.816,0Z" transform="translate(204.597 73.742)"/>
      <path id="Fill_126" data-name="Fill 126" class="cls-32" d="M149.393,4.921H2.435A2.442,2.442,0,0,1,0,2.486v-.05A2.442,2.442,0,0,1,2.435,0H149.393a2.442,2.442,0,0,1,2.435,2.435v.05a2.442,2.442,0,0,1-2.435,2.435" transform="translate(63.193 71.361)"/>
      <path id="Fill_175" data-name="Fill 175" class="cls-8" d="M30.213,15.973a4.323,4.323,0,0,0-2.089.669A36.894,36.894,0,0,1,24.3,14.911S13.877,9.766,13.324,9.467L5.8,0,0,2.675S8.463,12.74,9,13.184s15.484,5.685,16.783,6.191c0,0,1.311,1.2,2.159,1.921a8.983,8.983,0,0,0,2.253,1.175,9.478,9.478,0,0,0,2.3.806c1.139.248.19-.526.19-.526s-2.015-.851-1.916-1c.076-.119,1.148.414,2.4.7.323.074.643.146.936.209.772.167,1.11-.275.335-.582a7.544,7.544,0,0,0-1.079-.35,6.238,6.238,0,0,1-.99-.389,8.129,8.129,0,0,1-1.018-.408c.031-.027-.054-.159.292-.092a19.11,19.11,0,0,0,1.877.526c.353.04,1.084.17,1.084.17s1.293.124,1.3-.058c.019-.4-.777-.618-1.266-.608A5.1,5.1,0,0,0,33.56,20.6s-1.5-.592-1.413-.814a10.613,10.613,0,0,1,1.907.114c1.019.07,1.757.069,1.811-.127.086-.313-.725-.432-.725-.432s-.715-.1-.949-.158c-.274-.063-1.08-.315-1.08-.315s-2.759-1.014-2.659-1.217.555-.63.75-.629.543.2.737.2.613-.036.642-.281-1.051-.752-1.051-.752a3.056,3.056,0,0,0-1.317-.208" transform="translate(44.489 27.128)"/>
      <g id="Group_7" data-name="Group 7" transform="translate(70.533 37.982) rotate(42)">
        <path id="Rectangle" class="cls-23" d="M4.025,0h8.453L16.9,3.22v8.855H0V3.22Z"/>
        <g id="Group_3-3" data-name="Group 3" transform="translate(0 3.22)">
          <path id="Clip_2-13" data-name="Clip 2" class="cls-1" d="M0,0H16.766V8.438H0Z" transform="translate(0 0.479)"/>
          <g id="Group_3-4" data-name="Group 3" class="cls-33">
            <path id="Fill_1-3" data-name="Fill 1" class="cls-34" d="M16.767,8.438V0H0V5.2l.6-.36a1.71,1.71,0,0,1,.22-.206L1.5,4.026c.157-.123.506-.451.7-.594s.49-.412.715-.585l.941-.782c.079-.067.151-.123.229-.2a2.62,2.62,0,0,1,.479-.374.373.373,0,0,1,.369.632c-.041.042-.076.059-.118.1L3.59,3.357a1.137,1.137,0,0,0-.112.1c-.143.163-.2.178-.329.311-.167.173-.212.195-.331.309a1.544,1.544,0,0,1-.112.12l-.672.608c-.079.086-.139.122-.229.213a.428.428,0,0,0,.225.753.289.289,0,0,0,.334-.108l3.022-3a.383.383,0,0,1,.592-.054c.345.344-.137.663-.473,1-.29.294-.572.566-.864.859C4.094,5.022,3.554,5.554,3.006,6.1a2.421,2.421,0,0,1,.8.392l.987-1.054c.079-.077.133-.143.206-.224L6.36,3.772c.037-.04.055-.079.094-.118a.374.374,0,0,1,.653.327,3.942,3.942,0,0,1-.573.726l-.788.936c-.062.074-.132.155-.193.234l-.589.708c-.066.082-.133.149-.194.23l-.435.551C3.537,9.095,0,7.978,0,8.438H14.035L12.541,6.4c-.128-.144-.264-.317-.393-.472l-.756-.974a18.235,18.235,0,0,1-1.336-2.1A7.221,7.221,0,0,1,9.32,1.008.991.991,0,0,1,9.315.624C9.34.52,9.444.391,9.57.47l.663.612.229.213.863.849" transform="translate(0 0.479)"/>
          </g>
        </g>
        <g id="Group_6" data-name="Group 6">
          <path id="Clip_5-11" data-name="Clip 5" class="cls-1" d="M0,0H16.765V3.44H0Z" transform="translate(0.001 0.11)"/>
          <g id="Group_6-2" data-name="Group 6" class="cls-35">
            <path id="Fill_4-2" data-name="Fill 4" class="cls-36" d="M16.764,3.44H0L4.191,0h8.384l4.187,3.438ZM6.592,1.126a.632.632,0,0,0-.662.595.631.631,0,0,0,.662.593h3.583a.63.63,0,0,0,.66-.593.631.631,0,0,0-.66-.595Z" transform="translate(0.001 0.11)"/>
          </g>
        </g>
      </g>
      <path id="Fill_176" data-name="Fill 176" class="cls-37" d="M13.5,10.7s-1.877,1.705-2.658,2.267c-.649.467-3.812,1.99-3.812,1.99S3.885,10.139,2.508,7.722C.839,4.79-.317.43.078.312A5.777,5.777,0,0,1,4.116.423C8.985,2.658,13.5,10.7,13.5,10.7" transform="translate(42.023 22.291)"/>
      <path id="Fill_178" data-name="Fill 178" class="cls-38" d="M.587,0S.379,3.69.378,3.7C.3,4.166,0,5.323,0,5.749c0,1.6,7.1-1.358,5.507-2.067-.144-.064-.9-.549-.945-1.094C4.488,1.749,4.3.052,4.3.052Z" transform="translate(24.123 106.857)"/>
      <path id="Fill_179" data-name="Fill 179" class="cls-39" d="M5.741.066a25.5,25.5,0,0,1-2.52.612C2.368.8,1.242-.23.639.048-.026.354,0,3.111,0,3.111s8.936.785,11.449-.027c1-.322-2.3-1.878-5.708-3.018" transform="translate(23.957 110.49)"/>
      <path id="Fill_180" data-name="Fill 180" class="cls-38" d="M.588,0S.379,3.69.378,3.7C.3,4.166,0,5.323,0,5.749c0,1.6,7.1-1.358,5.507-2.067-.144-.064-1.122-.912-1.169-1.456C4.265,1.387,4.3.052,4.3.052Z" transform="translate(12.304 106.666)"/>
      <path id="Fill_181" data-name="Fill 181" class="cls-39" d="M5.793.066a25.5,25.5,0,0,1-2.52.612C2.42.8,1.294-.23.691.048.027.354,0,3.111,0,3.111s8.872.364,11.5-.027C12.536,2.93,9.2,1.206,5.793.066" transform="translate(12 110.267)"/>
      <path id="Fill_182" data-name="Fill 182" class="cls-40" d="M2.445.59a45.4,45.4,0,0,0-.713,10.943c.49,4.719.529,21.484.529,21.484L0,59.831l4.829.112s5.263-26.81,5.165-26.122,1.765-18.877,1.765-18.877L5.484,0Z" transform="translate(12.551 47.474)"/>
      <path id="Fill_183" data-name="Fill 183" class="cls-41" d="M3.874,0S-1.575,5.74.452,12.009C1.266,14.527,8.86,38.584,8.958,40.55s2.568,23.7,2.568,23.7l5.161-.155L17.8,39.931,16.329,7.373,13.2,1.882Z" transform="translate(12.805 44.045)"/>
      <path id="Fill_184" data-name="Fill 184" class="cls-42" d="M36.671,7.617A47.765,47.765,0,0,0,31,2.793a18.456,18.456,0,0,0-3.257-2.3C26.358.013,23.98-1.264,20.541,3.949,18.08,7.679,2.549,26.992,0,27.642l16.648,7.965c.456-3.8,8.684-10.99,9.868-12.331,2.646-3,11.844-13.774,10.155-15.659" transform="translate(13.092 17.746)"/>
      <path id="Fill_185" data-name="Fill 185" class="cls-8" d="M5.189,0,0,3.036s-.146,4.427,1.55,5.577c1.423.965,2.505-1.351,2.505-1.351a15.824,15.824,0,0,1,3.393-3.5C8.916,2.925,5.189,0,5.189,0" transform="translate(43.797 17.271)"/>
      <path id="Fill_186" data-name="Fill 186" class="cls-43" d="M.144,1.948A10.858,10.858,0,0,0,1.49,5.307a8.413,8.413,0,0,1,1.786-1.55c.676-.384.246-1.214-.413-2C1.933.792,1.014,0,1.014,0l-1,.583A4.652,4.652,0,0,0,.144,1.948" transform="translate(47.972 17.271)"/>
      <path id="Fill_187" data-name="Fill 187" class="cls-8" d="M3.869.226C3.782.118-.481,5.425.045,7.914s3.1,4.76,4.894,4.136C6.92,11.359,10.6,5.112,9.283,2.079S3.869.226,3.869.226" transform="translate(47.818 9.436)"/>
      <path id="Fill_188" data-name="Fill 188" class="cls-44" d="M10.066.913A8.071,8.071,0,0,0,2.912.768C.127,2.226-.508,5.895.364,8.133a3.618,3.618,0,0,1-.126,3.5l1.477-.863a7.037,7.037,0,0,0,.975-2.42c.113-1.073,1.679-.883,2.443-1.37.589-.375,1.34-1.593,2.292-2.225A7.6,7.6,0,0,1,11,5.125c2.01,1.128,1.725-2.731-.937-4.212" transform="translate(46.289 7.076)"/>
      <path id="Fill_197" data-name="Fill 197" class="cls-38" d="M1.731,1.427c.014.8-.363,1.448-.841,1.456S.014,2.252,0,1.456.363.008.841,0s.877.631.89,1.427" transform="translate(48.494 13.525)"/>
      <path id="Fill_198" data-name="Fill 198" class="cls-23" d="M2.438,1.688.181,0A1.247,1.247,0,0,0,.555,1.683c1.184.941,1.883,0,1.883,0" transform="translate(52.152 17.49)"/>
      <path id="Fill_199" data-name="Fill 199" class="cls-8" d="M23.824,25.22a24.7,24.7,0,0,0-1.594-2.927,6.961,6.961,0,0,0-1.156-.993C17.314,19.1,7.518,13.43,7.137,12.99,6.686,12.468,0,1.36,0,1.36L6,0l5.868,10.361c.49.389,9.8,7.273,9.8,7.273s1.852,1.447,2.865,2.124a8.035,8.035,0,0,0,1.442.643,9.172,9.172,0,0,1,1.8.894c.245.215.734.676,1.025.957s.644.6.78.765a2.069,2.069,0,0,0,.529.336.347.347,0,0,1-.058.643,1.5,1.5,0,0,1-.909-.21c-.674-.317-1.5-1.172-1.542-1.068s.793,1.938.875,2.154A24.506,24.506,0,0,1,29.575,27.7c.049.476-.238.586-.451.412-.184-.15-1.728-3-1.728-3s-.2-.363-.275-.156,1.321,2.8,1.457,3.226.028.774-.366.625c-.478-.181-1.8-3.04-1.8-3.04s-.172-.355-.289-.232,1.108,2.31,1.122,2.561a.328.328,0,0,1-.545.29,15.385,15.385,0,0,1-1.547-2.81s-.143-.17-.188-.05.867,2.057.8,2.34a.228.228,0,0,1-.271.19c-.477,0-1.1-2.009-1.67-2.834" transform="translate(37.145 30.778) rotate(-13)"/>
      <path id="Fill_200" data-name="Fill 200" class="cls-37" d="M4.133,17.133s1.956-.622,3.21-1.2c.84-.385,4.5-2.208,4.5-2.208A80.611,80.611,0,0,0,9.2,4.669C5.28-4.124.826,1.94.222,3.354-1.13,6.515,4.133,17.133,4.133,17.133" transform="translate(33.947 17.622)"/>
    </g>
    <g id="Group_7-2" data-name="Group 7" transform="translate(74 59)">
      <path id="Rectangle-2" data-name="Rectangle" class="cls-23" d="M4.025,0h8.453L16.9,3.22v8.855H0V3.22Z"/>
      <g id="Group_3-5" data-name="Group 3" transform="translate(0 3.22)">
        <path id="Clip_2-14" data-name="Clip 2" class="cls-1" d="M0,0H16.766V8.438H0Z" transform="translate(0 0.479)"/>
        <g id="Group_3-6" data-name="Group 3" class="cls-33">
          <path id="Fill_1-4" data-name="Fill 1" class="cls-34" d="M16.767,8.438V0H0V5.2l.6-.36a1.71,1.71,0,0,1,.22-.206L1.5,4.026c.157-.123.506-.451.7-.594s.49-.412.715-.585l.941-.782c.079-.067.151-.123.229-.2a2.62,2.62,0,0,1,.479-.374.373.373,0,0,1,.369.632c-.041.042-.076.059-.118.1L3.59,3.357a1.137,1.137,0,0,0-.112.1c-.143.163-.2.178-.329.311-.167.173-.212.195-.331.309a1.544,1.544,0,0,1-.112.12l-.672.608c-.079.086-.139.122-.229.213a.428.428,0,0,0,.225.753.289.289,0,0,0,.334-.108l3.022-3a.383.383,0,0,1,.592-.054c.345.344-.137.663-.473,1-.29.294-.572.566-.864.859C4.094,5.022,3.554,5.554,3.006,6.1a2.421,2.421,0,0,1,.8.392l.987-1.054c.079-.077.133-.143.206-.224L6.36,3.772c.037-.04.055-.079.094-.118a.374.374,0,0,1,.653.327,3.942,3.942,0,0,1-.573.726l-.788.936c-.062.074-.132.155-.193.234l-.589.708c-.066.082-.133.149-.194.23l-.435.551C3.537,9.095,0,7.978,0,8.438H14.035L12.541,6.4c-.128-.144-.264-.317-.393-.472l-.756-.974a18.235,18.235,0,0,1-1.336-2.1A7.221,7.221,0,0,1,9.32,1.008.991.991,0,0,1,9.315.624C9.34.52,9.444.391,9.57.47l.663.612.229.213.863.849" transform="translate(0 0.479)"/>
        </g>
      </g>
      <g id="Group_6-3" data-name="Group 6">
        <path id="Clip_5-12" data-name="Clip 5" class="cls-1" d="M0,0H16.765V3.44H0Z" transform="translate(0.001 0.11)"/>
        <g id="Group_6-4" data-name="Group 6" class="cls-35">
          <path id="Fill_4-3" data-name="Fill 4" class="cls-36" d="M16.764,3.44H0L4.191,0h8.384l4.187,3.438ZM6.592,1.126a.632.632,0,0,0-.662.595.631.631,0,0,0,.662.593h3.583a.63.63,0,0,0,.66-.593.631.631,0,0,0-.66-.595Z" transform="translate(0.001 0.11)"/>
        </g>
      </g>
    </g>
    <g id="Group_7-3" data-name="Group 7" transform="translate(93 59)">
      <path id="Rectangle-3" data-name="Rectangle" class="cls-23" d="M4.025,0h8.453L16.9,3.22v8.855H0V3.22Z"/>
      <g id="Group_3-7" data-name="Group 3" transform="translate(0 3.22)">
        <path id="Clip_2-15" data-name="Clip 2" class="cls-1" d="M0,0H16.766V8.438H0Z" transform="translate(0 0.479)"/>
        <g id="Group_3-8" data-name="Group 3" class="cls-33">
          <path id="Fill_1-5" data-name="Fill 1" class="cls-34" d="M16.767,8.438V0H0V5.2l.6-.36a1.71,1.71,0,0,1,.22-.206L1.5,4.026c.157-.123.506-.451.7-.594s.49-.412.715-.585l.941-.782c.079-.067.151-.123.229-.2a2.62,2.62,0,0,1,.479-.374.373.373,0,0,1,.369.632c-.041.042-.076.059-.118.1L3.59,3.357a1.137,1.137,0,0,0-.112.1c-.143.163-.2.178-.329.311-.167.173-.212.195-.331.309a1.544,1.544,0,0,1-.112.12l-.672.608c-.079.086-.139.122-.229.213a.428.428,0,0,0,.225.753.289.289,0,0,0,.334-.108l3.022-3a.383.383,0,0,1,.592-.054c.345.344-.137.663-.473,1-.29.294-.572.566-.864.859C4.094,5.022,3.554,5.554,3.006,6.1a2.421,2.421,0,0,1,.8.392l.987-1.054c.079-.077.133-.143.206-.224L6.36,3.772c.037-.04.055-.079.094-.118a.374.374,0,0,1,.653.327,3.942,3.942,0,0,1-.573.726l-.788.936c-.062.074-.132.155-.193.234l-.589.708c-.066.082-.133.149-.194.23l-.435.551C3.537,9.095,0,7.978,0,8.438H14.035L12.541,6.4c-.128-.144-.264-.317-.393-.472l-.756-.974a18.235,18.235,0,0,1-1.336-2.1A7.221,7.221,0,0,1,9.32,1.008.991.991,0,0,1,9.315.624C9.34.52,9.444.391,9.57.47l.663.612.229.213.863.849" transform="translate(0 0.479)"/>
        </g>
      </g>
      <g id="Group_6-5" data-name="Group 6">
        <path id="Clip_5-13" data-name="Clip 5" class="cls-1" d="M0,0H16.765V3.44H0Z" transform="translate(0.001 0.11)"/>
        <g id="Group_6-6" data-name="Group 6" class="cls-35">
          <path id="Fill_4-4" data-name="Fill 4" class="cls-36" d="M16.764,3.44H0L4.191,0h8.384l4.187,3.438ZM6.592,1.126a.632.632,0,0,0-.662.595.631.631,0,0,0,.662.593h3.583a.63.63,0,0,0,.66-.593.631.631,0,0,0-.66-.595Z" transform="translate(0.001 0.11)"/>
        </g>
      </g>
    </g>
    <g id="Group_7-4" data-name="Group 7" transform="translate(111 59)">
      <path id="Rectangle-4" data-name="Rectangle" class="cls-23" d="M4.025,0h8.453L16.9,3.22v8.855H0V3.22Z"/>
      <g id="Group_3-9" data-name="Group 3" transform="translate(0 3.22)">
        <path id="Clip_2-16" data-name="Clip 2" class="cls-1" d="M0,0H16.766V8.438H0Z" transform="translate(0 0.479)"/>
        <g id="Group_3-10" data-name="Group 3" class="cls-33">
          <path id="Fill_1-6" data-name="Fill 1" class="cls-34" d="M16.767,8.438V0H0V5.2l.6-.36a1.71,1.71,0,0,1,.22-.206L1.5,4.026c.157-.123.506-.451.7-.594s.49-.412.715-.585l.941-.782c.079-.067.151-.123.229-.2a2.62,2.62,0,0,1,.479-.374.373.373,0,0,1,.369.632c-.041.042-.076.059-.118.1L3.59,3.357a1.137,1.137,0,0,0-.112.1c-.143.163-.2.178-.329.311-.167.173-.212.195-.331.309a1.544,1.544,0,0,1-.112.12l-.672.608c-.079.086-.139.122-.229.213a.428.428,0,0,0,.225.753.289.289,0,0,0,.334-.108l3.022-3a.383.383,0,0,1,.592-.054c.345.344-.137.663-.473,1-.29.294-.572.566-.864.859C4.094,5.022,3.554,5.554,3.006,6.1a2.421,2.421,0,0,1,.8.392l.987-1.054c.079-.077.133-.143.206-.224L6.36,3.772c.037-.04.055-.079.094-.118a.374.374,0,0,1,.653.327,3.942,3.942,0,0,1-.573.726l-.788.936c-.062.074-.132.155-.193.234l-.589.708c-.066.082-.133.149-.194.23l-.435.551C3.537,9.095,0,7.978,0,8.438H14.035L12.541,6.4c-.128-.144-.264-.317-.393-.472l-.756-.974a18.235,18.235,0,0,1-1.336-2.1A7.221,7.221,0,0,1,9.32,1.008.991.991,0,0,1,9.315.624C9.34.52,9.444.391,9.57.47l.663.612.229.213.863.849" transform="translate(0 0.479)"/>
        </g>
      </g>
      <g id="Group_6-7" data-name="Group 6">
        <path id="Clip_5-14" data-name="Clip 5" class="cls-1" d="M0,0H16.765V3.44H0Z" transform="translate(0.001 0.11)"/>
        <g id="Group_6-8" data-name="Group 6" class="cls-35">
          <path id="Fill_4-5" data-name="Fill 4" class="cls-36" d="M16.764,3.44H0L4.191,0h8.384l4.187,3.438ZM6.592,1.126a.632.632,0,0,0-.662.595.631.631,0,0,0,.662.593h3.583a.63.63,0,0,0,.66-.593.631.631,0,0,0-.66-.595Z" transform="translate(0.001 0.11)"/>
        </g>
      </g>
    </g>
    <g id="Group_7-5" data-name="Group 7" transform="translate(129 59)">
      <path id="Rectangle-5" data-name="Rectangle" class="cls-23" d="M4.025,0h8.453L16.9,3.22v8.855H0V3.22Z"/>
      <g id="Group_3-11" data-name="Group 3" transform="translate(0 3.22)">
        <path id="Clip_2-17" data-name="Clip 2" class="cls-1" d="M0,0H16.766V8.438H0Z" transform="translate(0 0.479)"/>
        <g id="Group_3-12" data-name="Group 3" class="cls-33">
          <path id="Fill_1-7" data-name="Fill 1" class="cls-34" d="M16.767,8.438V0H0V5.2l.6-.36a1.71,1.71,0,0,1,.22-.206L1.5,4.026c.157-.123.506-.451.7-.594s.49-.412.715-.585l.941-.782c.079-.067.151-.123.229-.2a2.62,2.62,0,0,1,.479-.374.373.373,0,0,1,.369.632c-.041.042-.076.059-.118.1L3.59,3.357a1.137,1.137,0,0,0-.112.1c-.143.163-.2.178-.329.311-.167.173-.212.195-.331.309a1.544,1.544,0,0,1-.112.12l-.672.608c-.079.086-.139.122-.229.213a.428.428,0,0,0,.225.753.289.289,0,0,0,.334-.108l3.022-3a.383.383,0,0,1,.592-.054c.345.344-.137.663-.473,1-.29.294-.572.566-.864.859C4.094,5.022,3.554,5.554,3.006,6.1a2.421,2.421,0,0,1,.8.392l.987-1.054c.079-.077.133-.143.206-.224L6.36,3.772c.037-.04.055-.079.094-.118a.374.374,0,0,1,.653.327,3.942,3.942,0,0,1-.573.726l-.788.936c-.062.074-.132.155-.193.234l-.589.708c-.066.082-.133.149-.194.23l-.435.551C3.537,9.095,0,7.978,0,8.438H14.035L12.541,6.4c-.128-.144-.264-.317-.393-.472l-.756-.974a18.235,18.235,0,0,1-1.336-2.1A7.221,7.221,0,0,1,9.32,1.008.991.991,0,0,1,9.315.624C9.34.52,9.444.391,9.57.47l.663.612.229.213.863.849" transform="translate(0 0.479)"/>
        </g>
      </g>
      <g id="Group_6-9" data-name="Group 6">
        <path id="Clip_5-15" data-name="Clip 5" class="cls-1" d="M0,0H16.765V3.44H0Z" transform="translate(0.001 0.11)"/>
        <g id="Group_6-10" data-name="Group 6" class="cls-35">
          <path id="Fill_4-6" data-name="Fill 4" class="cls-36" d="M16.764,3.44H0L4.191,0h8.384l4.187,3.438ZM6.592,1.126a.632.632,0,0,0-.662.595.631.631,0,0,0,.662.593h3.583a.63.63,0,0,0,.66-.593.631.631,0,0,0-.66-.595Z" transform="translate(0.001 0.11)"/>
        </g>
      </g>
    </g>
    <g id="Group_7-6" data-name="Group 7" transform="translate(86 51)">
      <path id="Rectangle-6" data-name="Rectangle" class="cls-23" d="M4.025,0h8.453L16.9,3.22v8.855H0V3.22Z"/>
      <g id="Group_3-13" data-name="Group 3" transform="translate(0 3.22)">
        <path id="Clip_2-18" data-name="Clip 2" class="cls-1" d="M0,0H16.766V8.438H0Z" transform="translate(0 0.479)"/>
        <g id="Group_3-14" data-name="Group 3" class="cls-33">
          <path id="Fill_1-8" data-name="Fill 1" class="cls-34" d="M16.767,8.438V0H0V5.2l.6-.36a1.71,1.71,0,0,1,.22-.206L1.5,4.026c.157-.123.506-.451.7-.594s.49-.412.715-.585l.941-.782c.079-.067.151-.123.229-.2a2.62,2.62,0,0,1,.479-.374.373.373,0,0,1,.369.632c-.041.042-.076.059-.118.1L3.59,3.357a1.137,1.137,0,0,0-.112.1c-.143.163-.2.178-.329.311-.167.173-.212.195-.331.309a1.544,1.544,0,0,1-.112.12l-.672.608c-.079.086-.139.122-.229.213a.428.428,0,0,0,.225.753.289.289,0,0,0,.334-.108l3.022-3a.383.383,0,0,1,.592-.054c.345.344-.137.663-.473,1-.29.294-.572.566-.864.859C4.094,5.022,3.554,5.554,3.006,6.1a2.421,2.421,0,0,1,.8.392l.987-1.054c.079-.077.133-.143.206-.224L6.36,3.772c.037-.04.055-.079.094-.118a.374.374,0,0,1,.653.327,3.942,3.942,0,0,1-.573.726l-.788.936c-.062.074-.132.155-.193.234l-.589.708c-.066.082-.133.149-.194.23l-.435.551C3.537,9.095,0,7.978,0,8.438H14.035L12.541,6.4c-.128-.144-.264-.317-.393-.472l-.756-.974a18.235,18.235,0,0,1-1.336-2.1A7.221,7.221,0,0,1,9.32,1.008.991.991,0,0,1,9.315.624C9.34.52,9.444.391,9.57.47l.663.612.229.213.863.849" transform="translate(0 0.479)"/>
        </g>
      </g>
      <g id="Group_6-11" data-name="Group 6">
        <path id="Clip_5-16" data-name="Clip 5" class="cls-1" d="M0,0H16.765V3.44H0Z" transform="translate(0.001 0.11)"/>
        <g id="Group_6-12" data-name="Group 6" class="cls-35">
          <path id="Fill_4-7" data-name="Fill 4" class="cls-36" d="M16.764,3.44H0L4.191,0h8.384l4.187,3.438ZM6.592,1.126a.632.632,0,0,0-.662.595.631.631,0,0,0,.662.593h3.583a.63.63,0,0,0,.66-.593.631.631,0,0,0-.66-.595Z" transform="translate(0.001 0.11)"/>
        </g>
      </g>
    </g>
    <g id="Group_7-7" data-name="Group 7" transform="translate(104 51)">
      <path id="Rectangle-7" data-name="Rectangle" class="cls-23" d="M4.025,0h8.453L16.9,3.22v8.855H0V3.22Z"/>
      <g id="Group_3-15" data-name="Group 3" transform="translate(0 3.22)">
        <path id="Clip_2-19" data-name="Clip 2" class="cls-1" d="M0,0H16.766V8.438H0Z" transform="translate(0 0.479)"/>
        <g id="Group_3-16" data-name="Group 3" class="cls-33">
          <path id="Fill_1-9" data-name="Fill 1" class="cls-34" d="M16.767,8.438V0H0V5.2l.6-.36a1.71,1.71,0,0,1,.22-.206L1.5,4.026c.157-.123.506-.451.7-.594s.49-.412.715-.585l.941-.782c.079-.067.151-.123.229-.2a2.62,2.62,0,0,1,.479-.374.373.373,0,0,1,.369.632c-.041.042-.076.059-.118.1L3.59,3.357a1.137,1.137,0,0,0-.112.1c-.143.163-.2.178-.329.311-.167.173-.212.195-.331.309a1.544,1.544,0,0,1-.112.12l-.672.608c-.079.086-.139.122-.229.213a.428.428,0,0,0,.225.753.289.289,0,0,0,.334-.108l3.022-3a.383.383,0,0,1,.592-.054c.345.344-.137.663-.473,1-.29.294-.572.566-.864.859C4.094,5.022,3.554,5.554,3.006,6.1a2.421,2.421,0,0,1,.8.392l.987-1.054c.079-.077.133-.143.206-.224L6.36,3.772c.037-.04.055-.079.094-.118a.374.374,0,0,1,.653.327,3.942,3.942,0,0,1-.573.726l-.788.936c-.062.074-.132.155-.193.234l-.589.708c-.066.082-.133.149-.194.23l-.435.551C3.537,9.095,0,7.978,0,8.438H14.035L12.541,6.4c-.128-.144-.264-.317-.393-.472l-.756-.974a18.235,18.235,0,0,1-1.336-2.1A7.221,7.221,0,0,1,9.32,1.008.991.991,0,0,1,9.315.624C9.34.52,9.444.391,9.57.47l.663.612.229.213.863.849" transform="translate(0 0.479)"/>
        </g>
      </g>
      <g id="Group_6-13" data-name="Group 6">
        <path id="Clip_5-17" data-name="Clip 5" class="cls-1" d="M0,0H16.765V3.44H0Z" transform="translate(0.001 0.11)"/>
        <g id="Group_6-14" data-name="Group 6" class="cls-35">
          <path id="Fill_4-8" data-name="Fill 4" class="cls-36" d="M16.764,3.44H0L4.191,0h8.384l4.187,3.438ZM6.592,1.126a.632.632,0,0,0-.662.595.631.631,0,0,0,.662.593h3.583a.63.63,0,0,0,.66-.593.631.631,0,0,0-.66-.595Z" transform="translate(0.001 0.11)"/>
        </g>
      </g>
    </g>
    <g id="Group_7-8" data-name="Group 7" transform="translate(123 51)">
      <path id="Rectangle-8" data-name="Rectangle" class="cls-23" d="M4.025,0h8.453L16.9,3.22v8.855H0V3.22Z"/>
      <g id="Group_3-17" data-name="Group 3" transform="translate(0 3.22)">
        <path id="Clip_2-20" data-name="Clip 2" class="cls-1" d="M0,0H16.766V8.438H0Z" transform="translate(0 0.479)"/>
        <g id="Group_3-18" data-name="Group 3" class="cls-33">
          <path id="Fill_1-10" data-name="Fill 1" class="cls-34" d="M16.767,8.438V0H0V5.2l.6-.36a1.71,1.71,0,0,1,.22-.206L1.5,4.026c.157-.123.506-.451.7-.594s.49-.412.715-.585l.941-.782c.079-.067.151-.123.229-.2a2.62,2.62,0,0,1,.479-.374.373.373,0,0,1,.369.632c-.041.042-.076.059-.118.1L3.59,3.357a1.137,1.137,0,0,0-.112.1c-.143.163-.2.178-.329.311-.167.173-.212.195-.331.309a1.544,1.544,0,0,1-.112.12l-.672.608c-.079.086-.139.122-.229.213a.428.428,0,0,0,.225.753.289.289,0,0,0,.334-.108l3.022-3a.383.383,0,0,1,.592-.054c.345.344-.137.663-.473,1-.29.294-.572.566-.864.859C4.094,5.022,3.554,5.554,3.006,6.1a2.421,2.421,0,0,1,.8.392l.987-1.054c.079-.077.133-.143.206-.224L6.36,3.772c.037-.04.055-.079.094-.118a.374.374,0,0,1,.653.327,3.942,3.942,0,0,1-.573.726l-.788.936c-.062.074-.132.155-.193.234l-.589.708c-.066.082-.133.149-.194.23l-.435.551C3.537,9.095,0,7.978,0,8.438H14.035L12.541,6.4c-.128-.144-.264-.317-.393-.472l-.756-.974a18.235,18.235,0,0,1-1.336-2.1A7.221,7.221,0,0,1,9.32,1.008.991.991,0,0,1,9.315.624C9.34.52,9.444.391,9.57.47l.663.612.229.213.863.849" transform="translate(0 0.479)"/>
        </g>
      </g>
      <g id="Group_6-15" data-name="Group 6">
        <path id="Clip_5-18" data-name="Clip 5" class="cls-1" d="M0,0H16.765V3.44H0Z" transform="translate(0.001 0.11)"/>
        <g id="Group_6-16" data-name="Group 6" class="cls-35">
          <path id="Fill_4-9" data-name="Fill 4" class="cls-36" d="M16.764,3.44H0L4.191,0h8.384l4.187,3.438ZM6.592,1.126a.632.632,0,0,0-.662.595.631.631,0,0,0,.662.593h3.583a.63.63,0,0,0,.66-.593.631.631,0,0,0-.66-.595Z" transform="translate(0.001 0.11)"/>
        </g>
      </g>
    </g>
    <g id="Group_7-9" data-name="Group 7" transform="translate(94 42)">
      <path id="Rectangle-9" data-name="Rectangle" class="cls-23" d="M4.025,0h8.453L16.9,3.22v8.855H0V3.22Z"/>
      <g id="Group_3-19" data-name="Group 3" transform="translate(0 3.22)">
        <path id="Clip_2-21" data-name="Clip 2" class="cls-1" d="M0,0H16.766V8.438H0Z" transform="translate(0 0.479)"/>
        <g id="Group_3-20" data-name="Group 3" class="cls-33">
          <path id="Fill_1-11" data-name="Fill 1" class="cls-34" d="M16.767,8.438V0H0V5.2l.6-.36a1.71,1.71,0,0,1,.22-.206L1.5,4.026c.157-.123.506-.451.7-.594s.49-.412.715-.585l.941-.782c.079-.067.151-.123.229-.2a2.62,2.62,0,0,1,.479-.374.373.373,0,0,1,.369.632c-.041.042-.076.059-.118.1L3.59,3.357a1.137,1.137,0,0,0-.112.1c-.143.163-.2.178-.329.311-.167.173-.212.195-.331.309a1.544,1.544,0,0,1-.112.12l-.672.608c-.079.086-.139.122-.229.213a.428.428,0,0,0,.225.753.289.289,0,0,0,.334-.108l3.022-3a.383.383,0,0,1,.592-.054c.345.344-.137.663-.473,1-.29.294-.572.566-.864.859C4.094,5.022,3.554,5.554,3.006,6.1a2.421,2.421,0,0,1,.8.392l.987-1.054c.079-.077.133-.143.206-.224L6.36,3.772c.037-.04.055-.079.094-.118a.374.374,0,0,1,.653.327,3.942,3.942,0,0,1-.573.726l-.788.936c-.062.074-.132.155-.193.234l-.589.708c-.066.082-.133.149-.194.23l-.435.551C3.537,9.095,0,7.978,0,8.438H14.035L12.541,6.4c-.128-.144-.264-.317-.393-.472l-.756-.974a18.235,18.235,0,0,1-1.336-2.1A7.221,7.221,0,0,1,9.32,1.008.991.991,0,0,1,9.315.624C9.34.52,9.444.391,9.57.47l.663.612.229.213.863.849" transform="translate(0 0.479)"/>
        </g>
      </g>
      <g id="Group_6-17" data-name="Group 6">
        <path id="Clip_5-19" data-name="Clip 5" class="cls-1" d="M0,0H16.765V3.44H0Z" transform="translate(0.001 0.11)"/>
        <g id="Group_6-18" data-name="Group 6" class="cls-35">
          <path id="Fill_4-10" data-name="Fill 4" class="cls-36" d="M16.764,3.44H0L4.191,0h8.384l4.187,3.438ZM6.592,1.126a.632.632,0,0,0-.662.595.631.631,0,0,0,.662.593h3.583a.63.63,0,0,0,.66-.593.631.631,0,0,0-.66-.595Z" transform="translate(0.001 0.11)"/>
        </g>
      </g>
    </g>
    <g id="Group_7-10" data-name="Group 7" transform="translate(112 42)">
      <path id="Rectangle-10" data-name="Rectangle" class="cls-23" d="M4.025,0h8.453L16.9,3.22v8.855H0V3.22Z"/>
      <g id="Group_3-21" data-name="Group 3" transform="translate(0 3.22)">
        <path id="Clip_2-22" data-name="Clip 2" class="cls-1" d="M0,0H16.766V8.438H0Z" transform="translate(0 0.479)"/>
        <g id="Group_3-22" data-name="Group 3" class="cls-33">
          <path id="Fill_1-12" data-name="Fill 1" class="cls-34" d="M16.767,8.438V0H0V5.2l.6-.36a1.71,1.71,0,0,1,.22-.206L1.5,4.026c.157-.123.506-.451.7-.594s.49-.412.715-.585l.941-.782c.079-.067.151-.123.229-.2a2.62,2.62,0,0,1,.479-.374.373.373,0,0,1,.369.632c-.041.042-.076.059-.118.1L3.59,3.357a1.137,1.137,0,0,0-.112.1c-.143.163-.2.178-.329.311-.167.173-.212.195-.331.309a1.544,1.544,0,0,1-.112.12l-.672.608c-.079.086-.139.122-.229.213a.428.428,0,0,0,.225.753.289.289,0,0,0,.334-.108l3.022-3a.383.383,0,0,1,.592-.054c.345.344-.137.663-.473,1-.29.294-.572.566-.864.859C4.094,5.022,3.554,5.554,3.006,6.1a2.421,2.421,0,0,1,.8.392l.987-1.054c.079-.077.133-.143.206-.224L6.36,3.772c.037-.04.055-.079.094-.118a.374.374,0,0,1,.653.327,3.942,3.942,0,0,1-.573.726l-.788.936c-.062.074-.132.155-.193.234l-.589.708c-.066.082-.133.149-.194.23l-.435.551C3.537,9.095,0,7.978,0,8.438H14.035L12.541,6.4c-.128-.144-.264-.317-.393-.472l-.756-.974a18.235,18.235,0,0,1-1.336-2.1A7.221,7.221,0,0,1,9.32,1.008.991.991,0,0,1,9.315.624C9.34.52,9.444.391,9.57.47l.663.612.229.213.863.849" transform="translate(0 0.479)"/>
        </g>
      </g>
      <g id="Group_6-19" data-name="Group 6">
        <path id="Clip_5-20" data-name="Clip 5" class="cls-1" d="M0,0H16.765V3.44H0Z" transform="translate(0.001 0.11)"/>
        <g id="Group_6-20" data-name="Group 6" class="cls-35">
          <path id="Fill_4-11" data-name="Fill 4" class="cls-36" d="M16.764,3.44H0L4.191,0h8.384l4.187,3.438ZM6.592,1.126a.632.632,0,0,0-.662.595.631.631,0,0,0,.662.593h3.583a.63.63,0,0,0,.66-.593.631.631,0,0,0-.66-.595Z" transform="translate(0.001 0.11)"/>
        </g>
      </g>
    </g>
  </g>
</svg>
