<svg id="Component_7_1" data-name="Component 7 – 1" xmlns="http://www.w3.org/2000/svg" width="278" height="230" viewBox="0 0 278 230">
  <path id="Fill_1" data-name="Fill 1" d="M135.2,46.034c-13.2,13.739-26.738,27.688-43.6,36.606-14.376,7.6-30.5,11.188-45.665,17.077s-28.76,12.555-38.35,28.059c-4.3,6.949-6.5,16.935-7.292,25.061-1.164,11.891,1.281,24.128,5.784,35.2,5.885,14.47,18.611,25.439,32.9,31.853s30.091,8.693,45.731,9.615a285.8,285.8,0,0,0,62.436-3.179c18.285-2.961,36.4-7.755,53-15.941a139.592,139.592,0,0,0,66.383-70.533c12.729-30.391,15.513-65.906,5.1-97.161-4.75-14.26-11.861-26.722-25.024-34.925a49.1,49.1,0,0,0-17.6-6.755c-7.81-1.446-14.448-1.124-22.449-.392a73.375,73.375,0,0,0-27.872,8.645C161.876,18.305,148.4,32.3,135.2,46.034Z" transform="translate(0)" fill="#ffd5d5" opacity="0.3"/>
  <g id="delicious" transform="translate(49 22)">
    <path id="Path" d="M0,0V2.889L5.885,26H147.115L153,2.889V0Z" transform="translate(9.5 145)" fill="#d0b288"/>
    <path id="Path-2" data-name="Path" d="M.736,6H152.264L153,3V0H0V3Z" transform="translate(9.5 145)" fill="#ad8f6c"/>
    <path id="Path-3" data-name="Path" d="M0,0V2.889L5.885,26H147.115L153,2.889V0Z" transform="translate(9.5 86)" fill="#d0b288"/>
    <path id="Path-4" data-name="Path" d="M.736,6H152.264L153,3V0H0V3Z" transform="translate(9.5 86)" fill="#ad8f6c"/>
    <path id="Path-5" data-name="Path" d="M135.125,0H5.875L0,23.111V26H141V23.111Z" transform="translate(15.5 112)" fill="#d0b288"/>
    <path id="Path-6" data-name="Path" d="M131,3l-.736-3H.736L0,3Z" transform="translate(20.5 112)" fill="#ad8f6c"/>
    <path id="Path-7" data-name="Path" d="M135.125,0H5.875L0,23.111V26H141V23.111Z" transform="translate(15.5 53)" fill="#d0b288"/>
    <path id="Path-8" data-name="Path" d="M0,12,2.948,0h165.1L171,12Z" transform="translate(0.5 136)" fill="#bb9063"/>
    <path id="Path-9" data-name="Path" d="M0,12,2.948,0h165.1L171,12Z" transform="translate(0.5 77)" fill="#bb9063"/>
    <path id="Shape" d="M0,62V17.715A17.643,17.643,0,0,1,17.572,0H64.428A17.643,17.643,0,0,1,82,17.715V62Z" transform="translate(44.5)" fill="#654126"/>
    <path id="Path-10" data-name="Path" d="M0,0H100V119H0Z" transform="translate(36.5 53)" fill="#d25b67"/>
  </g>
</svg>
