<svg id="Order_Lunch_Or_Dinner_Icon" data-name="Order Lunch Or Dinner Icon" xmlns="http://www.w3.org/2000/svg" width="71" height="66.783" viewBox="0 0 71 66.783">
  <path id="Fill_1" data-name="Fill 1" d="M45.632,2.538c-4.29,2.476-7.731,6.308-11.1,10.071S27.7,20.193,23.393,22.636c-3.672,2.083-7.79,3.065-11.663,4.678S4.385,30.753,1.936,35A17.968,17.968,0,0,0,.074,41.864a21.927,21.927,0,0,0,1.477,9.642,16.475,16.475,0,0,0,8.4,8.725,31.244,31.244,0,0,0,11.679,2.634,68.126,68.126,0,0,0,15.946-.871,45.415,45.415,0,0,0,13.537-4.366,37.272,37.272,0,0,0,16.954-19.32,41.124,41.124,0,0,0,1.3-26.614c-1.213-3.906-3.029-7.319-6.391-9.567a12.054,12.054,0,0,0-4.5-1.85A18.464,18.464,0,0,0,52.751.17a17.841,17.841,0,0,0-7.118,2.368" fill="#ffd5d5" opacity="0.33"/>
  <g id="ramen" transform="translate(11 20)">
    <path id="Path" d="M.841,10.5l5.841,1.813L12.512,10.5a5.719,5.719,0,0,0-.063-1.926,6.757,6.757,0,0,0-.711-1.92,10.883,10.883,0,0,0-1.193-1.7C8.219,2.161,3.929-1.036,1.646.323-.6,1.66-.219,6.976.841,10.5Z" transform="translate(1.608 11.935)" fill="#f9f6f6"/>
    <path id="Path-2" data-name="Path" d="M7.77,3.122,5.956,3.074.566,2.935A.543.543,0,0,1,0,2.443V0H7.08c.893.1,1.351.4,1.491.834.182.567-.17,1.37-.8,2.288Z" transform="translate(12.623 4.032)" fill="#e29d7b"/>
    <path id="Path-3" data-name="Path" d="M2.039,3.465l18.772.492a.529.529,0,0,0,.566-.492V0H.7c-.865.845-1.22,2.425.639,3.449Z" transform="translate(31.443 4.032)" fill="#e29d7b"/>
    <path id="Path-4" data-name="Path" d="M40.2.493V3.961H0V1.517a.539.539,0,0,1,.566-.492L39.631,0A.53.53,0,0,1,40.2.493Z" transform="translate(12.623 0.071)" fill="#e29d7b"/>
    <path id="Path-5" data-name="Path" d="M.108,3.6H5.257a2.9,2.9,0,0,0-.244-2.179A2.616,2.616,0,0,0,1.356.369,2.864,2.864,0,0,0,.108,3.6Z" transform="translate(5.682 18.838)" fill="#ffd772"/>
    <path id="Path-6" data-name="Path" d="M7.038,11.19c.09-.564,1-.615,1.38-1.277,1.985-3.484-.8-5.9-.744-8.841,0-.262-.606-.514-.572-.76A2.284,2.284,0,0,0,6.417.045C4.263-.406,1.733,2.636.163,5.644c-.684,1.2.958,5.546,1.7,5.546L4.569,13Z" transform="translate(11.99 11.245)" fill="#f9f6f6"/>
    <path id="Path-7" data-name="Path" d="M9.634,13l9.878,1.939L29.394,13A18.062,18.062,0,0,0,39.028,2.522L20.335,0,0,2.522A18.063,18.063,0,0,0,9.634,13Z" transform="translate(2.952 29.902)" fill="#fbc7b8"/>
    <path id="Path-8" data-name="Path" d="M11.946,6.284,5.312,8.475.513,6.284C-.614,4.165.248,3.418,1.824,1Q2.141.838,2.462.7A9.058,9.058,0,0,1,4.815.064s0,0,0,0a7.353,7.353,0,0,1,3.7.45q.285.114.561.255a4.9,4.9,0,0,1,2.871,5.515Z" transform="translate(30.96 16.152)" fill="#e29d7b"/>
    <path id="Path-9" data-name="Path" d="M4.242,10.477A18.062,18.062,0,0,0,13.876,0H9.634A18.072,18.072,0,0,1,0,10.477Z" transform="translate(28.105 32.424)" fill="#fbb49e"/>
    <path id="Path-10" data-name="Path" d="M9.746,4.955C7.42,2.161,3.13-1.036.847.323A2.516,2.516,0,0,0,0,1.187C2.377.622,6.146,3.514,8.273,6.071a10.72,10.72,0,0,1,1.193,1.7,6.926,6.926,0,0,1,.711,1.923,5.916,5.916,0,0,1,.105.81h1.431a5.719,5.719,0,0,0-.063-1.926,6.757,6.757,0,0,0-.711-1.92A10.873,10.873,0,0,0,9.746,4.955Z" transform="translate(2.407 11.935)" fill="#e5e4ed"/>
    <path id="Shape" d="M1.653,11.115h0A3.125,3.125,0,0,0,.769,8.6C1.865,6.518,1.3,5.05.706,3.5A7.83,7.83,0,0,1,0,.506C0,.373,0,.235.013.07A2.441,2.441,0,0,1,.583,0a2.116,2.116,0,0,1,.436.045A2.272,2.272,0,0,1,1.7.313a4.683,4.683,0,0,0-.045.558c0,.04,0,.079,0,.116s0,.058,0,.086a7.826,7.826,0,0,0,.7,2.992c.615,1.6,1.2,3.116-.047,5.3A5.441,5.441,0,0,0,1.653,11.115Z" transform="translate(17.388 11.245)" fill="#e5e4ed"/>
    <path id="Path-11" data-name="Path" d="M4.546,1.419A2.616,2.616,0,0,0,.889.369,2.715,2.715,0,0,0,0,1.224,2.632,2.632,0,0,1,3.073,2.532,2.9,2.9,0,0,1,3.407,3.6H4.79A2.9,2.9,0,0,0,4.546,1.419Z" transform="translate(6.149 18.838)" fill="#fbba58"/>
    <path id="Path-12" data-name="Path" d="M4.911,6.183A4.9,4.9,0,0,0,2.04.668Q1.764.527,1.479.413A6.987,6.987,0,0,0,0,0,5.776,5.776,0,0,1,2.681,6.183H4.911Z" transform="translate(37.995 16.253)" fill="#ce8b6b"/>
    <path id="Path-13" data-name="Path" d="M.063,3.365H4.971A2.987,2.987,0,0,0,2.865.064,2.535,2.535,0,0,0,0,1.438,5.72,5.72,0,0,1,.063,3.365Z" transform="translate(14.057 19.071)" fill="#ffd772"/>
    <path id="Path-14" data-name="Path" d="M4,3.365A3.1,3.1,0,0,0,3.133.771,2.453,2.453,0,0,0,1.9.064,2.5,2.5,0,0,0,0,.37C.247.354,2.226,2,2.2,3.365Z" transform="translate(15.024 19.07)" fill="#fbba58"/>
    <path id="Path-15" data-name="Path" d="M1.1,7.8H40.128a18.821,18.821,0,0,0,1.1-6.36L21.733,0,0,1.438A18.82,18.82,0,0,0,1.1,7.8Z" transform="translate(1.853 24.627)" fill="#f37c7c"/>
    <path id="Path-16" data-name="Path" d="M4.242,6.36A18.821,18.821,0,0,0,5.341,0H1.1A18.893,18.893,0,0,1,0,6.36Z" transform="translate(37.739 26.065)" fill="#ee6161"/>
    <path id="Path-17" data-name="Path" d="M14.12,0H1.732A1.78,1.78,0,0,0,0,1.813,1.781,1.781,0,0,0,1.732,3.629H43.2a1.781,1.781,0,0,0,1.732-1.816A1.78,1.78,0,0,0,43.2,0H14.12Z" transform="translate(0 22.436)" fill="#365e7d"/>
    <path id="Path-18" data-name="Path" d="M5.974,1.813A1.78,1.78,0,0,0,4.242,0H0A1.78,1.78,0,0,1,1.732,1.813,1.781,1.781,0,0,1,0,3.629H4.242A1.781,1.781,0,0,0,5.974,1.813Z" transform="translate(38.959 22.436)" fill="#2b4d66"/>
    <path id="Path-19" data-name="Path" d="M0,18.4H4.1a5.361,5.361,0,0,1,.678-1.829c1.982-3.484-.711-5.341-.66-8.289C4.07,5.341,6.763,3.481,4.781,0H.675C2.482,3.172.407,5,.063,7.526a4.844,4.844,0,0,0-.045.558c0,.069,0,.136,0,.2-.054,2.948,2.642,4.805.657,8.289A5.414,5.414,0,0,0,0,18.4Z" transform="translate(19.028 4.032)" fill="#ffd772"/>
    <path id="Path-20" data-name="Path" d="M0,18.4H5.1a5.413,5.413,0,0,1,.675-1.829c1.985-3.484-.708-5.341-.657-8.289C5.064,5.341,7.757,3.481,5.772,0H.675C2.66,3.481-.036,5.341.015,8.286c-.051,2.948,2.645,4.805.66,8.289A5.414,5.414,0,0,0,0,18.4Z" transform="translate(24.257 4.032)" fill="#ffd772"/>
    <path id="Path-21" data-name="Path" d="M0,18.4H3.112a5.413,5.413,0,0,1,.675-1.829,4.756,4.756,0,0,0,.636-3.459C4.1,11.5,3.1,10.1,3.13,8.286,3.1,6.479,4.1,5.083,4.42,3.465A4.741,4.741,0,0,0,3.787,0H.678C2.66,3.481-.033,5.341.018,8.286c-.051,2.948,2.642,4.805.66,8.289A5.361,5.361,0,0,0,0,18.4Z" transform="translate(28.361 4.032)" fill="#fbba58"/>
    <path id="Path-22" data-name="Path" d="M0,18.4H3.112a5.349,5.349,0,0,1,.675-1.829c1.982-3.484-.711-5.341-.66-8.289C3.076,5.341,5.769,3.481,3.787,0H.675C2.657,3.481-.036,5.341.015,8.286c-.051,2.948,2.642,4.805.66,8.289A5.414,5.414,0,0,0,0,18.4Z" transform="translate(22.14 4.032)" fill="#fbba58"/>
    <path id="Path-23" data-name="Path" d="M.458,3.881H19.3A.469.469,0,0,0,19.76,3.4V0H0V3.4A.469.469,0,0,0,.458,3.881Z" transform="translate(12.587 42.902)" fill="#f37c7c"/>
    <path id="Path-24" data-name="Path" d="M4.7,3.4V0H.458V3.4A.471.471,0,0,1,0,3.881H4.242A.469.469,0,0,0,4.7,3.4Z" transform="translate(27.647 42.902)" fill="#ee6161"/>
    <path id="Path-25" data-name="Path" d="M3.693,3.665a.727.727,0,0,1-.193.026.805.805,0,0,1-.773-.632A2.541,2.541,0,0,0,.866.956,4.145,4.145,0,0,0,0,.64,9.058,9.058,0,0,1,2.353,0s0,0,0,0A3.8,3.8,0,0,1,4.273,2.654.836.836,0,0,1,3.693,3.665Z" transform="translate(33.422 16.215)" fill="#ce8b6b"/>
    <path id="Path-26" data-name="Path" d="M.8,1.671a.774.774,0,0,1-.561-.244l0,0a.862.862,0,0,1,0-1.18.772.772,0,0,1,1.127,0,.864.864,0,0,1,0,1.181A.779.779,0,0,1,.8,1.671Z" transform="translate(5.927 28.409)" fill="#ffd772"/>
    <path id="Path-27" data-name="Path" d="M.8,1.671a.774.774,0,0,1-.561-.244l0,0a.862.862,0,0,1,0-1.18.772.772,0,0,1,1.127,0,.864.864,0,0,1,0,1.181A.779.779,0,0,1,.8,1.671Z" transform="translate(11.175 28.409)" fill="#ffd772"/>
    <path id="Path-28" data-name="Path" d="M.8,1.671a.774.774,0,0,1-.561-.244l0,0a.862.862,0,0,1,0-1.18.772.772,0,0,1,1.127,0,.864.864,0,0,1,0,1.181A.778.778,0,0,1,.8,1.671Z" transform="translate(16.42 28.409)" fill="#ffd772"/>
    <path id="Path-29" data-name="Path" d="M.8,1.671a.774.774,0,0,1-.561-.244l0,0a.862.862,0,0,1,0-1.18.772.772,0,0,1,1.127,0,.864.864,0,0,1,0,1.181A.779.779,0,0,1,.8,1.671Z" transform="translate(21.668 28.409)" fill="#ffd772"/>
    <path id="Path-30" data-name="Path" d="M.8,1.671a.774.774,0,0,1-.561-.244l0,0a.862.862,0,0,1,0-1.18.772.772,0,0,1,1.127,0,.864.864,0,0,1,0,1.181A.778.778,0,0,1,.8,1.671Z" transform="translate(26.916 28.409)" fill="#ffd772"/>
    <path id="Path-31" data-name="Path" d="M.8,1.671a.774.774,0,0,1-.561-.244l0,0a.862.862,0,0,1,0-1.18.772.772,0,0,1,1.127,0,.864.864,0,0,1,0,1.181A.778.778,0,0,1,.8,1.671Z" transform="translate(32.161 28.409)" fill="#ffd772"/>
    <path id="Path-32" data-name="Path" d="M.8,1.671a.774.774,0,0,1-.561-.244l0,0a.862.862,0,0,1,0-1.18.772.772,0,0,1,1.127,0,.864.864,0,0,1,0,1.181A.779.779,0,0,1,.8,1.671Z" transform="translate(37.409 28.409)" fill="#ffd772"/>
    <path id="Path-33" data-name="Path" d="M40.2,0H0V1.668H40.2Z" transform="translate(12.623 3.198)" fill="#ce8b6b"/>
  </g>
</svg>
