<svg xmlns="http://www.w3.org/2000/svg" width="54.847" height="48.122" viewBox="0 0 54.847 48.122">
  <defs>
    <style>
      .cls-1 {
        fill: #fed8a7;
      }

      .cls-2 {
        fill: #001653;
      }

      .cls-3 {
        fill: #7b5119;
      }

      .cls-4 {
        fill: #957447;
      }

      .cls-5 {
        fill: #f66f7d;
      }

      .cls-6 {
        fill: #343843;
      }

      .cls-7 {
        fill: #171a20;
      }

      .cls-8 {
        fill: #021753;
      }

      .cls-9 {
        fill: #fd001a;
      }

      .cls-10 {
        fill: #d7283a;
      }

      .cls-11 {
        fill: #00424c;
      }

      .cls-12 {
        fill: #ffc31a;
      }

      .cls-13 {
        fill: #d1a11a;
      }

      .cls-14 {
        fill: #0087fc;
      }

      .cls-15 {
        fill: #ffe6a6;
      }

      .cls-16 {
        fill: #557a80;
      }

      .cls-17 {
        fill: #661820;
      }

      .cls-18 {
        fill: #0c004a;
      }

      .cls-19 {
        fill: #fff;
      }

      .cls-20 {
        fill: #d7162a;
      }

      .cls-21 {
        fill: #b31525;
      }

      .cls-22 {
        fill: #09434c;
      }

      .cls-23 {
        fill: #070729;
      }

      .cls-24 {
        fill: #3f3f4f;
      }

      .cls-25 {
        fill: #d7fd00;
      }

      .cls-26 {
        fill: #c8bc4b;
      }

      .cls-27 {
        fill: #958b2c;
      }

      .cls-28 {
        fill: #f0e579;
      }

      .cls-29 {
        fill: #69bfdb;
      }

      .cls-30 {
        fill: #080712;
      }

      .cls-31 {
        fill: #080060;
      }

      .cls-32 {
        fill: #acf0fd;
      }
    </style>
  </defs>
  <g id="Group_107" data-name="Group 107" transform="translate(-0.088 -0.016)">
    <path id="Fill_14" data-name="Fill 14" class="cls-1" d="M.891,2.567S.9,2.621.9,2.711a1.9,1.9,0,0,1-.476,1.3C-.143,4.6-.147,5.326.449,5.45a9.518,9.518,0,0,0,2.017-.04,3.466,3.466,0,0,0,.1-2.043C2.349,1.882,2.222.252,2.222.252L.6,0Z" transform="translate(47.358 42.158)"/>
    <path id="Fill_16" data-name="Fill 16" class="cls-2" d="M.836.081A9.213,9.213,0,0,0,.094,1.232a2.14,2.14,0,0,0,0,1.269c.971.764,2.813.076,2.813.076A10.9,10.9,0,0,0,3.1,1.329C3.162.641,3.126,0,2.907,0s-.257.361-.755.259A2.926,2.926,0,0,0,.836.081" transform="translate(47.096 45.276)"/>
    <path id="Fill_18" data-name="Fill 18" class="cls-3" d="M3.06,0A6.474,6.474,0,0,1,1.7.383,3.547,3.547,0,0,1,.008.007,1.639,1.639,0,0,0,.094.829c.971.764,2.813.076,2.813.076S2.994.522,3.06,0" transform="translate(47.096 46.947)"/>
    <path id="Fill_20" data-name="Fill 20" class="cls-4" d="M3.052,0A3.612,3.612,0,0,1,0,.007,4.275,4.275,0,0,0,.733.315,2.094,2.094,0,0,0,1.926.392,5.18,5.18,0,0,0,3.052,0" transform="translate(47.104 46.947)"/>
    <path id="Fill_22" data-name="Fill 22" class="cls-1" d="M.62,5.23c.4.149.927.371.927.371C1.615,5.437.3,5.157.115,4.757c-.1-.214,1.51.573,1.622.479C1.783,5.2-.083,4.592,0,4.446c.072-.123,1.962.541,1.972.449C1.99,4.768.339,4.438.487,4.254a19.376,19.376,0,0,1,2.3.477c.265,0-.693-.648-.367-.734.443-.118,1.555,1.153,1.641,1.17.252.052,2.395.313,3.444-.37A4.533,4.533,0,0,0,9.372,2.664,5.023,5.023,0,0,0,9.609.132,10.445,10.445,0,0,1,12.458.07c.059,1.186-1.367,5.888-1.963,6.275-1.311.851-3.651.643-5.3.508a10.225,10.225,0,0,1-3.828-.976,2.776,2.776,0,0,1-.833-.522A.078.078,0,0,1,.62,5.23" transform="translate(31.429 14.214)"/>
    <path id="Fill_24" data-name="Fill 24" class="cls-5" d="M1.22,1.419C.509,2.151-.208,6.532.056,7.576c.456.848,2.52.995,3.188,1.4,1.54-.631.485-3.461.485-3.461L4.29,0A4.771,4.771,0,0,0,1.22,1.419" transform="translate(40.414 8.944)"/>
    <path id="Fill_26" data-name="Fill 26" class="cls-1" d="M3.522,1.032a1.68,1.68,0,0,1-.536,1.819,2.84,2.84,0,0,1-.646.4C1.4,3.659.174,3.567,0,4.411s5.981-.237,5.981-.237-.427-2.053-.454-2.4S5.568.17,5.568.17L3.192,0Z" transform="translate(40.054 42.713)"/>
    <path id="Fill_28" data-name="Fill 28" class="cls-2" d="M5.821.415s.075.326.248.879a2.388,2.388,0,0,1,.065,1.073s-5.762.272-6,.09-.113-.844-.054-.9.79-.255,1.165-.486A7.02,7.02,0,0,1,3.337,0c.433.035.633.354,1.454.39S5.617.256,5.821.415" transform="translate(39.968 45.019)"/>
    <path id="Fill_30" data-name="Fill 30" class="cls-3" d="M.138.9c.233.182,6-.09,6-.09A2.4,2.4,0,0,0,6.139.047,18.342,18.342,0,0,1,.084,0C.025.059-.1.721.138.9" transform="translate(39.968 46.574)"/>
    <path id="Fill_32" data-name="Fill 32" class="cls-4" d="M6.056.047A15.775,15.775,0,0,1,0,0,21.152,21.152,0,0,0,5.49.124L6.056.047" transform="translate(40.051 46.574)"/>
    <path id="Fill_34" data-name="Fill 34" class="cls-6" d="M10.5,2.423c.989,3.6-.239,19.763-.239,19.763l-2.96-.2S6.631,5.907,6.143,5.421A.3.3,0,0,0,5.729,5.4a.64.64,0,0,0-.245.342c-.3.992-2.045,6.766-1.695,8.031.384,1.385,2.1,8.8,2.1,8.8l-2.483.1S0,17.011,0,13.056s.554-9.2,2.163-11.333C2.9.751,6.5,0,6.5,0s3.694,1.3,4,2.423" transform="translate(40.054 21.425)"/>
    <path id="Fill_36" data-name="Fill 36" class="cls-7" d="M2.146,17.441S.431,9.532.047,8.056C-.233,6.984.811,2.872,1.4.7A.953.953,0,0,1,2.9.2S.4,7.261.781,8.646s2.1,8.8,2.1,8.8l-2.483.1-.018-.03Z" transform="translate(43.062 26.557)"/>
    <path id="Fill_38" data-name="Fill 38" class="cls-7" d="M.357,0A1.636,1.636,0,0,1,.972.748C1.96,4.35.733,20.511.733,20.511L0,20.461C.041,19.876,1.1,4.665.357,0" transform="translate(49.585 23.1)"/>
    <path id="Fill_40" data-name="Fill 40" class="cls-8" d="M0,1.295A5.489,5.489,0,0,1,.568.329,1.582,1.582,0,0,1,.93,0,11.153,11.153,0,0,0,2.7.679,10.792,10.792,0,0,0,8.691.65a1.023,1.023,0,0,1,.218.379,8.21,8.21,0,0,1,.209,1.2A9.277,9.277,0,0,1,2.7,2.684C.916,2.12.252,1.777,0,1.295" transform="translate(41.648 22.819)"/>
    <path id="Fill_46" data-name="Fill 46" class="cls-9" d="M.109,0c.1.314.553.852,2.6,1.483a8.96,8.96,0,0,0,5.961-.235c.158-.142.193,1.482,0,1.655a5.149,5.149,0,0,1-3.123.844A9.5,9.5,0,0,1,2.51,3.316C1.677,3.063.43,2.746.036,1.884A6.74,6.74,0,0,1,.109,0" transform="translate(41.781 21.905)"/>
    <path id="Fill_48" data-name="Fill 48" class="cls-9" d="M5.3.15S7.767.023,8.776,1.215s.841,12.919.432,13.269a9.326,9.326,0,0,1-6.245.447C.177,14.108,0,12.98,0,12.98S.37,5.487.37,3.186,2.623-.469,5.3.15" transform="translate(41.648 8.671)"/>
    <path id="Fill_50" data-name="Fill 50" class="cls-10" d="M1.391,12.236a12.232,12.232,0,0,0-.264-3.917C.933,8.356.746,8.4.57,8.451A21.875,21.875,0,0,1,0,3.643C-.016.828,1.414.009,1.414.009c.283-.064.737.2,1.446.937.819,2.232.647,12.618.264,12.946a4.675,4.675,0,0,1-1.577.546,4.138,4.138,0,0,1-.155-2.2" transform="translate(47.733 9.261)"/>
    <path id="Fill_52" data-name="Fill 52" class="cls-9" d="M2.925.19c.535.49.577.5.021,1.143A5.058,5.058,0,0,1,.286,2.584C-.366,2.277.241,1.254.675.517.81.287,2.39-.3,2.925.19" transform="translate(44.235 8.656)"/>
    <path id="Fill_54" data-name="Fill 54" class="cls-1" d="M.064,4a28.9,28.9,0,0,0,0,3.536,4.432,4.432,0,0,0,2.39-.989A63.636,63.636,0,0,0,1.7,0Z" transform="translate(44.704 2.996)"/>
    <path id="Fill_56" data-name="Fill 56" class="cls-1" d="M0,5.292A1.72,1.72,0,0,0,.772,5.03c.843-.949.211-2.488.277-2.888A6.219,6.219,0,0,0,1.315,0L.062,3.058S.01,4.283,0,5.292" transform="translate(44.705 3.935)"/>
    <path id="Fill_58" data-name="Fill 58" class="cls-11" d="M0,.284A.343.343,0,1,0,.285,0,.343.343,0,0,0,0,.284" transform="translate(33.655 13.875)"/>
    <path id="Fill_60" data-name="Fill 60" class="cls-11" d="M.707,2.552h0L.6,2.426A2.055,2.055,0,0,1,.189.17.424.424,0,0,1,.526,0,.556.556,0,0,1,.78.068C1.557.464.853,2.2.77,2.4l-.062.15ZM.527.2a.232.232,0,0,0-.184.1A1.86,1.86,0,0,0,.651,2.165C.712,2,1.248.528.689.243A.459.459,0,0,0,.612.211.291.291,0,0,0,.527.2Z" transform="translate(33.278 11.778)"/>
    <path id="Fill_62" data-name="Fill 62" class="cls-11" d="M.6,1.291A2.343,2.343,0,0,1,.162,1.25L0,1.22l.1-.129C.191.98.988,0,1.624,0a.524.524,0,0,1,.3.088A.4.4,0,0,1,2.1.6,1.672,1.672,0,0,1,.6,1.291ZM1.621.2C1.177.2.55.874.369,1.081a2.234,2.234,0,0,0,.226.012A1.517,1.517,0,0,0,1.914.526a.209.209,0,0,0-.1-.274A.33.33,0,0,0,1.621.2Z" transform="translate(33.979 12.887)"/>
    <path id="Fill_64" data-name="Fill 64" class="cls-12" d="M.761,5.474H10.873a.76.76,0,0,0,.761-.759V.759A.76.76,0,0,0,10.873,0H.761A.76.76,0,0,0,0,.759V4.716a.76.76,0,0,0,.761.759" transform="translate(27.87 14.33)"/>
    <path id="Fill_66" data-name="Fill 66" class="cls-13" d="M.761,0H4.4V5.474H.761A.76.76,0,0,1,0,4.716V.759A.76.76,0,0,1,.761,0" transform="translate(27.87 14.33)"/>
    <path id="Fill_72" data-name="Fill 72" class="cls-14" d="M.248,5.184H7.5a.248.248,0,0,0,.248-.248V.248A.248.248,0,0,0,7.5,0H.248A.248.248,0,0,0,0,.248V4.937a.248.248,0,0,0,.248.248" transform="translate(47.191 24.079)"/>
    <path id="Fill_74" data-name="Fill 74" class="cls-15" d="M0,3.99H6.56V0H0Z" transform="translate(47.487 24.677)"/>
    <path id="Fill_76" data-name="Fill 76" class="cls-16" d="M.14,2.281H.552a.14.14,0,0,0,.14-.14v-2A.14.14,0,0,0,.552,0H.14A.14.14,0,0,0,0,.14v2a.14.14,0,0,0,.14.14" transform="translate(47.025 25.531)"/>
    <path id="Fill_77" data-name="Fill 77" class="cls-1" d="M.488,6.736C0,8.217,1.719,11.419,1.021,12.444a1.788,1.788,0,0,0,.5,2.635c.846.534,1.9-.214,1.813-.62l-.417-2c-.1-.5,1.864-4.505.478-6.934C2.572,4.084,3.788,1.6,3.146,0,2.571,1.067-.15.4.006,1.572c.248,1,.756,4.332.482,5.164" transform="translate(49.231 14.761)"/>
    <path id="Fill_78" data-name="Fill 78" class="cls-1" d="M.36.165A9.663,9.663,0,0,0,0,2.415C0,3.428.024,5.184.745,5.184A1.8,1.8,0,0,0,2.738,3.552c.24-1.434,0-3.016-.721-3.387A2.292,2.292,0,0,0,.36.165" transform="translate(43.05 2.353)"/>
    <path id="Fill_79" data-name="Fill 79" class="cls-17" d="M1.256,2.617a.288.288,0,0,1,.385.328c-.064.366-.048.766.295.85.661.161.973,0,1.081.111s-.312.7,0,.816.48-.952.757-.952.336,1.533,0,1.879.048.816.492.816-.056.556.542.742,1.079.185,1.271-.569a1.9,1.9,0,0,0,0-1.174,1.914,1.914,0,0,0,.456-1.417,5.7,5.7,0,0,0-.484-1.1,10.3,10.3,0,0,1-.393-1.318C5.575,1.15,4.384.668,3.568.581S3.161,0,2.476,0,1.7.9,1.7.9A9.841,9.841,0,0,0,.675.346c-.569.345-.1.952-.1.952a.7.7,0,0,0-.564.655c-.1.606.3.977.925.779.118-.037.224-.076.317-.114" transform="translate(42.376 0.898)"/>
    <path id="Fill_80" data-name="Fill 80" class="cls-18" d="M0,0A3.458,3.458,0,0,1,.472.112c.292.162.649.375.649.375a16.131,16.131,0,0,1,2.007.7,22.506,22.506,0,0,1,2.31,1.243l.037.1s.146.259.281.55A17.053,17.053,0,0,1,2.778,1.924,9.379,9.379,0,0,1,0,0" transform="translate(42.952 1.313)"/>
    <path id="Fill_81" data-name="Fill 81" class="cls-19" d="M2.87,0s-.292.181-.748.5C1.171,1.176.622.426.2.446A2.56,2.56,0,0,0,.572,3.038a1.9,1.9,0,0,0,1.827-.5A1.668,1.668,0,0,0,2.923,1.43C1.985,2,1.966,1.077,2.87,0" transform="translate(42.845 4.585)"/>
    <path id="Fill_82" data-name="Fill 82" class="cls-1" d="M.091.37S.421-.236.715.1.855,1.871.4,1.871-.069.754.091.37" transform="translate(45.624 4.215)"/>
    <path id="Fill_83" data-name="Fill 83" class="cls-5" d="M.825.068S-.015.7,0,3.52A24.2,24.2,0,0,0,.723,8.483a6.961,6.961,0,0,1,3.879,0,19.5,19.5,0,0,0-.355-4.7C3.766,1.7,2.024-.409.825.068" transform="translate(48.246 9.229)"/>
    <path id="Fill_84" data-name="Fill 84" class="cls-9" d="M.065,1.458A2.593,2.593,0,0,1,3.522.255a2.577,2.577,0,0,1,1.24,3.434c-.024.049-.049.1-.075.144L0,1.607c.02-.05.041-.1.065-.149" transform="translate(43.741 0.016)"/>
    <path id="Fill_85" data-name="Fill 85" class="cls-20" d="M1.039,2.042c.02-.05.041-.1.065-.149A2.585,2.585,0,0,1,3.905.478,2.651,2.651,0,0,0,3.522.255a2.593,2.593,0,0,0-3.457,1.2c-.024.049-.045.1-.065.149L4.686,3.833c.009-.015-3.647-1.791-3.647-1.791" transform="translate(43.741 0.016)"/>
    <path id="Fill_86" data-name="Fill 86" class="cls-21" d="M0,.008a26.3,26.3,0,0,1,4.05,1.628,11.854,11.854,0,0,1,2.734,1.53,15.406,15.406,0,0,1-4.2-1.242A6.671,6.671,0,0,1,0,.008" transform="translate(41.646 0.685)"/>
    <path id="Fill_87" data-name="Fill 87" class="cls-1" d="M1.126,3.718C.651,4.26.716,5.392.618,5.461.411,5.6,0,4.556,0,4.556L.576,2.524S1.74,1.4,3.071,0A8.606,8.606,0,0,1,4.162,1.213,21.782,21.782,0,0,0,1.126,3.718" transform="translate(1.309 40.322)"/>
    <path id="Fill_88" data-name="Fill 88" class="cls-22" d="M1.8.087S1.724-.088,1.354.058,0,1.788,0,1.788l.244.262A7.488,7.488,0,0,1,1.089.993c.058.059-.638,1.3-.535,1.483S1.525,3.658,1.817,3.66s.071-.82.071-.82-.531-.41-.53-.533S1.8.087,1.8.087" transform="translate(0.088 42.759)"/>
    <path id="Fill_89" data-name="Fill 89" class="cls-1" d="M1.344,3.989c.062.717.927,1.454.909,1.572-.039.249-1.083-.183-1.083-.183L.1,3.557S.09,1.94,0,.015A8.655,8.655,0,0,1,1.633.071a21.649,21.649,0,0,0-.29,3.918" transform="translate(7.164 41.979)"/>
    <path id="Fill_90" data-name="Fill 90" class="cls-22" d="M.357.005S.181-.064.03.3A7.879,7.879,0,0,0,.344,2.475L.7,2.481a7.457,7.457,0,0,1-.18-1.34c.083,0,.5,1.36.7,1.412a3.9,3.9,0,0,0,1.732-.088c.2-.208-.545-.619-.545-.619s-.664.1-.753.012S.357.005.357.005" transform="translate(6.905 45.53)"/>
    <path id="Fill_91" data-name="Fill 91" class="cls-23" d="M5.539,1.149,7.807,0,7.733.961S9.819,10.3,9.318,11.71c-1.174,3.3-7.979,8.853-7.979,8.853L0,19.34s5.242-7.188,5.242-8.558S3.532,1.63,3.532,1.63Z" transform="translate(3.033 22.111)"/>
    <path id="Fill_92" data-name="Fill 92" class="cls-24" d="M1.71,10.781C1.71,9.411,0,1.63,0,1.63l2.008-.482L4.275,0,4.2.961s.313,1.4.668,3.2c-1.175.78-1.242,6.822-1.926,11.581L.87,12.734a5.711,5.711,0,0,0,.84-1.952" transform="translate(6.565 22.111)"/>
    <path id="Fill_93" data-name="Fill 93" class="cls-23" d="M6.469.7s-.127,1.578-.127,1.8S4.35,20.155,4.982,22.971H2.6S0,7,0,4.372A8,8,0,0,1,1.264,0Z" transform="translate(4.372 21.407)"/>
    <path id="Fill_94" data-name="Fill 94" class="cls-25" d="M.3,0l5.2.7s-.127,1.578-.127,1.8c0,.024-.024.255-.066.65A28.583,28.583,0,0,1,2.345,1.949C1.014,1.259.631.52,0,.5A4.794,4.794,0,0,1,.3,0" transform="translate(5.335 21.407)"/>
    <path id="Fill_95" data-name="Fill 95" class="cls-1" d="M2.977,1.21a8.6,8.6,0,0,0-.3,3.028c.252,1.3.5,2.471.5,2.471L0,3.745.9,0Z" transform="translate(5.044 7.614)"/>
    <path id="Fill_97" data-name="Fill 97" class="cls-26" d="M1.068,0A7.046,7.046,0,0,1,5.455,1.89C7.3,3.723,7.277,3.594,7.277,4.3S7.5,7.966,7.5,9.707s.22,2.706,0,2.742c-1.6.257-4.22-1.89-5.818-1.63,0,0-1.431-2.2-1.19-3.057S.343,6.335.176,4.8-.382,0,1.068,0" transform="translate(3.786 10.811)"/>
    <path id="Fill_98" data-name="Fill 98" class="cls-27" d="M.985,3.635C.091,2.408-.607.335.8,0A9.564,9.564,0,0,0,3.087,3.657,11.744,11.744,0,0,0,6.653,5.135c.047.867.1,1.9.13,2.807a24.831,24.831,0,0,1-5.8-4.307" transform="translate(4.489 11.682)"/>
    <path id="Fill_99" data-name="Fill 99" class="cls-28" d="M.818.066A3.523,3.523,0,0,1,3.584.694c1.366.993,3.748,3.6,3.966,3.643a16.671,16.671,0,0,0,2.3.065s.484.3.552,1.964c.036.893-2.448,1.259-3.266,1.2S1.814,4.6.942,3.464-.593.4.818.066" transform="translate(4.475 11.617)"/>
    <path id="Fill_100" data-name="Fill 100" class="cls-29" d="M.243,0,.07,0A6.894,6.894,0,0,0,.248,2.726a2.123,2.123,0,0,0,.447-.247,4.983,4.983,0,0,0,0-1.265Z" transform="translate(13.879 16.024)"/>
    <path id="Fill_101" data-name="Fill 101" class="cls-1" d="M3.068.228a2.51,2.51,0,0,1,1.1,1.2c.244.745.1,4.122-.541,4.33S1.858,5.508.486,3.94.864-.887,3.068.228" transform="translate(5.612 4.356)"/>
    <path id="Fill_102" data-name="Fill 102" class="cls-30" d="M6.27,1.423s-.708.208-.877,1.528S4.087,4.6,3.551,5.152s-.719,1.74-2.33,1.27S-.055,4.391.27,3.282A5.784,5.784,0,0,1,3.128.216C4.4-.3,7.111.122,6.27,1.423" transform="translate(3.309 3.5)"/>
    <path id="Fill_103" data-name="Fill 103" class="cls-31" d="M2.466,0A5.648,5.648,0,0,0,.56,2.487C.234,3.595-.1,5.157,1.529,5.632a1.732,1.732,0,0,0,1.219,0,1.462,1.462,0,0,1-1.526.213C-.389,5.377-.055,3.815.27,2.707A5.824,5.824,0,0,1,2.466,0" transform="translate(3.309 4.075)"/>
    <path id="Fill_104" data-name="Fill 104" class="cls-30" d="M2.538,1.347s-.222.973-.874,1.135S.686,2.55.609,2.174-.248,1.9.08,1.211.516.01,1.123,0,1.909.23,2.465.392s.073.955.073.955" transform="translate(1.882 4.415)"/>
    <path id="Fill_105" data-name="Fill 105" class="cls-1" d="M0,1.069S4.694.089,5.455.017a12.4,12.4,0,0,1,3.41.278C8.809.463,7.049.619,7.034.665s.2.39.066.543a1.118,1.118,0,0,0-.294.421c-.063.191-.251.228-.388.3a1.608,1.608,0,0,1-.875.063c-.258-.084-.405-.459-.81-.441S.314,2.868.314,2.868Z" transform="translate(14.218 15.247)"/>
    <path id="Fill_106" data-name="Fill 106" class="cls-32" d="M2.116,2.618a6.932,6.932,0,0,1-1.683.768C.2,3.311-.189.3.105.1a2.242,2.242,0,0,1,1.5.061c.067.132.786,2.3.51,2.453" transform="translate(13.977 15.542)"/>
  </g>
</svg>
