<svg id="burger" xmlns="http://www.w3.org/2000/svg" width="26.634" height="26.634" viewBox="0 0 26.634 26.634">
  <defs>
    <style>
      .cls-1 {
        fill: #de4959;
      }
    </style>
  </defs>
  <g id="Burger_1_">
    <path id="Path" class="cls-1" d="M21.172,6.242H5.462A5.469,5.469,0,0,1,0,.78.78.78,0,0,1,.78,0H25.854a.78.78,0,0,1,.78.78A5.469,5.469,0,0,1,21.172,6.242Z" transform="translate(0 20.392)"/>
    <path id="Shape" class="cls-1" d="M.78,10.924a.78.78,0,0,1-.78-.78C0,4.55,6,0,13.317,0S26.634,4.55,26.634,10.144a.78.78,0,0,1-.78.78Z"/>
  </g>
  <g id="Burger_4_" transform="translate(0 14)">
    <g id="Group">
      <path id="Path-2" data-name="Path" class="cls-1" d="M.78,0a3.612,3.612,0,0,1,.983.127,5.249,5.249,0,0,0-.2,1.588,2.112,2.112,0,0,0-.78-.127A.78.78,0,0,1,0,.794.78.78,0,0,1,.78,0Z"/>
      <path id="Path-3" data-name="Path" class="cls-1" d="M1.763.794a.78.78,0,0,1-.78.794,2.112,2.112,0,0,0-.78.127A5.588,5.588,0,0,0,0,.127,3.612,3.612,0,0,1,.983,0,.78.78,0,0,1,1.763.794Z" transform="translate(24.871)"/>
    </g>
  </g>
  <path id="Path-4" data-name="Path" class="cls-1" d="M0,1.62a4.093,4.093,0,0,1,1.553.78A2.393,2.393,0,0,0,3.169,3a2.351,2.351,0,0,0,1.6-.6,4.036,4.036,0,0,1,2.584-.9A3.889,3.889,0,0,1,9.9,2.4a2.433,2.433,0,0,0,3.2,0,3.889,3.889,0,0,1,2.547-.9,4.036,4.036,0,0,1,2.584.9,2.352,2.352,0,0,0,1.6.6,2.393,2.393,0,0,0,1.615-.6A4.094,4.094,0,0,1,23,1.62,5.114,5.114,0,0,0,22.212,0H.788A5.114,5.114,0,0,0,0,1.62Z" transform="translate(2 13)"/>
  <path id="Path-5" data-name="Path" class="cls-1" d="M23,3A5,5,0,0,0,24,.12a3.364,3.364,0,0,0-.844.48,4.048,4.048,0,0,1-2.612.9,4.034,4.034,0,0,1-2.6-.9A2.593,2.593,0,0,0,16.253,0,2.489,2.489,0,0,0,14.6.6a4,4,0,0,1-2.6.9A4,4,0,0,1,9.4.6,2.489,2.489,0,0,0,7.747,0,2.593,2.593,0,0,0,6.053.6a4.034,4.034,0,0,1-2.6.9A4.048,4.048,0,0,1,.844.6,3.364,3.364,0,0,0,0,.12,5,5,0,0,0,1,3Z" transform="translate(1 16)"/>
</svg>
