<svg id="burger" xmlns="http://www.w3.org/2000/svg" width="18.073" height="18.073" viewBox="0 0 18.073 18.073">
  <defs>
    <style>
      .cls-1 {
        fill: #fff;
      }
    </style>
  </defs>
  <g id="Burger_1_">
    <path id="Path" class="cls-1" d="M14.367,4.236H3.706A3.711,3.711,0,0,1,0,.529.529.529,0,0,1,.529,0H17.544a.529.529,0,0,1,.529.529A3.711,3.711,0,0,1,14.367,4.236Z" transform="translate(0 13.837)"/>
    <path id="Shape" class="cls-1" d="M.529,7.412A.529.529,0,0,1,0,6.883C0,3.088,4.073,0,9.037,0s9.036,3.088,9.036,6.883a.529.529,0,0,1-.529.529Z"/>
  </g>
  <g id="Burger_4_" transform="translate(0 9.566)">
    <g id="Group">
      <path id="Path-2" data-name="Path" class="cls-1" d="M.529,0A2.492,2.492,0,0,1,1.2.085a3.443,3.443,0,0,0-.138,1.059,1.456,1.456,0,0,0-.529-.085A.524.524,0,0,1,0,.529.524.524,0,0,1,.529,0Z"/>
      <path id="Path-3" data-name="Path" class="cls-1" d="M1.2.529a.524.524,0,0,1-.529.529,1.456,1.456,0,0,0-.529.085A3.663,3.663,0,0,0,0,.085,2.492,2.492,0,0,1,.667,0,.524.524,0,0,1,1.2.529Z" transform="translate(16.876)"/>
    </g>
  </g>
  <path id="Path-4" data-name="Path" class="cls-1" d="M0,1.144a2.756,2.756,0,0,1,1.059.551,1.6,1.6,0,0,0,1.1.424,1.572,1.572,0,0,0,1.091-.424,2.7,2.7,0,0,1,1.761-.635,2.6,2.6,0,0,1,1.737.635,1.616,1.616,0,0,0,2.182,0,2.6,2.6,0,0,1,1.737-.635,2.7,2.7,0,0,1,1.761.635,1.573,1.573,0,0,0,1.091.424,1.6,1.6,0,0,0,1.1-.424,2.757,2.757,0,0,1,1.059-.551A3.665,3.665,0,0,0,15.143,0H.537A3.665,3.665,0,0,0,0,1.144Z" transform="translate(1.197 8.507)"/>
  <path id="Path-5" data-name="Path" class="cls-1" d="M15.288,2.118A3.669,3.669,0,0,0,15.955.085a2.206,2.206,0,0,0-.561.339,2.6,2.6,0,0,1-1.737.635A2.59,2.59,0,0,1,11.931.424,1.665,1.665,0,0,0,10.805,0,1.6,1.6,0,0,0,9.7.424a2.567,2.567,0,0,1-1.726.635A2.567,2.567,0,0,1,6.252.424,1.6,1.6,0,0,0,5.15,0,1.665,1.665,0,0,0,4.024.424,2.59,2.59,0,0,1,2.3,1.059,2.6,2.6,0,0,1,.561.424,2.206,2.206,0,0,0,0,.085,3.669,3.669,0,0,0,.667,2.118Z" transform="translate(1.059 10.625)"/>
</svg>
