<svg id="icon_Shopping_bag" data-name="icon_Shopping bag" xmlns="http://www.w3.org/2000/svg" width="37" height="37" viewBox="0 0 37 37">
  <defs>
    <style>
      .cls-1 {
        fill: #fff;
      }

      .cls-2 {
        fill: #7955b6;
      }
    </style>
  </defs>
  <rect id="Rectangle" class="cls-1" width="37" height="37" rx="18.5"/>
  <g id="bag" transform="translate(12 9)">
    <path id="Shape" class="cls-2" d="M2.39,20a2.347,2.347,0,0,1-1.765-.814A2.576,2.576,0,0,1,.01,17.274L1.027,5.568A.607.607,0,0,1,1.622,5H3.415V3.75A3.674,3.674,0,0,1,7,0,3.529,3.529,0,0,1,9.536,1.1,3.818,3.818,0,0,1,10.584,3.75V5h1.793a.608.608,0,0,1,.595.568l1.019,11.706a2.586,2.586,0,0,1-.617,1.913A2.349,2.349,0,0,1,11.609,20Z"/>
  </g>
</svg>
