<svg xmlns="http://www.w3.org/2000/svg" width="21.6" height="17.088" viewBox="0 0 21.6 17.088">
  <g id="box" transform="translate(0 -0.02)">
    <path id="Path" d="M13.836,0l-.32,1.338H8.085L7.764,0H0L2.284,4.127H19.316L21.6,0Z" transform="translate(0 12.981)" fill="#fff"/>
    <path id="Path-2" data-name="Path" d="M19.316,0H2.284L0,4.127H21.6Z" transform="translate(0 7.589)" fill="#fff"/>
    <path id="Path-3" data-name="Path" d="M1.468,2.882a1.381,1.381,0,0,1-.2-.767,1.38,1.38,0,0,1,.2-.767A2.6,2.6,0,0,0,1.813,0H.548a1.38,1.38,0,0,1-.2.767A2.6,2.6,0,0,0,0,2.115,2.6,2.6,0,0,0,.345,3.464a1.381,1.381,0,0,1,.2.767A1.381,1.381,0,0,1,.345,5,2.6,2.6,0,0,0,0,6.346H1.265a1.381,1.381,0,0,1,.2-.767A2.6,2.6,0,0,0,1.813,4.23,2.6,2.6,0,0,0,1.468,2.882Z" transform="translate(5.054 0.02)" fill="#fff"/>
    <path id="Path-4" data-name="Path" d="M1.468,2.882a1.381,1.381,0,0,1-.2-.767,1.38,1.38,0,0,1,.2-.767A2.6,2.6,0,0,0,1.813,0H.548a1.38,1.38,0,0,1-.2.767A2.6,2.6,0,0,0,0,2.115,2.6,2.6,0,0,0,.345,3.464a1.381,1.381,0,0,1,.2.767A1.381,1.381,0,0,1,.345,5,2.6,2.6,0,0,0,0,6.346H1.265a1.381,1.381,0,0,1,.2-.767A2.6,2.6,0,0,0,1.813,4.23,2.6,2.6,0,0,0,1.468,2.882Z" transform="translate(8.28 0.02)" fill="#fff"/>
    <path id="Path-5" data-name="Path" d="M1.265,2.115a1.38,1.38,0,0,1,.2-.767A2.6,2.6,0,0,0,1.813,0H.548a1.38,1.38,0,0,1-.2.767A2.6,2.6,0,0,0,0,2.115,2.6,2.6,0,0,0,.345,3.464a1.381,1.381,0,0,1,.2.767A1.381,1.381,0,0,1,.345,5,2.6,2.6,0,0,0,0,6.346H1.265a1.381,1.381,0,0,1,.2-.767A2.6,2.6,0,0,0,1.813,4.23a2.6,2.6,0,0,0-.345-1.349A1.381,1.381,0,0,1,1.265,2.115Z" transform="translate(11.507 0.02)" fill="#fff"/>
    <path id="Path-6" data-name="Path" d="M1.265,2.115a1.38,1.38,0,0,1,.2-.767A2.6,2.6,0,0,0,1.813,0H.548a1.38,1.38,0,0,1-.2.767A2.6,2.6,0,0,0,0,2.115,2.6,2.6,0,0,0,.345,3.464a1.381,1.381,0,0,1,.2.767A1.381,1.381,0,0,1,.345,5,2.6,2.6,0,0,0,0,6.346H1.265a1.381,1.381,0,0,1,.2-.767A2.6,2.6,0,0,0,1.813,4.23a2.6,2.6,0,0,0-.345-1.349A1.381,1.381,0,0,1,1.265,2.115Z" transform="translate(14.733 0.02)" fill="#fff"/>
  </g>
</svg>
