<svg xmlns="http://www.w3.org/2000/svg" width="19" height="18.218" viewBox="0 0 19 18.218">
  <g id="profile-user" transform="translate(0.5 0.501)">
    <path id="Subtraction_1" data-name="Subtraction 1" d="M-52,6907.717a8.821,8.821,0,0,1-9-8.609,8.822,8.822,0,0,1,9-8.609,8.821,8.821,0,0,1,9,8.609A8.82,8.82,0,0,1-52,6907.717Zm-1.732-7.56a2.95,2.95,0,0,0-3.016,2.871,1.19,1.19,0,0,0,.446.922,6.816,6.816,0,0,0,4.3,1.517,6.809,6.809,0,0,0,4.3-1.519,1.189,1.189,0,0,0,.444-.921,2.789,2.789,0,0,0-.88-2.034,3.072,3.072,0,0,0-2.131-.837Zm1.732-7.083a2.918,2.918,0,0,0-2.977,2.848A2.917,2.917,0,0,0-52,6898.769a2.917,2.917,0,0,0,2.977-2.847A2.918,2.918,0,0,0-52,6893.074Z" transform="translate(61 -6890.5)" fill="#fff" stroke="rgba(0,0,0,0)" stroke-miterlimit="10" stroke-width="1"/>
  </g>
</svg>
