<svg id="Component_12_1" data-name="Component 12 – 1" xmlns="http://www.w3.org/2000/svg" width="105" height="106" viewBox="0 0 105 106">
  <path id="Fill_6" data-name="Fill 6" d="M22,3a3,3,0,0,0-2.965-3H2.97a3,3,0,0,0,0,6H19.035A2.988,2.988,0,0,0,22,3" transform="translate(41 27)" fill="#fff"/>
  <path id="Fill_8" data-name="Fill 8" d="M52.5,106a51.745,51.745,0,0,1-20.435-4.165A52.3,52.3,0,0,1,15.377,90.477a53.283,53.283,0,0,1,0-74.953A52.3,52.3,0,0,1,32.065,4.165a52.214,52.214,0,0,1,40.871,0A52.3,52.3,0,0,1,89.623,15.524a53.283,53.283,0,0,1,0,74.953,52.3,52.3,0,0,1-16.688,11.358A51.747,51.747,0,0,1,52.5,106ZM79.113,67.374a8.927,8.927,0,0,0-6.335,2.607,8.822,8.822,0,0,0-2.623,6.3,8.963,8.963,0,0,0,17.926,0,8.816,8.816,0,0,0-2.626-6.3A8.943,8.943,0,0,0,79.113,67.374Zm-53.424,0a8.941,8.941,0,0,0-6.342,2.607,8.863,8.863,0,0,0,0,12.594,8.935,8.935,0,1,0,6.342-15.2ZM45.262,54.416a1.513,1.513,0,0,1,1.174.608,1.842,1.842,0,0,1,.406,1.492,9.784,9.784,0,0,1-1.85,2.431c-.3.328-.553.611-.7.795l-3.5,4.145c-.1.124-.206.249-.317.38-.181.215-.367.436-.538.657l-2.616,3.143c-.128.157-.257.3-.382.444-.17.191-.328.37-.482.572l-1.485,1.63a10.679,10.679,0,0,1,1.554,5.567h31.74a10.766,10.766,0,0,1,3.6-8.012l-.909-1.038c-.332-.376-.686-.808-1.028-1.225-.237-.289-.482-.587-.719-.867l-3.353-4.319A76.752,76.752,0,0,1,59.926,51.5l-.019-.036c-1.179-2.312-2.794-5.479-3.243-8.119a4.259,4.259,0,0,1-.026-1.7c.1-.385.4-.794.789-.794a.652.652,0,0,1,.349.11l2.945,2.711c.2.192.392.367.583.545l.425.4,3.832,3.771c1.5,1.456,2.991,2.932,4.436,4.359,1.063,1.05,2.159,2.132,3.256,3.207,1.272,1.251,2.533,2.522,3.752,3.751,1.253,1.264,2.546,2.567,3.85,3.847,1.062,1.043,2.079,2.077,3.063,3.077a10.806,10.806,0,0,1,4.917,4.882l.885.889V38.871H15.281V63.028a6.058,6.058,0,0,1,.7-.837l1.937-1.84a7.553,7.553,0,0,1,.9-.846l.078-.065,3.037-2.724c.323-.246.819-.68,1.343-1.139.643-.563,1.307-1.144,1.781-1.495.462-.333,1.039-.821,1.65-1.338.52-.44,1.056-.893,1.523-1.25l4.176-3.466.233-.193.009-.007c.262-.217.51-.421.777-.675A10.867,10.867,0,0,1,35.559,45.5,1.535,1.535,0,0,1,36,45.438a1.894,1.894,0,0,1,1.712,1.085A1.6,1.6,0,0,1,37.2,48.3a2.658,2.658,0,0,1-.315.257c-.068.05-.139.1-.216.165L31.22,53.761l-.036.029a4.337,4.337,0,0,0-.462.42,7.012,7.012,0,0,1-.848.817,8.018,8.018,0,0,0-.611.556,12.8,12.8,0,0,1-.962.916c-.15.131-.3.265-.5.456-.076.08-.137.151-.195.22a2.773,2.773,0,0,1-.295.312l-2.986,2.7a6.233,6.233,0,0,1-.535.5c-.15.128-.3.26-.492.444a2.006,2.006,0,0,0-.585,2.017A1.972,1.972,0,0,0,24.3,64.466a2.843,2.843,0,0,0,.481.048,1.136,1.136,0,0,0,.922-.448l.082-.08L39.195,50.675a2.244,2.244,0,0,1,1.489-.766,1.614,1.614,0,0,1,1.138.531,1.528,1.528,0,0,1,.531,1.117c-.012.866-.9,1.7-1.843,2.582-.263.247-.535.5-.785.756-.656.664-1.315,1.313-1.952,1.941-.616.607-1.249,1.231-1.881,1.869-1.465,1.466-2.941,2.927-4.369,4.34l-.007.007c-.944.933-1.919,1.9-2.884,2.858a10.692,10.692,0,0,1,3.541,1.749l4.378-4.673c.276-.274.488-.513.734-.79l.181-.2L43.519,55.6a2.737,2.737,0,0,0,.184-.234,2.121,2.121,0,0,1,.239-.289A1.864,1.864,0,0,1,45.262,54.416ZM33.9,20.821,15.285,37.715h74.43L71.107,20.821H33.9Z" transform="translate(0 0)" fill="#fff"/>
</svg>
