<svg id="Component_13_1" data-name="Component 13 – 1" xmlns="http://www.w3.org/2000/svg" xmlns:xlink="http://www.w3.org/1999/xlink" width="208.933" height="209.933" viewBox="0 0 208.933 209.933">
  <defs>
    <clipPath id="clip-path">
      <path id="Clip_4" data-name="Clip 4" d="M0,0H208.933V209.933H0Z" transform="translate(0 0.067)" fill="none"/>
    </clipPath>
  </defs>
  <path id="Fill_1" data-name="Fill 1" d="M99,199a99.248,99.248,0,0,1-19.952-2.021,98.194,98.194,0,0,1-35.4-14.971A99.672,99.672,0,0,1,60.465,7.819a98.138,98.138,0,0,1,18.583-5.8,99.473,99.473,0,0,1,39.9,0,98.193,98.193,0,0,1,35.4,14.971,99.672,99.672,0,0,1-16.817,174.188,98.139,98.139,0,0,1-18.583,5.8A99.248,99.248,0,0,1,99,199ZM99,40.81A57.868,57.868,0,0,0,57.709,58a58.9,58.9,0,0,0,0,83,58.188,58.188,0,0,0,82.583,0,58.9,58.9,0,0,0,0-83A57.869,57.869,0,0,0,99,40.81Z" transform="translate(5 4.933)" fill="#ec2228"/>
  <g id="Group_5" data-name="Group 5" transform="translate(0 -0.067)">
    <path id="Clip_4-2" data-name="Clip 4" d="M0,0H208.933V209.933H0Z" transform="translate(0 0.067)" fill="none"/>
    <g id="Group_5-2" data-name="Group 5" clip-path="url(#clip-path)">
      <path id="Fill_3" data-name="Fill 3" d="M104.467,209.933A104.756,104.756,0,0,1,83.413,207.8a103.631,103.631,0,0,1-37.355-15.794A105.142,105.142,0,0,1,63.8,8.249,103.581,103.581,0,0,1,83.413,2.133a104.993,104.993,0,0,1,42.107,0,103.631,103.631,0,0,1,37.355,15.794A105.141,105.141,0,0,1,145.13,201.684a103.577,103.577,0,0,1-19.61,6.116A104.757,104.757,0,0,1,104.467,209.933Zm0-207.332A101.31,101.31,0,0,0,32.428,32.583a102.6,102.6,0,0,0,0,144.768,101.917,101.917,0,0,0,173.917-72.383,102.416,102.416,0,0,0-62.223-94.323A100.819,100.819,0,0,0,104.467,2.6Z" transform="translate(0 0.067)" fill="#ec2228"/>
    </g>
  </g>
  <path id="Fill_10" data-name="Fill 10" d="M13.872,3.828,9.562,9.939,21.556,7.625a7.737,7.737,0,0,1,1.391-.17,1.914,1.914,0,0,1,1.1.412,2.1,2.1,0,0,1,.91,1.318,1.775,1.775,0,0,1-.3,1.421,2.636,2.636,0,0,1-1.874.969L15.649,12.6,15.571,23.19a10.933,10.933,0,0,1-.129,1.847,3.077,3.077,0,0,1-.5,1.261,1.632,1.632,0,0,1-1.168.686,2.122,2.122,0,0,1-1.538-.453,2.567,2.567,0,0,1-.972-1.166,3.327,3.327,0,0,1-.189-1.394q.05-.751.1-1.356l.377-9.379-4.828.722-2.541,3.6a2.8,2.8,0,0,1-1.642,1.269,2.051,2.051,0,0,1-1.651-.381,2.112,2.112,0,0,1-.7-.853,2.046,2.046,0,0,1-.186-1.1,2.567,2.567,0,0,1,.344-.916q.275-.464.862-1.3L10.359,1.325a2.9,2.9,0,0,1,1.6-1.272,1.959,1.959,0,0,1,1.649.371,2.061,2.061,0,0,1,.91,1.443,2.819,2.819,0,0,1-.645,1.961" transform="translate(47 155.933)" fill="#fff"/>
  <path id="Fill_12" data-name="Fill 12" d="M16.913,24a2.118,2.118,0,0,1-.668-.112,1.931,1.931,0,0,1-.771-.45,1.829,1.829,0,0,1-.426-.669,4.671,4.671,0,0,1-.205-1.092c-.047-.491-.082-.9-.107-1.252l-.133-2.9L6.378,14.794,4.562,17.1a9.7,9.7,0,0,1-1.638,1.758,1.3,1.3,0,0,1-.768.232,2.3,2.3,0,0,1-.717-.129A2.036,2.036,0,0,1,.258,17.935a1.877,1.877,0,0,1-.172-1.5A3.084,3.084,0,0,1,.5,15.615c.187-.265.476-.633.859-1.094l9.481-11.6.411-.506.565-.7A7.356,7.356,0,0,1,12.915.6a2.833,2.833,0,0,1,1.2-.553A2.342,2.342,0,0,1,14.585,0a3.367,3.367,0,0,1,1.053.187,3.032,3.032,0,0,1,1.322.8,2.946,2.946,0,0,1,.651,1.155,6.368,6.368,0,0,1,.234,1.309c.032.445.065,1.031.1,1.793l1,15a7.14,7.14,0,0,1-.089,2.4,1.917,1.917,0,0,1-1.01,1.114A2.046,2.046,0,0,1,16.913,24ZM14.195,4.559,8.464,12.03l6.043,2.01Z" transform="translate(68 168.933)" fill="#fff"/>
  <path id="Fill_14" data-name="Fill 14" d="M15.916,22h-.068a2.172,2.172,0,0,1-1.233-.371,3.331,3.331,0,0,1-.843-.886c-.235-.358-.554-.885-.946-1.565l-1.69-2.921A15.976,15.976,0,0,0,9.5,13.8a4.181,4.181,0,0,0-1.488-1.17,5.3,5.3,0,0,0-1.927-.35L4.55,12.249,4.388,19.1a2.827,2.827,0,0,1-.652,1.979,2.07,2.07,0,0,1-1.531.606H2.14A2.035,2.035,0,0,1,.532,20.98,2.939,2.939,0,0,1,0,19L.387,2.588A2.767,2.767,0,0,1,1.07.581,2.746,2.746,0,0,1,3,0l.141,0,7.134.162a22.163,22.163,0,0,1,2.523.182A6.451,6.451,0,0,1,14.673.89a5.518,5.518,0,0,1,1.774,1.249,5.316,5.316,0,0,1,1.146,1.853,6.02,6.02,0,0,1,.355,2.214,5.311,5.311,0,0,1-1.455,3.782,7.936,7.936,0,0,1-4.19,1.928,8.038,8.038,0,0,1,2.187,1.855,18.429,18.429,0,0,1,1.839,2.583,18.652,18.652,0,0,1,1.242,2.46,4.749,4.749,0,0,1,.431,1.5,1.516,1.516,0,0,1-.293.83,1.927,1.927,0,0,1-.761.639A2.372,2.372,0,0,1,15.916,22ZM4.76,3.285,4.622,9.149l3.928.089c.136,0,.271,0,.4,0a10.478,10.478,0,0,0,2.263-.213,3.155,3.155,0,0,0,1.669-.879,2.627,2.627,0,0,0,.61-1.77,2.727,2.727,0,0,0-.421-1.574,2.77,2.77,0,0,0-1.247-1.04,9.311,9.311,0,0,0-3.019-.389Z" transform="translate(94 172.933)" fill="#fff"/>
  <path id="Fill_16" data-name="Fill 16" d="M11.874,20.835,4.608,8.721l4.33,14.227a2.732,2.732,0,0,1,.017,1.933A1.851,1.851,0,0,1,7.75,25.9a1.83,1.83,0,0,1-1.542-.16,2.678,2.678,0,0,1-1.07-1.614L.175,7.82A2.157,2.157,0,0,1,.317,5.783,3.479,3.479,0,0,1,2.053,4.729l1.28-.4a5.059,5.059,0,0,1,1.741-.31,1.469,1.469,0,0,1,1,.519A12.351,12.351,0,0,1,7.191,6.149l6.4,10.368L13.12,4.308a12.446,12.446,0,0,1,.027-1.962,1.491,1.491,0,0,1,.541-1A5.082,5.082,0,0,1,15.3.615l1.28-.4A3.453,3.453,0,0,1,18.6.1q.839.255,1.25,1.6l4.963,16.307a2.735,2.735,0,0,1,.017,1.933,1.868,1.868,0,0,1-1.219,1.025,1.8,1.8,0,0,1-1.53-.171A2.684,2.684,0,0,1,21.017,19.2L16.687,4.969l.726,14.146q.069,1.379.049,2.039a2.733,2.733,0,0,1-.413,1.321,2.272,2.272,0,0,1-1.353.959,2.284,2.284,0,0,1-2.346-.5,4.8,4.8,0,0,1-.77-.953q-.342-.547-.706-1.142" transform="translate(115 166.933)" fill="#fff"/>
  <path id="Fill_18" data-name="Fill 18" d="M6.537,24a2.292,2.292,0,0,1-.331-.025,1.781,1.781,0,0,1-1.272-.753,3.149,3.149,0,0,1-.4-.837c-.1-.317-.217-.763-.357-1.364L.611,6.235.58,6.108.56,6.027.238,4.708A7.892,7.892,0,0,1,0,3.135,3.036,3.036,0,0,1,.267,1.807,3.037,3.037,0,0,1,1.259.633a2.909,2.909,0,0,1,1.4-.614A3.019,3.019,0,0,1,2.989,0a2.685,2.685,0,0,1,.945.169,6.065,6.065,0,0,1,1.159.59c.379.248.87.58,1.459.988l12.3,8.131a6.874,6.874,0,0,1,1.826,1.51,2.017,2.017,0,0,1,.284,1.5,2.1,2.1,0,0,1-.834,1.4,1.864,1.864,0,0,1-.8.37,1.789,1.789,0,0,1-.289.024,1.664,1.664,0,0,1-.48-.071,4.365,4.365,0,0,1-.971-.482c-.418-.26-.758-.475-1.041-.66l-2.34-1.621L7.3,17.03l.751,2.885a10.22,10.22,0,0,1,.423,2.407,1.674,1.674,0,0,1-.781,1.291A1.888,1.888,0,0,1,6.537,24ZM3.838,4.441l2.514,9.212,5.077-3.8L3.838,4.441Z" transform="translate(142 159.933)" fill="#fff"/>
  <path id="Fill_20" data-name="Fill 20" d="M20.5,8.615l1.976,3.655a4.44,4.44,0,0,1,.489,1.243,2.145,2.145,0,0,1-.092,1.077,5.718,5.718,0,0,1-.6,1.217,17.6,17.6,0,0,1-2.53,3.2,15.066,15.066,0,0,1-3.189,2.35,12.578,12.578,0,0,1-4.3,1.53,9.269,9.269,0,0,1-4.087-.266,9.667,9.667,0,0,1-3.609-2.043,13.284,13.284,0,0,1-2.885-3.721A13.842,13.842,0,0,1,.132,12.42a9.71,9.71,0,0,1,.22-4.21,9.832,9.832,0,0,1,2.011-3.7A13.516,13.516,0,0,1,6.1,1.523,11.507,11.507,0,0,1,9.726.16,8.253,8.253,0,0,1,12.787.128a6.4,6.4,0,0,1,2.259.885,3.8,3.8,0,0,1,1.3,1.29,1.919,1.919,0,0,1,.142,1.539,2.06,2.06,0,0,1-.992,1.227,1.93,1.93,0,0,1-.89.245,2,2,0,0,1-.927-.192,17.1,17.1,0,0,0-2.1-1.025,4.3,4.3,0,0,0-1.829-.228,5.629,5.629,0,0,0-2.311.789,6.649,6.649,0,0,0-2.1,1.78A5.694,5.694,0,0,0,4.291,8.771a7.022,7.022,0,0,0,.04,2.783A10.93,10.93,0,0,0,5.468,14.6a8.742,8.742,0,0,0,4.3,4.315,5.889,5.889,0,0,0,5.2-.56,9.841,9.841,0,0,0,2.28-1.738,14.488,14.488,0,0,0,1.8-2.316l-1.673-3.1L14.44,12.849a3.623,3.623,0,0,1-1.778.574,1.32,1.32,0,0,1-1.14-.8,1.574,1.574,0,0,1-.116-1.308,2.049,2.049,0,0,1,1.006-1.108l4.3-2.415a6.2,6.2,0,0,1,1.417-.609,1.7,1.7,0,0,1,1.232.139A2.95,2.95,0,0,1,20.5,8.615" transform="translate(57 22.933)" fill="#fff"/>
  <path id="Fill_22" data-name="Fill 22" d="M4.642,23A1.821,1.821,0,0,1,3.4,22.549a3.019,3.019,0,0,1-.85-1.863L.062,4.391a2.849,2.849,0,0,1,.3-2.105,2.733,2.733,0,0,1,1.876-.934L9.088.266A21.046,21.046,0,0,1,11.532,0c.088,0,.175,0,.261,0a5.943,5.943,0,0,1,1.63.215,5.327,5.327,0,0,1,3.331,2.557A6.228,6.228,0,0,1,17.478,4.9a5.462,5.462,0,0,1-.733,3.993,7.657,7.657,0,0,1-3.67,2.638,7.794,7.794,0,0,1,2.415,1.453A18.287,18.287,0,0,1,17.7,15.215a19.156,19.156,0,0,1,1.616,2.214,4.907,4.907,0,0,1,.672,1.41,1.562,1.562,0,0,1-.136.872,1.884,1.884,0,0,1-.617.763,2.261,2.261,0,0,1-1.012.4,2.636,2.636,0,0,1-.41.034,1.865,1.865,0,0,1-.833-.184,3.272,3.272,0,0,1-.96-.728c-.278-.3-.663-.753-1.177-1.382l-2.124-2.593a15.9,15.9,0,0,0-1.989-2.141,4.062,4.062,0,0,0-1.626-.9,3.869,3.869,0,0,0-.89-.1A6.559,6.559,0,0,0,7.2,12.98l-1.474.234,1.039,6.8a2.928,2.928,0,0,1-.279,2.072,2.007,2.007,0,0,1-1.42.876A2.7,2.7,0,0,1,4.642,23ZM10.435,3.482A14.765,14.765,0,0,0,8.248,3.7l-3.884.616.889,5.821,3.771-.6a10.567,10.567,0,0,0,2.512-.672,3.044,3.044,0,0,0,1.441-1.161,2.7,2.7,0,0,0,.276-1.856,2.808,2.808,0,0,0-.677-1.483A2.7,2.7,0,0,0,11.2,3.556,3.242,3.242,0,0,0,10.435,3.482Z" transform="translate(83 15.933)" fill="#fff"/>
  <path id="Fill_24" data-name="Fill 24" d="M.281,12.226l1.8-10A2.81,2.81,0,0,1,3.014.41,2.036,2.036,0,0,1,4.67.039,2.06,2.06,0,0,1,6.139.952a2.777,2.777,0,0,1,.241,2.017L4.538,13.2a9.281,9.281,0,0,0-.127,2.985,3.394,3.394,0,0,0,1.084,2.06,5.311,5.311,0,0,0,2.72,1.137,4.384,4.384,0,0,0,3.8-.7,6.478,6.478,0,0,0,1.758-3.8L15.627,4.569a2.828,2.828,0,0,1,.925-1.822,2.04,2.04,0,0,1,1.662-.363,2.082,2.082,0,0,1,1.456.9,2.729,2.729,0,0,1,.254,2.026l-1.8,10A14.815,14.815,0,0,1,16.905,19.3a6.432,6.432,0,0,1-2.346,2.549,7.312,7.312,0,0,1-2.968,1.066,12.2,12.2,0,0,1-3.676-.139A15.251,15.251,0,0,1,3.8,21.532a6.813,6.813,0,0,1-2.591-2.1A6.484,6.484,0,0,1,.073,16.367a14.082,14.082,0,0,1,.209-4.14" transform="translate(108 14.933)" fill="#fff"/>
  <path id="Fill_26" data-name="Fill 26" d="M12.459,24a5.772,5.772,0,0,1-.6-.032,8.654,8.654,0,0,1-2.2-.6,22.607,22.607,0,0,1-2.611-1.3L1.466,18.865A2.68,2.68,0,0,1,.05,17.332,2.839,2.839,0,0,1,.515,15.3L8.335,1.5A2.771,2.771,0,0,1,9.855.058,1.665,1.665,0,0,1,10.3,0a3.272,3.272,0,0,1,1.573.507l5.917,3.388a15.993,15.993,0,0,1,2.175,1.462,5.6,5.6,0,0,1,1.364,1.61,5.281,5.281,0,0,1,.589,1.64,5.036,5.036,0,0,1,.014,1.75,5.129,5.129,0,0,1-.6,1.671,4.711,4.711,0,0,1-4.38,2.491c-.209,0-.426-.009-.646-.028a6.4,6.4,0,0,1,1.738,3.243,4.984,4.984,0,0,1-.679,3.3,5.807,5.807,0,0,1-2.357,2.325A5.4,5.4,0,0,1,12.459,24ZM7.543,11.547h0L4.506,16.907l3.974,2.276a6.047,6.047,0,0,0,2.879.947,2.67,2.67,0,0,0,2.41-1.518,2.574,2.574,0,0,0,.171-2.573,6.312,6.312,0,0,0-2.548-2.288l-3.85-2.2Zm4.2-7.413L9.055,8.879l3.389,1.94a7.828,7.828,0,0,0,2.286.96,2.327,2.327,0,0,0,1.72-.342,2.6,2.6,0,0,0,.978-1,2.116,2.116,0,0,0,.062-2.41,8.7,8.7,0,0,0-2.743-2.176Z" transform="translate(131 22.933)" fill="#fff"/>
  <path id="Fill_28" data-name="Fill 28" d="M7.441,7.257,10,0l2.559,7.257H20l-6.088,4.778L16.905,20,10,15.189,3.095,20l2.78-8.141L0,7.257Z" transform="translate(16 94.933)" fill="#fff"/>
  <path id="Fill_30" data-name="Fill 30" d="M7.441,7.257,10,0l2.559,7.257H20l-6.088,4.778L16.905,20,10,15.189,3.095,20l2.78-8.141L0,7.257Z" transform="translate(173 94.933)" fill="#fff"/>
</svg>
