<svg id="fast-food" xmlns="http://www.w3.org/2000/svg" width="59" height="61" viewBox="0 0 59 61">
  <path id="Path" d="M6.02,49.937A32.1,32.1,0,0,1,0,30.887C.113,13.511,13.574-.313,30.051.005,46.089.315,59,14.12,59,31.1a32.068,32.068,0,0,1-6.02,18.833.149.149,0,0,1-.154.06A106.3,106.3,0,0,0,29.5,47.481,106.277,106.277,0,0,0,6.179,50,.151.151,0,0,1,6.02,49.937Z" fill="#ea5569"/>
  <path id="Shape" d="M0,23V20.513A3.47,3.47,0,0,1,.7,18.43l2.054-2.736c2.352-3.135,3.434-7.371,3.6-13.336A2.518,2.518,0,0,1,8.951,0h30.1a2.517,2.517,0,0,1,2.593,2.359c.167,5.964,1.251,10.2,3.6,13.335L47.3,18.431a3.467,3.467,0,0,1,.7,2.082V23Z" transform="translate(6)" fill="#f9d19a"/>
  <path id="Path-2" data-name="Path" d="M3.255,20.513V23H0V20.513a3.832,3.832,0,0,1,.609-2.082l1.776-2.736C4.42,12.56,5.357,8.323,5.5,2.359A2.333,2.333,0,0,1,7.745,0H11A2.333,2.333,0,0,0,8.756,2.358C8.612,8.323,7.675,12.56,5.64,15.694L3.864,18.43A3.831,3.831,0,0,0,3.255,20.513Z" transform="translate(6)" fill="#f7c37d"/>
  <path id="Path-3" data-name="Path" d="M4.138,32.728A31.991,31.991,0,0,1,0,28.485V0H6V31.948a1.124,1.124,0,0,1-1.862.78Z" transform="translate(5 21)" fill="#f7e6b0"/>
  <path id="Path-4" data-name="Path" d="M44,26.558C37.7,34.448,29.868,38,20.129,38,12.382,38,5.358,35.514,0,30.5V0H44Z" transform="translate(9 23)" fill="#fdf7bd"/>
  <path id="Path-5" data-name="Path" d="M31,12c0,6.627-6.939,12-15.5,12S0,18.627,0,12,6.939,0,15.5,0,31,5.373,31,12Z" transform="translate(15 29)" fill="#f7e6b0"/>
  <path id="Shape-2" data-name="Shape" d="M2.9,21A3,3,0,0,1,0,17.912a1.8,1.8,0,0,1,1.737-1.853H20.264A1.8,1.8,0,0,1,22,17.912,3,3,0,0,1,19.105,21ZM1.592,8.647A1.232,1.232,0,0,1,.553,6.866,11.642,11.642,0,0,1,11,0,11.642,11.642,0,0,1,21.447,6.866a1.232,1.232,0,0,1-1.039,1.781Z" transform="translate(20 33)" fill="#f5b65d"/>
  <path id="Shape-3" data-name="Shape" d="M2.92,21A3.007,3.007,0,0,1,0,17.912a1.8,1.8,0,0,1,1.751-1.853H5.138a1.8,1.8,0,0,0-1.751,1.853A3.007,3.007,0,0,0,6.306,21ZM1.607,8.647A1.232,1.232,0,0,1,.558,6.866,11.745,11.745,0,0,1,11.1,0,11.183,11.183,0,0,1,13,.164,11.339,11.339,0,0,0,8.786,1.815a1.043,1.043,0,0,1,.44.861,1,1,0,0,1-.973,1.029.983.983,0,0,1-.94-.766A12.335,12.335,0,0,0,5.168,5.454a1.034,1.034,0,0,1,.554.929,1,1,0,0,1-.973,1.029.934.934,0,0,1-.54-.173,13.028,13.028,0,0,0-.523,1.409Zm8.009-3.5a.975.975,0,1,1,1.947,0,.975.975,0,1,1-1.947,0Z" transform="translate(17 33)" fill="#f4aa39"/>
  <path id="Path-6" data-name="Path" d="M22,2.1A1.894,1.894,0,0,1,20.214,4H1.786A1.893,1.893,0,0,1,0,2.1,1.9,1.9,0,0,1,1.736,0h2.24a.585.585,0,0,1,.539.621,1.325,1.325,0,0,0,.99,1.365A1.226,1.226,0,0,0,6.832.667V.621A.585.585,0,0,1,7.371,0H20.263A1.9,1.9,0,0,1,22,2.1Z" transform="translate(20 44)" fill="#f16b38"/>
  <path id="Path-7" data-name="Path" d="M6,4H2.1A2.065,2.065,0,0,1,0,2.1,2.021,2.021,0,0,1,2.045,0H4.683a.64.64,0,0,1,.377.124A2.1,2.1,0,0,0,3.955,2,2.023,2.023,0,0,0,6,4Z" transform="translate(17 44)" fill="#e55920"/>
</svg>
