<svg xmlns="http://www.w3.org/2000/svg" width="46.871" height="47.923" viewBox="0 0 46.871 47.923">
  <defs>
    <style>
      .cls-1 {
        fill: #7a8f41;
      }

      .cls-2 {
        fill: #f9d19a;
      }

      .cls-3 {
        fill: #f7c37d;
      }

      .cls-4 {
        fill: #f7e6b0;
      }

      .cls-5 {
        fill: #fdf7bd;
      }

      .cls-6 {
        fill: #f5b65d;
      }

      .cls-7 {
        fill: #f4aa39;
      }

      .cls-8 {
        fill: #f16b38;
      }

      .cls-9 {
        fill: #e55920;
      }
    </style>
  </defs>
  <g id="fast-food" transform="translate(0)">
    <path id="Path" class="cls-1" d="M4.783,37.625a23.435,23.435,0,1,1,37.306,0,.122.122,0,0,1-.122.045,88.85,88.85,0,0,0-18.531-1.9A88.835,88.835,0,0,0,4.909,37.669.123.123,0,0,1,4.783,37.625Z" transform="translate(0 1.052)"/>
    <path id="Shape" class="cls-2" d="M0,18.175V16.209a2.771,2.771,0,0,1,.546-1.645l1.6-2.162c1.828-2.478,2.67-5.825,2.8-10.538A1.97,1.97,0,0,1,6.957,0H30.348a1.971,1.971,0,0,1,2.016,1.864c.13,4.713.972,8.06,2.8,10.538l1.595,2.162a2.771,2.771,0,0,1,.546,1.645v1.966Z" transform="translate(4.783)"/>
    <path id="Path-2" data-name="Path" class="cls-3" d="M2.924,16.209v1.965H0V16.209a2.769,2.769,0,0,1,.547-1.645l1.6-2.162c1.828-2.477,2.67-5.825,2.8-10.538A1.97,1.97,0,0,1,6.957,0H9.881A1.97,1.97,0,0,0,7.866,1.864c-.13,4.713-.972,8.061-2.8,10.538l-1.6,2.162A2.769,2.769,0,0,0,2.924,16.209Z" transform="translate(4.783)"/>
    <path id="Path-3" data-name="Path" class="cls-4" d="M2.936,24.656A23.5,23.5,0,0,1,0,21.46V0H4.257V24.068a.791.791,0,0,1-1.321.588Z" transform="translate(4.783 17.218)"/>
    <path id="Path-4" data-name="Path" class="cls-5" d="M34.382,21.46c-4.926,6.376-11.043,9.246-18.653,9.246A22.107,22.107,0,0,1,0,24.645V0H34.382Z" transform="translate(7.707 17.218)"/>
    <path id="Path-5" data-name="Path" class="cls-4" d="M24.1,10.044c0,5.547-5.4,10.044-12.052,10.044S0,15.591,0,10.044,5.4,0,12.052,0,24.1,4.5,24.1,10.044Z" transform="translate(11.383 22.001)"/>
    <path id="Shape-2" data-name="Shape" class="cls-6" d="M2.391,16.261A2.391,2.391,0,0,1,0,13.87a1.434,1.434,0,0,1,1.435-1.435H16.74a1.434,1.434,0,0,1,1.435,1.435,2.392,2.392,0,0,1-2.391,2.391ZM1.316,6.7a.956.956,0,0,1-.86-1.379,9.663,9.663,0,0,1,17.261,0A.955.955,0,0,1,16.859,6.7Z" transform="translate(14.348 25.827)"/>
    <path id="Shape-3" data-name="Shape" class="cls-7" d="M2.391,16.261A2.391,2.391,0,0,1,0,13.87a1.434,1.434,0,0,1,1.435-1.435H4.208A1.434,1.434,0,0,0,2.774,13.87a2.392,2.392,0,0,0,2.392,2.391ZM1.316,6.7a.956.956,0,0,1-.86-1.379A9.663,9.663,0,0,1,10.648.127,9.588,9.588,0,0,0,7.2,1.406a.8.8,0,1,1-1.206.87A9.7,9.7,0,0,0,4.233,4.223a.8.8,0,1,1-.785,1.382A9.525,9.525,0,0,0,3.02,6.7Zm6.56-2.711a.8.8,0,1,1,.8.8A.8.8,0,0,1,7.876,3.985Z" transform="translate(14.348 25.827)"/>
    <path id="Path-6" data-name="Path" class="cls-8" d="M18.173,1.5A1.462,1.462,0,0,1,16.7,2.87H1.475A1.461,1.461,0,0,1,0,1.5,1.435,1.435,0,0,1,1.435,0h1.85A.445.445,0,0,1,3.73.446a.978.978,0,0,0,.818.98.957.957,0,0,0,1.1-.947V.446A.445.445,0,0,1,6.089,0H16.74a1.435,1.435,0,0,1,1.433,1.5Z" transform="translate(14.348 33.957)"/>
    <path id="Path-7" data-name="Path" class="cls-9" d="M4.209,2.87H1.475A1.461,1.461,0,0,1,0,1.5,1.435,1.435,0,0,1,1.435,0h1.85A.442.442,0,0,1,3.55.089a1.513,1.513,0,0,0-.776,1.346A1.435,1.435,0,0,0,4.209,2.87Z" transform="translate(14.348 33.957)"/>
  </g>
</svg>
