<svg xmlns="http://www.w3.org/2000/svg" xmlns:xlink="http://www.w3.org/1999/xlink" width="54.877" height="56.996" viewBox="0 0 54.877 56.996">
  <defs>
    <style>
      .cls-1 {
        fill: none;
      }

      .cls-2 {
        fill: #ed6775;
      }

      .cls-3 {
        fill: #228fd8;
      }

      .cls-4 {
        fill: #1e160d;
      }

      .cls-5 {
        fill: #0e598c;
      }

      .cls-6 {
        fill: #13659c;
      }

      .cls-7 {
        clip-path: url(#clip-path);
      }

      .cls-8 {
        fill: #fd001a;
      }

      .cls-9 {
        fill: #951623;
      }

      .cls-10 {
        fill: #e6c283;
      }

      .cls-11 {
        fill: #fff;
      }

      .cls-12 {
        fill: #fed8a7;
      }

      .cls-13 {
        clip-path: url(#clip-path-2);
      }

      .cls-14 {
        fill: url(#linear-gradient);
      }

      .cls-15 {
        fill: #e0a44c;
      }

      .cls-16 {
        fill: #b07d2c;
      }

      .cls-17 {
        fill: #cc9439;
      }

      .cls-18 {
        fill: #c62434;
      }

      .cls-19 {
        fill: #656565;
      }

      .cls-20 {
        fill: #747474;
      }

      .cls-21 {
        fill: #848484;
      }

      .cls-22 {
        fill: #93999e;
      }

      .cls-23 {
        fill: #60573a;
      }

      .cls-24 {
        fill: #0a2b38;
      }

      .cls-25 {
        fill: #6a707c;
      }

      .cls-26 {
        fill: #803a6f;
      }

      .cls-27 {
        fill: #401833;
      }

      .cls-28 {
        fill: #262262;
      }

      .cls-29 {
        fill: #9ed6f2;
      }

      .cls-30 {
        fill: #caebff;
      }

      .cls-31 {
        clip-path: url(#clip-path-3);
      }

      .cls-32 {
        fill: #993e25;
      }

      .cls-33 {
        fill: #8e3719;
      }

      .cls-34 {
        fill: #a8a8a8;
      }

      .cls-35 {
        fill: #ccc;
      }

      .cls-36 {
        clip-path: url(#clip-path-4);
      }

      .cls-37 {
        clip-path: url(#clip-path-5);
      }

      .cls-38 {
        fill: #264260;
      }

      .cls-39 {
        fill: #1f5d92;
      }

      .cls-40 {
        fill: #134870;
      }

      .cls-41 {
        fill: #102f49;
      }

      .cls-42 {
        fill: #be1e2d;
      }

      .cls-43 {
        fill: #08273a;
      }

      .cls-44 {
        fill: #0b2f49;
      }

      .cls-45 {
        fill: #092a42;
      }

      .cls-46 {
        fill: #454a71;
      }

      .cls-47 {
        fill: #676f95;
      }

      .cls-48 {
        fill: #082263;
      }

      .cls-49 {
        fill: #08a6de;
      }

      .cls-50 {
        fill: #ced3e0;
      }

      .cls-51 {
        fill: #f7941e;
      }

      .cls-52 {
        fill: #4be0ff;
      }

      .cls-53 {
        fill: #6b7ba1;
      }

      .cls-54 {
        fill: #00aeef;
      }

      .cls-55 {
        fill: #9cdafd;
      }

      .cls-56 {
        fill: #0d3659;
      }

      .cls-57 {
        fill: #084373;
      }
    </style>
    <clipPath id="clip-path">
      <path id="Clip_18" data-name="Clip 18" class="cls-1" d="M0,0H7.04V14.316H0Z" transform="translate(0.069 0.046)"/>
    </clipPath>
    <clipPath id="clip-path-2">
      <path id="Clip_32" data-name="Clip 32" class="cls-1" d="M.66.385a1.225,1.225,0,0,0-.644.835h0c-.116.173.442.546.585.612h0a2.515,2.515,0,0,0,.939.2h0a4.792,4.792,0,0,0,.609-.006h0a3.333,3.333,0,0,1,.446-.046h0c.309.029.311.391.365.607h0a2.983,2.983,0,0,1,.131.523h0c.007.088-.173,1.07-.015,1.1h0c.217.035,1.089-.865,1.149-1.369h0A2.376,2.376,0,0,0,3.59.314h0A1.791,1.791,0,0,0,2.465,0h0A5.053,5.053,0,0,0,.66.385" transform="translate(0.02 0.007)"/>
    </clipPath>
    <linearGradient id="linear-gradient" x1="1.006" y1="0.603" x2="0.003" y2="0.284" gradientUnits="objectBoundingBox">
      <stop offset="0" stop-color="#231f1f"/>
      <stop offset="1" stop-color="#231f1f"/>
    </linearGradient>
    <clipPath id="clip-path-3">
      <path id="Clip_161" data-name="Clip 161" class="cls-1" d="M0,0H2.87V5.332H0Z" transform="translate(0.085 0.091)"/>
    </clipPath>
    <clipPath id="clip-path-4">
      <path id="Clip_178" data-name="Clip 178" class="cls-1" d="M0,0H29.626V17.4H0Z" transform="translate(0 0.007)"/>
    </clipPath>
    <clipPath id="clip-path-5">
      <path id="Clip_181" data-name="Clip 181" class="cls-1" d="M0,0H29.626V16.457H0Z" transform="translate(0 0.007)"/>
    </clipPath>
  </defs>
  <g id="Group_282" data-name="Group 282" transform="translate(0 -0.091)">
    <g id="Group_30" data-name="Group 30" transform="translate(42.9 2.2)">
      <path id="Fill_1" data-name="Fill 1" class="cls-2" d="M2.954,2.676C2.389,4.423,1.066,7.5.435,7.3A2.25,2.25,0,0,1,.061,5.476c.469-1.3.44-2.6.793-3.688C1.42.041,1.96-.132,2.591.063s.928.866.363,2.613" transform="translate(3.522 3.923)"/>
      <path id="Fill_3" data-name="Fill 3" class="cls-3" d="M4.241,1.62c-1,1.354-3.2,3.538-3.674,3.193C.389,4.683-.185,4.318.06,3.843.445,3.1,2.047,1.709,3.038.278c.217-.313.61-.4,1.082-.056s.825.441.12,1.4" transform="translate(0.041 9.589)"/>
      <path id="Fill_5" data-name="Fill 5" class="cls-4" d="M3.447,0c.2.041.314.3.4.459a.63.63,0,0,1-.09.775c-.256.287-.775.287-.976.483a10.823,10.823,0,0,1-1.554.947c-.293.154-.94.171-1.141-.079A.816.816,0,0,1,.12,1.8,8.018,8.018,0,0,0,.9.971,2.9,2.9,0,0,0,1.317.528c.085-.109.4-.64.587-.507Z" transform="translate(4.247 28.084)"/>
      <path id="Fill_7" data-name="Fill 7" class="cls-5" d="M3.128,1.166c-.18.894-.1,1.8-.211,2.7C2.787,4.943,3,6.2,2.5,7.2a1.415,1.415,0,0,1-1.262.746C.881,7.918.118,7.814.169,7.575s-.15-.7-.139-.921C.052,6.236.043,3.746.013,2.944-.01,2.289,0,1.882.01,1.156c0,0-.16-1.352,1.453-1.132s1.69,1.013,1.664,1.142" transform="translate(5.684 15.213)"/>
      <path id="Fill_9" data-name="Fill 9" class="cls-5" d="M2.65,1.856A11.708,11.708,0,0,1,2.621.176C2.613-.3.048.214,0,1.361c0,0,.476,4.47.139,5.884l-.044.236a.346.346,0,0,0,.1.365,1.589,1.589,0,0,0,.578.283A1.511,1.511,0,0,0,2.134,7.86c.773-.809.817-4.062.516-6" transform="translate(5.736 20.509)"/>
      <path id="Fill_11" data-name="Fill 11" class="cls-4" d="M3.642,0c.2.04.314.3.4.459a.6.6,0,0,1-.09.775,8.9,8.9,0,0,0-.975.483,10.941,10.941,0,0,1-1.288.888,1.861,1.861,0,0,1-.67.27,1.077,1.077,0,0,1-.9-.285C-.028,2.41-.038,2.2.085,2.1a9.815,9.815,0,0,0,.884-1A4.756,4.756,0,0,0,1.511.528c.085-.109.4-.641.587-.507Z" transform="translate(7.591 29.839)"/>
      <path id="Fill_13" data-name="Fill 13" class="cls-6" d="M3.239,1.212c-.1.906.163,1.855.129,2.765-.04,1.08.283,2.318-.138,3.355a1.409,1.409,0,0,1-1.2.844c-.356,0-1.125-.044-1.094-.286S.733,7.206.725,6.982C.713,6.565.494,4.083.4,3.287A7.213,7.213,0,0,0,.007,1.4S-.181.01,1.447,0A1.738,1.738,0,0,1,3.239,1.212" transform="translate(7.632 16.137)"/>
      <path id="Fill_15" data-name="Fill 15" class="cls-6" d="M2.766,1.9A11.811,11.811,0,0,1,2.6.228C2.549-.244-.047,0,0,1.144c0,0,.932,4.892.715,6.328L.691,7.71a.347.347,0,0,0,.125.356,1.621,1.621,0,0,0,.6.236,1.509,1.509,0,0,0,1.339-.378c.7-.867.473-4.114.01-6.024" transform="translate(8.476 22.198)"/>
      <g id="Group_19" data-name="Group 19" transform="translate(4.784 3.709)">
        <path id="Clip_18-2" data-name="Clip 18" class="cls-1" d="M0,0H7.04V14.316H0Z" transform="translate(0.069 0.046)"/>
        <g id="Group_19-2" data-name="Group 19" class="cls-7">
          <path id="Fill_17" data-name="Fill 17" class="cls-8" d="M4.041.823A8.256,8.256,0,0,1,6.468,2.4,3.882,3.882,0,0,1,7.039,4.5c-.02.575-.83,4.068-.955,4.847A12.7,12.7,0,0,0,6.056,11.5c0,.488.154,1.944.108,2.181-.151.783-2.243.626-2.644.6C2.226,14.213.6,13.258.734,12.64A34.854,34.854,0,0,0,.811,5.079C.645,4.449-.617,1.21.379.349A1.822,1.822,0,0,1,1.456,0,8.8,8.8,0,0,1,4.041.823" transform="translate(0.069 0.046)"/>
        </g>
      </g>
      <path id="Fill_20" data-name="Fill 20" class="cls-9" d="M2.437.111a2.873,2.873,0,0,0-1.9.758c-.707.785-.513.663-.513.663l.5-.158a6.707,6.707,0,0,0,.184,2.04l2.223-1.02.151.894S4.615,1.629,4.411,1.2C3.921.172,2.7-.211,2.437.111" transform="translate(5.641 3.923)"/>
      <path id="Fill_22" data-name="Fill 22" class="cls-10" d="M1.025,0A1.615,1.615,0,0,0,.041,1.409a5.811,5.811,0,0,0,.077,1.91A17.235,17.235,0,0,1,2.284,1.526c.106-.077,1.177-.853,0-1.385Z" transform="translate(6.456 4.285)"/>
      <path id="Fill_24" data-name="Fill 24" class="cls-11" d="M2.263.819A3.512,3.512,0,0,1,.979.688,1.286,1.286,0,0,1,.243,0V0L.208.071v0C.2.1.185.121.175.145l0,0C.164.174.154.2.145.224l0,.009C.134.258.125.282.118.308c0,.005,0,.011,0,.016C.106.347.1.371.093.4L.087.423C.082.445.077.466.072.488S.066.519.064.534.057.568.054.585q-.008.05-.014.1A5.812,5.812,0,0,0,.118,2.6s0,0,0,0A18.957,18.957,0,0,1,2.263.819" transform="translate(6.456 5.007)"/>
      <path id="Fill_26" data-name="Fill 26" class="cls-10" d="M1.841,0a8.68,8.68,0,0,0-.015,1.373,5.037,5.037,0,0,1,.113.714c0,.462-.514.66-.775.791C.925,3-.054,2.678,0,2.352a5.943,5.943,0,0,1,.083-.909C.189,1.155.467,1,.467.7Z" transform="translate(7.209 2.709)"/>
      <path id="Fill_28" data-name="Fill 28" class="cls-12" d="M.119.545a3.1,3.1,0,0,1-.065.807c-.046.195.031.684-.043,1.2a2.419,2.419,0,0,0,.159.97c.07.247.1.538.333.69.565.379,1.208-.015,1.786-.2s.491-.994.675-1.454A1.816,1.816,0,0,0,2.135.181,2.535,2.535,0,0,0,.591.081C.441.135.107.254.119.545" transform="translate(6.257 0.045)"/>
    </g>
    <g id="Group_33" data-name="Group 33" transform="translate(48.4 2.2)">
      <path id="Clip_32-2" data-name="Clip 32" class="cls-1" d="M.66.385a1.225,1.225,0,0,0-.644.835h0c-.116.173.442.546.585.612h0a2.515,2.515,0,0,0,.939.2h0a4.792,4.792,0,0,0,.609-.006h0a3.333,3.333,0,0,1,.446-.046h0c.309.029.311.391.365.607h0a2.983,2.983,0,0,1,.131.523h0c.007.088-.173,1.07-.015,1.1h0c.217.035,1.089-.865,1.149-1.369h0A2.376,2.376,0,0,0,3.59.314h0A1.791,1.791,0,0,0,2.465,0h0A5.053,5.053,0,0,0,.66.385" transform="translate(0.02 0.007)"/>
      <g id="Group_33-2" data-name="Group 33" class="cls-13">
        <path id="Fill_31" data-name="Fill 31" class="cls-14" d="M.66.385a1.225,1.225,0,0,0-.644.835h0c-.116.173.442.546.585.612h0a2.515,2.515,0,0,0,.939.2h0a4.792,4.792,0,0,0,.609-.006h0a3.333,3.333,0,0,1,.446-.046h0c.309.029.311.391.365.607h0a2.983,2.983,0,0,1,.131.523h0c.007.088-.173,1.07-.015,1.1h0c.217.035,1.089-.865,1.149-1.369h0A2.376,2.376,0,0,0,3.59.314h0A1.791,1.791,0,0,0,2.465,0h0A5.053,5.053,0,0,0,.66.385" transform="translate(0.02 0.007)"/>
      </g>
    </g>
    <g id="Group_281" data-name="Group 281">
      <path id="Fill_34" data-name="Fill 34" class="cls-12" d="M.679.647c-.126.3-.338.5-.475.446A.505.505,0,0,1,.048.453c.125-.3.475-.5.611-.444s.146.339.02.638" transform="translate(51.895 4.563)"/>
      <path id="Fill_36" data-name="Fill 36" class="cls-15" d="M5.148,0,0,2.86,5.148,5.72,10.3,2.86Z" transform="translate(39.999 9.746)"/>
      <path id="Fill_38" data-name="Fill 38" class="cls-16" d="M0,2.86V8.58L5.149,5.72V0Z" transform="translate(45.148 12.606)"/>
      <path id="Fill_40" data-name="Fill 40" class="cls-17" d="M5.148,2.86V8.58L0,5.72V0Z" transform="translate(39.999 12.606)"/>
      <path id="Fill_42" data-name="Fill 42" class="cls-2" d="M3.009,2.686C2.433,4.44,1.086,7.525.443,7.329A2.234,2.234,0,0,1,.062,5.5c.478-1.3.449-2.606.808-3.7C1.447.041,2-.132,2.639.063s.945.869.37,2.623" transform="translate(51.562 8.646)"/>
      <path id="Fill_44" data-name="Fill 44" class="cls-2" d="M4.319,1.9C3.3,3.262,1.057,5.454.577,5.108c-.18-.13-.765-.5-.516-.973C.453,3.385,2.085,1.992,3.094.555,3.315.241,4.166-.224,4.646.123s.391.819-.327,1.78" transform="translate(48.017 14.057)"/>
      <path id="Fill_46" data-name="Fill 46" class="cls-12" d="M1.674.009A1.673,1.673,0,0,0,.832.224c-.209.1-.5.1-.586.35C.2.7.147.72.047.8S.03.987.149.985.366.985.429.9C.513.777.676.57.826.731s-.014.3-.089.444C.619,1.407.49,1.5.513,1.767c0,.137.264.185.406.007,0,.031-.057.079.014.118a.309.309,0,0,0,.4-.185c-.014.27.366.116.385-.1.1.162.38-.12.434-.218a2.082,2.082,0,0,0,.2-.727A.726.726,0,0,0,2.017.118,1.336,1.336,0,0,0,1.674.009" transform="translate(47.031 18.223)"/>
      <path id="Fill_48" data-name="Fill 48" class="cls-8" d="M0,1.338S.277.5.8.295A3.38,3.38,0,0,1,2.668.06a1.639,1.639,0,0,1,.966.909A2.091,2.091,0,0,1,3.739,2.1a.1.1,0,0,1-.035.088,2.559,2.559,0,0,1-1.743.662,8.324,8.324,0,0,0-.925-.156Z" transform="translate(49.48 1.377)"/>
      <path id="Fill_50" data-name="Fill 50" class="cls-18" d="M1.314.029s.118-.152.873.241C2.669.52,3.535,1.411,3.348,1.6a1.75,1.75,0,0,1-1.571.172C1.246,1.557,1.012.652.172.755-.432.829.7.142,1.27.029Z" transform="translate(48.21 2.686)"/>
      <path id="Fill_52" data-name="Fill 52" class="cls-12" d="M.969.475A3.409,3.409,0,0,1,.564.908,1.918,1.918,0,0,0,.4,1.134c-.069.1-.2.19-.242.289l-.152.162c-.063.348.426.462.7.309a1.853,1.853,0,0,0,.391-.286l.087-.018a.9.9,0,0,0,.412-.176c.179-.13.327-.275.5-.395A1.084,1.084,0,0,0,2.473.811c.053-.047.121-.119.073-.195A.1.1,0,0,0,2.43.583L2.441.576c.042-.025.233-.082.185-.2a.108.108,0,0,0-.05-.057C2.637.3,2.687.261,2.689.2,2.67.121,2.565.1,2.455.1A.1.1,0,0,0,2.431.047C2.374-.025,2.28.007,2.2.008a.8.8,0,0,0-.318.019c-.091.04-.18.1-.271.146a1.345,1.345,0,0,1-.2.028A.55.55,0,0,0,.969.475" transform="translate(36.842 17.207)"/>
      <path id="Fill_54" data-name="Fill 54" class="cls-12" d="M.725.121A1.075,1.075,0,0,0,.584.169.244.244,0,0,0,.445.232.557.557,0,0,0,.371.351a.516.516,0,0,1-.116.11C.082.6-.183,1.017.186,1.073.4,1.1.466.91.52.749.557.641.536.483.623.4.693.329.809.329.866.24.9.189.94-.014.828,0,.789.006.752.068.723.093.67.138.6.146.548.188Z" transform="translate(37.486 17.151)"/>
      <path id="Fill_56" data-name="Fill 56" class="cls-12" d="M2.072,1.521c-.079.062-.155.129-.231.194s-.151.14-.233.2L1.59,1.93a5.092,5.092,0,0,1-1,.764L0,2.1a3.919,3.919,0,0,1,.157-.785A.631.631,0,0,1,.3.965,3.535,3.535,0,0,1,.636.673C.749.593.816.446.93.364S1.213.2,1.253.4C1.277.513,1.065.683,1,.756A1.264,1.264,0,0,0,.85.985c.036.01.073.021.109.034A.785.785,0,0,0,1.127.893C1.186.851,1.241.807,1.3.764S1.473.679,1.508.6a2.529,2.529,0,0,1,.257-.53c.05-.069.2-.109.229.012a.348.348,0,0,1-.032.176c-.017.062-.024.125-.038.188L1.915.477c.026-.048.049-.1.071-.14C2.023.258,2.073.1,2.165.059,2.292,0,2.37.1,2.354.223a.48.48,0,0,1-.028.1A.318.318,0,0,1,2.365.3c.03-.017.107-.03.137.01s0,.107-.008.134c-.018.072-.041.143-.056.216a.543.543,0,0,1-.074.191C2.41.817,2.479.77,2.514.817c.016.021,0,.081-.005.106a.245.245,0,0,1-.048.112,2.443,2.443,0,0,1-.218.341,1.057,1.057,0,0,1-.171.145" transform="translate(42.807 20.398)"/>
      <path id="Fill_58" data-name="Fill 58" class="cls-4" d="M.165.655a5.31,5.31,0,0,0-.139,1.6.671.671,0,0,0,.716.366c.393-.043.69-.462.974-.513a11.19,11.19,0,0,0,1.7-.717c.3-.149.686-.661.586-.964a.872.872,0,0,0-.7-.42A8.619,8.619,0,0,1,2.151.17a3.064,3.064,0,0,1-.617.081C1.392.258.757.21.763.438Z" transform="translate(33.457 40.016)"/>
      <path id="Fill_60" data-name="Fill 60" class="cls-19" d="M0,1.354c.165.9.067,1.8.161,2.708C.275,5.136.029,6.392.523,7.4a1.437,1.437,0,0,0,1.266.768c.361-.023,1.136-.113,1.089-.353s.166-.7.159-.919c-.014-.417.045-2.908.091-3.708.037-.655.032-1.062.038-1.787A1.232,1.232,0,0,0,1.674.016C.033.2-.02,1.224,0,1.354" transform="translate(33.18 27.168)"/>
      <path id="Fill_62" data-name="Fill 62" class="cls-19" d="M.31,1.848A11.6,11.6,0,0,0,.372.169C.389-.3,2.982.255,3.008,1.4c0,0-.57,4.461-.256,5.881l.041.237a1.291,1.291,0,0,1-.762.931c-.493.27-1.494.4-1.709,0-.495-.923-.356-4.668-.012-6.6" transform="translate(33.184 32.877)"/>
      <path id="Fill_64" data-name="Fill 64" class="cls-4" d="M.307.88A2.235,2.235,0,0,0,.06,2.4a.589.589,0,0,0,.73.339c.145-.034.672-.488.953-.548A11.379,11.379,0,0,0,3.22,1.6a1.855,1.855,0,0,0,.6-.41A1,1,0,0,0,4.057.3C3.977.081,3.8-.036,3.645.01a10.664,10.664,0,0,1-1.361.2,5.224,5.224,0,0,1-.8.143C1.347.36.71.336.725.563Z" transform="translate(36.323 41.465)"/>
      <path id="Fill_66" data-name="Fill 66" class="cls-20" d="M.009,2.159C.218,3.047.058,4.02.2,4.92.36,5.989.176,7.255.719,8.24a1.445,1.445,0,0,0,1.3.71c.359-.039.993-.169,1.071-.4a3.055,3.055,0,0,0,.113-.925c-.035-.416-.1-2.906-.092-3.709A18.406,18.406,0,0,0,2.9.615S2.963-.142,1.319.024C-.052.162-.021,2.03.009,2.159" transform="translate(35.46 27.532)"/>
      <path id="Fill_68" data-name="Fill 68" class="cls-20" d="M.088,1.993A11.663,11.663,0,0,0,.068.313C.062-.162,2.708-.2,2.79.944c0,0-.451,4.712-.068,6.115l.052.235a.593.593,0,0,1-.035.532,1.119,1.119,0,0,1-.68.536C1.606,8.479.624,8.53.515,8.092a19.541,19.541,0,0,1-.427-6.1" transform="translate(35.808 34.654)"/>
      <path id="Fill_70" data-name="Fill 70" class="cls-19" d="M.332,1.917C-.022,3.656-.237,5.5.452,5.771c.235.093,1.007.409,1.1-.153.219-1.315.886-2.4,1.108-3.488.355-1.739.263-1.978-.4-2.1S.687.178.332,1.917" transform="translate(31.844 16.716)"/>
      <path id="Fill_72" data-name="Fill 72" class="cls-21" d="M4.084.925a4.12,4.12,0,0,1,1.627,1.21,3.646,3.646,0,0,1,.416,2.023c-.057.545-.27,5.812-.269,6.313,0,.992.11,1.949.059,2.084-.446,1.152-2.4.621-2.786.575C1.887,12.98.1,12.033.2,11.439a45.769,45.769,0,0,0,.13-6.5C.212,4.329-.4,1.485.429.37A1.056,1.056,0,0,1,1.317,0a12.7,12.7,0,0,1,2.767.92" transform="translate(32.752 16.707)"/>
      <path id="Fill_74" data-name="Fill 74" class="cls-22" d="M.331,2.708A28.927,28.927,0,0,0,1.759,6.96c.528.937,1.215.891,1.51.8a.73.73,0,0,0,.441-.979c-.5-1.3-.868-3.9-1.246-5C1.858.029,1.3-.136.661.069S-.274.955.331,2.708" transform="translate(36.898 18.748)"/>
      <path id="Fill_76" data-name="Fill 76" class="cls-12" d="M2.776.43a4.274,4.274,0,0,0,.27.91.51.51,0,0,1-.013.419,1.077,1.077,0,0,0-.017.758,1.8,1.8,0,0,1-.113.951c-.072.242-.111.527-.339.674A2,2,0,0,1,.783,4.1C.216,3.907.311,2.937.134,2.484A1.772,1.772,0,0,1,.988.165,2.557,2.557,0,0,1,2.527.086c.149.055.249.344.249.344" transform="translate(34.854 12.632)"/>
      <path id="Fill_78" data-name="Fill 78" class="cls-12" d="M2.367.991s-.4,1.167-.155,1.493c.1.126-.393.405-.85.414C.636,2.913-.2,2.534.044,1.955A2.307,2.307,0,0,0,.3.075c-.07-.4,2.063.916,2.063.916" transform="translate(34.476 15.37)"/>
      <path id="Fill_80" data-name="Fill 80" class="cls-23" d="M.991.387A2.116,2.116,0,0,1,3.626.528a1.433,1.433,0,0,1,.338.829c.1.166-.382.143-.5.815-.6,3.46-2.279,2.216-2.334,2.091C.7,3.279.412,3.5.212,2.913A1.826,1.826,0,0,1,.991.387" transform="translate(33.722 11.889)"/>
      <path id="Fill_82" data-name="Fill 82" class="cls-12" d="M.078.7c.122.3.192.585.33.533A.508.508,0,0,0,.573.595C.451.293.383,0,.235,0-.044-.005-.045.4.078.7" transform="translate(36.544 14.668)"/>
      <path id="Fill_84" data-name="Fill 84" class="cls-22" d="M1.865,3.931c.945-.7,3.346-2.89,2.967-3.343C4.524.22,4.219-.1,3.925.029,3.373.27,1.526,2.04.514,2.721c-.221.149-.762.284-.383.736s1.065.966,1.734.473" transform="translate(38.683 22.395)"/>
      <path id="Fill_86" data-name="Fill 86" class="cls-22" d="M.125.4A.531.531,0,0,0,.013.861a1.3,1.3,0,0,0,.369.607A2.768,2.768,0,0,0,2,1.906a2.525,2.525,0,0,0,1.071-.433,1.492,1.492,0,0,1,.456-.05A4.163,4.163,0,0,0,2.66.749c-.089-.036-.186.059-.209.078a1.1,1.1,0,0,1-.395.257A1.1,1.1,0,0,1,1.074.906C.468.5.672.285.678.021.474-.085.259.231.125.4" transform="translate(34.119 16.658)"/>
      <path id="Fill_88" data-name="Fill 88" class="cls-24" d="M.865.481V4.137L0,3.656V0Z" transform="translate(4.067 11.171)"/>
      <path id="Fill_90" data-name="Fill 90" d="M.865,0V3.656L0,4.137V.481Z" transform="translate(4.932 11.168)"/>
      <path id="Fill_92" data-name="Fill 92" class="cls-24" d="M.865.481V4.137L0,3.656V0Z" transform="translate(4.067 13.057)"/>
      <path id="Fill_94" data-name="Fill 94" d="M.865,0V3.656L0,4.137V.481Z" transform="translate(4.932 13.054)"/>
      <path id="Fill_96" data-name="Fill 96" class="cls-25" d="M.865.961,0,.48.865,0l.865.48Z" transform="translate(4.067 10.687)"/>
      <path id="Fill_98" data-name="Fill 98" class="cls-24" d="M3.391.21A3.327,3.327,0,0,0,1.053,2.663c-.187.835-2.245,8.208-.045,9.569s5.822-1.168,6.04-2.283C7.5,7.625,7.051-1.489,3.391.21" transform="translate(1.335 2.711)"/>
      <path id="Fill_100" data-name="Fill 100" class="cls-24" d="M0,.36l.547-.3A.224.224,0,0,1,.579.035c.213-.119.56.074.776.431s.219.743.006.862l-.594.324L.351.958l.006,0Z" transform="translate(5.724 24.447)"/>
      <path id="Fill_102" data-name="Fill 102" d="M.939,1.328C.728,1.447.38,1.254.164.9S-.055.154.157.035s.56.074.776.431.219.743.006.862" transform="translate(5.58 24.758)"/>
      <path id="Fill_104" data-name="Fill 104" class="cls-24" d="M0,.36l.547-.3A.256.256,0,0,1,.578.035c.213-.119.56.074.776.431s.219.743.006.862l-.593.324L.351.958l.006,0Z" transform="translate(11.459 21.242)"/>
      <path id="Fill_106" data-name="Fill 106" d="M.94,1.328C.727,1.447.38,1.254.164.9S-.055.154.158.035s.56.074.776.431.219.743.006.862" transform="translate(11.315 21.553)"/>
      <path id="Fill_108" data-name="Fill 108" class="cls-24" d="M0,.36l.548-.3A.251.251,0,0,1,.579.035c.213-.119.56.074.776.431s.218.743.006.862l-.594.323L.351.958l.006,0Z" transform="translate(5.755 21.331)"/>
      <path id="Fill_110" data-name="Fill 110" d="M.939,1.328C.727,1.447.38,1.254.164.9S-.055.154.158.035s.56.074.776.431.219.743.006.862" transform="translate(5.612 21.641)"/>
      <path id="Fill_112" data-name="Fill 112" class="cls-24" d="M0,.36l.547-.3A.268.268,0,0,1,.579.035c.212-.119.56.074.776.431s.219.743.006.862l-.593.324L.351.958l.006,0Z" transform="translate(11.456 24.395)"/>
      <path id="Fill_114" data-name="Fill 114" d="M.94,1.328C.727,1.447.38,1.254.163.9S-.055.154.157.035s.56.074.776.431.219.743.006.862" transform="translate(11.312 24.706)"/>
      <path id="Fill_116" data-name="Fill 116" d="M0,3.739V3.244L6.912,0V.495L.536,4.036Z" transform="translate(5.868 20.921)"/>
      <path id="Fill_118" data-name="Fill 118" d="M6.911,3.739V3.244L0,0V.495L6.375,4.036Z" transform="translate(5.91 20.921)"/>
      <path id="Fill_120" data-name="Fill 120" class="cls-24" d="M0,3.542,6.376,0l.536.3L.536,3.839Z" transform="translate(5.868 20.623)"/>
      <path id="Fill_122" data-name="Fill 122" class="cls-24" d="M6.911,3.542.536,0,0,.3,6.375,3.839Z" transform="translate(5.91 20.623)"/>
      <path id="Fill_124" data-name="Fill 124" d="M0,4.981H0V0H.963V4.981c0,.146-.215.265-.481.266S0,5.13,0,4.984v0" transform="translate(8.918 17.878)"/>
      <path id="Fill_126" data-name="Fill 126" d="M11.817,2.524s1.62.949.319,1.914c-1.274.945-4.677,3.338-6.767,2.744A18.53,18.53,0,0,1,.142,4.351c-.27-.3-.242-.764.846-1.535.779-.552,4.578-2.565,4.8-2.64A2.513,2.513,0,0,1,8.141.428c1.352.683,4.129,2.421,4.129,2.421Z" transform="translate(2.31 13.94)"/>
      <path id="Fill_128" data-name="Fill 128" class="cls-26" d="M.147.634C.223.593.3.546.371.5A.419.419,0,0,1,.388.148C.42.041.47.052.46.015S.345.022.314.011A1.291,1.291,0,0,0,0,.043Z" transform="translate(10.456 27.283)"/>
      <path id="Fill_130" data-name="Fill 130" class="cls-12" d="M1.027.009S6.56,3.427,6.994,3.765s.27,1.242-.594,1.442S.123,3.02.129,2.34s-.638-2.483.9-2.331" transform="translate(5.592 14.966)"/>
      <path id="Fill_132" data-name="Fill 132" class="cls-12" d="M.511,0a1.452,1.452,0,0,1-.1,1.034,4.788,4.788,0,0,0-.4,1.857A17.082,17.082,0,0,1,.12,6.4c-.161.5-.192.672.112.7s.882.2.874-.023a25.19,25.19,0,0,1,.62-3.068c.339-1.129.281-3.129.5-3.228Z" transform="translate(10.438 18.983)"/>
      <path id="Fill_134" data-name="Fill 134" class="cls-12" d="M.5.01C-.561.431.439,1.3.173,1.957c.027.139.273.168.383.2.041-.3,0-.855.438-.359.3.344.1.66.527.933a3.431,3.431,0,0,0,1.772.2c.2-.077-.545-.817-.711-.977a4.023,4.023,0,0,1-.7-1.07C1.752.694,1.435.369,1.479,0Z" transform="translate(10.054 25.709)"/>
      <path id="Fill_136" data-name="Fill 136" class="cls-12" d="M.974,0S6.689,3.131,7.141,3.447s.338,1.226-.514,1.471S.238,3.055.207,2.376-.569-.07.974,0" transform="translate(7.423 13.784)"/>
      <path id="Fill_138" data-name="Fill 138" class="cls-12" d="M.241,0a1.454,1.454,0,0,1,0,1.038A4.789,4.789,0,0,0,.018,2.922,17,17,0,0,1,.447,6.4c-.114.508-.129.686.178.69s.9.122.868-.1a25.08,25.08,0,0,1,.331-3.109C2.056,2.733,1.811.746,2.018.629Z" transform="translate(12.795 17.333)"/>
      <path id="Fill_140" data-name="Fill 140" class="cls-12" d="M.5.01C-.561.431.439,1.3.174,1.957c.026.139.31.217.419.248.042-.3-.036-.9.4-.408.3.344.1.66.527.933a3.426,3.426,0,0,0,1.7.5c.2-.077-.475-1.11-.641-1.27a4.023,4.023,0,0,1-.7-1.07C1.752.694,1.435.369,1.479,0Z" transform="translate(12.814 23.836)"/>
      <path id="Fill_142" data-name="Fill 142" class="cls-27" d="M.173,1.889C.427,1.266-.475.439.371,0A.808.808,0,0,0,.213.667c.029.285.562.847.663.947a3.643,3.643,0,0,0,.735.641c.2.079.714.275,1.029.058.166-.16.106-.236-.032-.4.2.209.877.878.685.951a3.431,3.431,0,0,1-1.772-.2c-.43-.273-.224-.589-.527-.933-.438-.5-.4.109-.445.412C.44,2.111.2,2.028.173,1.889" transform="translate(10.054 25.776)"/>
      <path id="Fill_144" data-name="Fill 144" class="cls-27" d="M.173,1.889C.427,1.266-.476.439.371,0A.8.8,0,0,0,.214.667c.028.285.561.847.663.947a3.636,3.636,0,0,0,.735.641c.2.079.714.275,1.029.058.166-.159.106-.236-.032-.4.2.209.807,1.171.616,1.245a3.433,3.433,0,0,1-1.7-.5c-.431-.273-.223-.589-.527-.933-.438-.5-.36.086-.4.39C.483,2.088.2,2.028.173,1.889" transform="translate(12.814 23.922)"/>
      <path id="Fill_146" data-name="Fill 146" class="cls-28" d="M5.774,6.624A2.6,2.6,0,0,1,6.885,4.464a11.325,11.325,0,0,0,1.277-.3c.527-.325.656-.812,1.48-.675.625.1-3.62-2.519-4.253-2.829C3.2-.408.876-.154.342,1.242c-.633,1.653-.412,2.64.88,3.377.929.53,4.523,1.572,4.552,2.13s0-.125,0-.125" transform="translate(4.622 13.561)"/>
      <path id="Fill_148" data-name="Fill 148" class="cls-29" d="M.462,1.842A18.322,18.322,0,0,0,2.609,5.509,1,1,0,0,0,3.736,5.6c.5-.26-.988-3.21-1.62-4.386S.9-.159.391.1-.17.666.462,1.842" transform="translate(7.285 5.718)"/>
      <path id="Fill_150" data-name="Fill 150" class="cls-30" d="M.741,3.235C.536,2.781-.143,2.4.027,1.887A4.688,4.688,0,0,1,1.867.223,4.5,4.5,0,0,1,3.682,0a1.933,1.933,0,0,1,.628.069A6.618,6.618,0,0,1,5.678,2.524,1.554,1.554,0,0,1,5.2,4.075a5.94,5.94,0,0,0-.325,4.019c.177.538-.13.912-.725,1.173-2.035.894-3.8.552-3.316-.674a5.031,5.031,0,0,0,0-2.874c-.254-1.241.1-2.048-.1-2.483" transform="translate(4.33 5.569)"/>
      <path id="Fill_152" data-name="Fill 152" class="cls-11" d="M.712.121A1.26,1.26,0,0,0,.264,1.97c.473.668.629.693.629.693s-.1-.512.078-.53,1.4.222,1.4.222a8.428,8.428,0,0,0,.264-.835c.034-.185.413.059.413.059C3,1.334,1.877-.48.712.121" transform="translate(5.579 5.102)"/>
      <path id="Fill_154" data-name="Fill 154" class="cls-11" d="M.5,1.69A17.793,17.793,0,0,0,.035,5.874c.08.537.68.684.861.707.568.071,1.135-3.165,1.331-4.475S2.4.078,1.83.007.7.379.5,1.69" transform="translate(3.161 7.163)"/>
      <path id="Fill_156" data-name="Fill 156" class="cls-10" d="M1.56.185a2.824,2.824,0,0,1,.322,1.486A8.461,8.461,0,0,1,.344,1.062.777.777,0,0,1,.006.59c-.067-.356.474-.3.705-.4.36-.158.642-.349.882.048Z" transform="translate(6.065 5.786)"/>
      <path id="Fill_158" data-name="Fill 158" class="cls-10" d="M1.267.285c.053.109-.023.283-.029.423a2.439,2.439,0,0,0,.086.6c.039.2.134.414,0,.563a1.083,1.083,0,0,1-1.165.014c-.39-.354.048-.856.154-1.227C.358.5.284.2.4.09c.324-.316.873.291,1.01.49Z" transform="translate(5.979 4.563)"/>
      <g id="Group_162" data-name="Group 162" transform="translate(3.726)">
        <path id="Clip_161-2" data-name="Clip 161" class="cls-1" d="M0,0H2.87V5.332H0Z" transform="translate(0.085 0.091)"/>
        <g id="Group_162-2" data-name="Group 162" class="cls-31">
          <path id="Fill_160" data-name="Fill 160" class="cls-32" d="M2.87.638c-.254-.83-1.436-.662-1.8-.522A1.86,1.86,0,0,0,.158,1.952a4.123,4.123,0,0,0,.375,1.1,1.366,1.366,0,0,1,.159.854.829.829,0,0,1-.328.514.754.754,0,0,0-.327.3c-.129.291.117.512.372.605A.424.424,0,0,1,.4,4.865a1.757,1.757,0,0,1,.64-.345A.983.983,0,0,0,1.6,4a1.536,1.536,0,0,0,.087-.4,3.891,3.891,0,0,1,.025-.754Z" transform="translate(0.085 0.091)"/>
        </g>
      </g>
      <path id="Fill_163" data-name="Fill 163" class="cls-12" d="M.128.407C.482-.227,1.379.053,2.122.115s1,.344,1.11,1.674a.459.459,0,0,1-.062.22h0c-.159.287.044.572.024.9a4.725,4.725,0,0,1-.375,1.126c-.072.2-.067.259-.3.293a1.525,1.525,0,0,1-.632-.067A2.623,2.623,0,0,1,.789,3.786a2.1,2.1,0,0,1-.446-1.1C.2,2.056-.2,1,.128.407" transform="translate(5.665 1.285)"/>
      <path id="Fill_165" data-name="Fill 165" class="cls-33" d="M3.78.924A2.114,2.114,0,0,0,1.315.1,1.945,1.945,0,0,0,.052,1.472,1.7,1.7,0,0,0,.631,3.15c.121.116.257.226.389.33a1.341,1.341,0,0,1,.261.324c-.063-.519-.33-1.9.352-2.643a1.176,1.176,0,0,0,.622.217,3.521,3.521,0,0,0,.7-.148,1.138,1.138,0,0,1,.545.048,1.507,1.507,0,0,1,.419.232c.07-.115-.08-.487-.144-.586" transform="translate(4.845 0.671)"/>
      <path id="Fill_167" data-name="Fill 167" class="cls-12" d="M.5.317c.146.227.182.46.082.52S.284.761.138.534-.044.074.057.014s.3.076.446.3" transform="translate(5.579 3.452)"/>
      <path id="Fill_169" data-name="Fill 169" class="cls-34" d="M0,10.954V0L9.327,5.181v11.1l-.672.369Z" transform="translate(19.22 10.539)"/>
      <path id="Fill_171" data-name="Fill 171" class="cls-35" d="M0,10.954V0L9.326,5.181V16.135Z" transform="translate(18.549 11.049)"/>
      <path id="Fill_173" data-name="Fill 173" class="cls-34" d="M0,2.605V15.549L.633,15.2,4.69,12.944V0Z" transform="translate(11.038 21.092)"/>
      <path id="Fill_175" data-name="Fill 175" class="cls-35" d="M0,14.243V0L9.326,5.181V19.424Z" transform="translate(1.712 17.217)"/>
      <g id="Group_179" data-name="Group 179" transform="translate(0 7.998)">
        <path id="Clip_178-2" data-name="Clip 178" class="cls-1" d="M0,0H29.626V17.4H0Z" transform="translate(0 0.007)"/>
        <g id="Group_179-2" data-name="Group 179" class="cls-36">
          <path id="Fill_177" data-name="Fill 177" class="cls-34" d="M12.476,17.4l17.15-9.527V6.931L17.149,0,0,9.527v.946Z" transform="translate(0 0.007)"/>
        </g>
      </g>
      <g id="Group_182" data-name="Group 182" transform="translate(0 7.998)">
        <path id="Clip_181-2" data-name="Clip 181" class="cls-1" d="M0,0H29.626V16.457H0Z" transform="translate(0 0.007)"/>
        <g id="Group_182-2" data-name="Group 182" class="cls-37">
          <path id="Fill_180" data-name="Fill 180" class="cls-35" d="M12.476,16.457l17.15-9.526L17.149,0,0,9.527Z" transform="translate(0 0.007)"/>
        </g>
      </g>
      <path id="Fill_183" data-name="Fill 183" d="M2.18,1.2C.978,1.2.005.661,0,0V.327c.012.658.983,1.192,2.18,1.2S4.367.992,4.37.327V.008c0,.665-.983,1.2-2.189,1.2" transform="translate(16.346 16.124)"/>
      <path id="Fill_185" data-name="Fill 185" d="M.072.065v0Z" transform="translate(20.644 16.058)"/>
      <path id="Fill_187" data-name="Fill 187" class="cls-24" d="M4.37,1.211C4.373.547,3.4,0,2.189,0S0,.532,0,1.2.974,2.4,2.181,2.408s2.187-.532,2.189-1.2" transform="translate(16.346 14.92)"/>
      <path id="Fill_189" data-name="Fill 189" d="M7.025,0,0,3.478v.274L2.828,5.323l7.025-3.9V1.147Z" transform="translate(7.483 10.65)"/>
      <path id="Fill_191" data-name="Fill 191" class="cls-38" d="M7.025,0,0,3.9l.382.212L2.828,5.473l7.025-3.9Z" transform="translate(7.483 10.226)"/>
      <path id="Fill_193" data-name="Fill 193" class="cls-29" d="M.6,0C.881-.063,3.11.739,4.54.715c.576-.01.522,1.036.246,1.229S2.9,1.7,1.14,1.537C.367,1.466-.679.312.6,0" transform="translate(9.639 10.175)"/>
      <path id="Fill_195" data-name="Fill 195" class="cls-38" d="M0,4.67,8.407,0l.418.232V7.027L.418,11.7,0,11.466Z" transform="translate(12.529 5.332)"/>
      <path id="Fill_197" data-name="Fill 197" d="M0,4.67,8.407,0V6.795L0,11.465Z" transform="translate(12.947 5.564)"/>
      <path id="Fill_199" data-name="Fill 199" class="cls-24" d="M.812,0,0,.469A9.093,9.093,0,0,1,1.614,4.334l.812-.466S2.335-.115.812,0" transform="translate(16.905 12.167)"/>
      <path id="Fill_201" data-name="Fill 201" d="M0,0V.658S.861.88.747,3.38l.867.488S1.524-.115,0,0" transform="translate(16.905 12.634)"/>
      <path id="Fill_203" data-name="Fill 203" class="cls-11" d="M.767.009c.267-.1,2.49.757,3.9.539.569-.088.668.954.424,1.183s-1.9.188-3.669.092C-.2,1.735-.455.487.767.009" transform="translate(3.456 12.107)"/>
      <path id="Fill_205" data-name="Fill 205" class="cls-12" d="M.186.808A.452.452,0,0,1,.038.287C.111.161.4-.066.632.018A10.5,10.5,0,0,1,1.708.353a1.843,1.843,0,0,1,.239.1A.725.725,0,0,1,2.221.8a3.122,3.122,0,0,1,.207.338c.033.1.035.218.076.313a2.516,2.516,0,0,0,.1.235.5.5,0,0,1,.038.147.182.182,0,0,1-.154.03c-.029.049.008.03.019.084s.036.109-.011.127a.186.186,0,0,1-.219-.08c.005.027.024.049.027.077a.21.21,0,0,1-.286-.043c-.052-.055-.183-.278-.236-.338a1.178,1.178,0,0,0-.354-.237c.043.055.086.115.137.183.119.157.268.136.212.364-.437.015-.578-.392-.889-.642C.546,1.345.428,1,.186.808" transform="translate(7.923 12.765)"/>
      <path id="Fill_207" data-name="Fill 207" class="cls-39" d="M2.582.716C2.584.323,2.007,0,1.294,0S0,.314,0,.707s.575.713,1.289.716S2.581,1.109,2.582.716" transform="translate(10.021 19.474)"/>
      <path id="Fill_209" data-name="Fill 209" class="cls-39" d="M0,2.3H2.582V0H0Z" transform="translate(10.021 17.882)"/>
      <path id="Fill_211" data-name="Fill 211" class="cls-40" d="M2.582.716C2.584.323,2.007,0,1.294,0S0,.314,0,.707s.575.713,1.289.716S2.581,1.109,2.582.716" transform="translate(10.021 17.166)"/>
      <path id="Fill_212" data-name="Fill 212" class="cls-41" d="M1.061.97c.6,0,1.05-.255,1.051-.482,0-.1-.094-.216-.259-.308A1.7,1.7,0,0,0,1.057,0H1.05C.45,0,0,.254,0,.482S.45.968,1.054.97Z" transform="translate(10.256 17.392)"/>
      <path id="Fill_213" data-name="Fill 213" class="cls-41" d="M.868,0H.875a1.7,1.7,0,0,1,.8.181c.165.092.259.2.259.308,0,.227-.45.482-1.051.482H.872A1.856,1.856,0,0,1,.243.865L0,.224A1.591,1.591,0,0,1,.868,0" transform="translate(10.439 17.392)"/>
      <path id="Fill_214" data-name="Fill 214" class="cls-41" d="M0,.115A.217.217,0,0,1,.037,0L.178.373A.348.348,0,0,1,0,.115" transform="translate(10.256 17.759)"/>
      <path id="Fill_215" data-name="Fill 215" class="cls-42" d="M.062.005A.1.1,0,0,1,.182.06l.4,1.066.243.641a1.1,1.1,0,0,1-.248-.125L.441,1.269.006.122A.089.089,0,0,1,.062.005" transform="translate(9.852 16.49)"/>
      <path id="Fill_216" data-name="Fill 216" d="M.089,0a.093.093,0,0,1,.1.085L.267,1.349l.059.963q-.071.005-.145.005H.139l-.06-.968L0,.1A.092.092,0,0,1,.089,0" transform="translate(11.135 16.046)"/>
      <path id="Fill_217" data-name="Fill 217" class="cls-41" d="M.18.069c.165.092.259.2.259.308C.438.516.269.665,0,.76L.031,0A1.1,1.1,0,0,1,.18.069" transform="translate(11.93 17.505)"/>
      <path id="Fill_218" data-name="Fill 218" class="cls-41" d="M0,0A1.96,1.96,0,0,1,.372.053L.336.924A1.891,1.891,0,0,1,.059.963Z" transform="translate(11.403 17.395)"/>
      <path id="Fill_219" data-name="Fill 219" d="M.036,1.27.084.087A.092.092,0,0,1,.182,0a.091.091,0,0,1,.09.094L.222,1.327l-.031.76A1.626,1.626,0,0,1,0,2.141Z" transform="translate(11.739 16.178)"/>
      <path id="Fill_220" data-name="Fill 220" class="cls-34" d="M9.964,13.67V0L0,4.131V18.465l.67.367Z" transform="translate(24.17 38.255)"/>
      <path id="Fill_221" data-name="Fill 221" class="cls-35" d="M9.294,14.193V0L0,5.162V19.355Z" transform="translate(24.84 37.732)"/>
      <path id="Fill_222" data-name="Fill 222" class="cls-4" d="M.177,1.089A3.6,3.6,0,0,0,.028,2.452a.732.732,0,0,0,.78.4c.427-.047.751-.5,1.059-.558a12.148,12.148,0,0,0,1.853-.78c.327-.163.747-.72.639-1.049A.95.95,0,0,0,3.6,0a9.338,9.338,0,0,1-1.26.18A3.341,3.341,0,0,1,1.67.274C1.516.281.824.229.83.477Z" transform="translate(14.615 49.714)"/>
      <path id="Fill_223" data-name="Fill 223" class="cls-43" d="M.247,2.012A12.651,12.651,0,0,0,.314.184c.019-.516,2.842.093,2.87,1.343,0,0-.621,4.856-.279,6.4l.045.258a.374.374,0,0,1-.113.4,1.779,1.779,0,0,1-.645.3,1.688,1.688,0,0,1-1.5-.321c-.837-.9-.816-4.438-.442-6.544" transform="translate(14.227 42.696)"/>
      <path id="Fill_224" data-name="Fill 224" class="cls-24" d="M0,.358l.545-.3A.286.286,0,0,1,.576.035c.212-.118.558.074.773.43s.218.74.006.859l-.591.322L.35.954l.006,0Z" transform="translate(9.043 55.301)"/>
      <path id="Fill_225" data-name="Fill 225" d="M.936,1.323C.725,1.441.378,1.25.163.894S-.055.153.157.035.715.108.93.464s.218.74.006.859" transform="translate(8.899 55.61)"/>
      <path id="Fill_226" data-name="Fill 226" class="cls-24" d="M0,.359l.545-.3A.289.289,0,0,1,.576.035c.212-.119.558.074.773.429s.218.74.006.859l-.591.322L.35.954l.006,0Z" transform="translate(14.758 52.107)"/>
      <path id="Fill_227" data-name="Fill 227" d="M.936,1.323C.725,1.442.378,1.249.163.894S-.055.154.157.035.715.109.93.464s.218.74.006.859" transform="translate(14.615 52.416)"/>
      <path id="Fill_228" data-name="Fill 228" class="cls-24" d="M0,.359l.545-.3A.22.22,0,0,1,.577.035c.212-.119.558.074.773.429s.218.741.006.859l-.591.322L.35.954l.006,0Z" transform="translate(9.074 52.195)"/>
      <path id="Fill_229" data-name="Fill 229" d="M.936,1.324C.724,1.442.378,1.25.163.894S-.055.154.157.035.715.109.93.465s.218.74.006.859" transform="translate(8.931 52.504)"/>
      <path id="Fill_230" data-name="Fill 230" class="cls-24" d="M0,.358l.545-.3L.576.035c.212-.118.558.074.773.43s.218.74.007.859l-.591.323L.35.955l.006,0Z" transform="translate(14.755 55.248)"/>
      <path id="Fill_231" data-name="Fill 231" d="M.936,1.323C.725,1.442.378,1.25.163.894S-.055.153.157.035.715.109.93.464s.218.741.006.859" transform="translate(14.611 55.558)"/>
      <path id="Fill_232" data-name="Fill 232" d="M0,3.726V3.232L6.887,0V.493L.534,4.022Z" transform="translate(9.187 51.787)"/>
      <path id="Fill_233" data-name="Fill 233" d="M6.887,3.726V3.232L0,0V.493L6.353,4.022Z" transform="translate(9.228 51.787)"/>
      <path id="Fill_234" data-name="Fill 234" class="cls-24" d="M0,3.529,6.353,0l.534.3L.534,3.826Z" transform="translate(9.187 51.49)"/>
      <path id="Fill_235" data-name="Fill 235" class="cls-24" d="M6.887,3.529.534,0,0,.3,6.353,3.826Z" transform="translate(9.228 51.49)"/>
      <path id="Fill_236" data-name="Fill 236" d="M0,4.964H0V0H.959V4.964h0c0,.146-.214.265-.478.265S0,5.112,0,4.966Z" transform="translate(12.226 48.754)"/>
      <path id="Fill_237" data-name="Fill 237" class="cls-4" d="M.334.957A2.435,2.435,0,0,0,.065,2.615a.64.64,0,0,0,.795.37c.158-.036.73-.53,1.037-.6a12.378,12.378,0,0,0,1.608-.642A2.038,2.038,0,0,0,4.159,1.3,1.1,1.1,0,0,0,4.416.324C4.328.088,4.138-.04,3.968.011A11.662,11.662,0,0,1,2.487.223,5.69,5.69,0,0,1,1.62.38,12.568,12.568,0,0,0,.334.957" transform="translate(17.554 52.046)"/>
      <path id="Fill_238" data-name="Fill 238" class="cls-44" d="M.1,2.153A12.641,12.641,0,0,0,.074.323C.067-.193,2.906-.188,3,1.059c0,0-.449,5.08-.032,6.608l.057.256s.17.5-.016.674a2.239,2.239,0,0,1-.762.488c-.493.128-1.562.184-1.681-.293A21.263,21.263,0,0,1,.1,2.153" transform="translate(16.993 44.581)"/>
      <path id="Fill_239" data-name="Fill 239" d="M12.228,2.839s1.614.946.318,1.907C11.277,5.687,7.885,8.072,5.8,7.48A21.589,21.589,0,0,1,.142,4.336c-.269-.3-.241-.762.843-1.53C1.762,2.256,5.547.25,5.765.176A2.506,2.506,0,0,1,8.113.426c1.347.681,4.114,2.413,4.114,2.413" transform="translate(5.641 44.83)"/>
      <path id="Fill_240" data-name="Fill 240" class="cls-45" d="M2.418,6.847c.668-.756,1.524-1.3,2.25-2.008C5.529,4,6.794,3.331,7.331,2.233A1.455,1.455,0,0,0,7.123.678C6.853.4,6.236-.161,6.06.044s-.721.348-.911.509c-.354.3-2.567,1.98-3.3,2.5C1.255,3.476.9,3.763.267,4.26c0,0-.84.363.462,1.557s1.593,1.139,1.689,1.03" transform="translate(9.453 42.19)"/>
      <path id="Fill_241" data-name="Fill 241" class="cls-44" d="M3.1,6.441A21.635,21.635,0,0,0,5.856,4.658c.936-.757,2.259-1.316,2.9-2.363A1.454,1.454,0,0,0,8.693.728a2.136,2.136,0,0,0-1-.725,1.429,1.429,0,0,0-.955.427C6.358.7,4,2.178,3.22,2.631A21.668,21.668,0,0,0,.167,4.712s-.594.772.459,1.269A3.922,3.922,0,0,0,3.1,6.441" transform="translate(11.036 44.029)"/>
      <path id="Fill_242" data-name="Fill 242" class="cls-44" d="M.9.027C.436-.156-.029.647,0,.97c.084.883,1.753,1.946,2.485,2.313a6.838,6.838,0,0,0,2.679.764,2.1,2.1,0,0,0,1.248-.656A3.808,3.808,0,0,0,6,.774a1.943,1.943,0,0,0-.48-.507Z" transform="translate(8.399 46.592)"/>
      <path id="Fill_243" data-name="Fill 243" class="cls-34" d="M17.089,17.342,0,7.849V6.906L12.432,0,29.522,9.493v.943Z" transform="translate(6.318 28.552)"/>
      <path id="Fill_244" data-name="Fill 244" class="cls-35" d="M17.089,16.4,0,6.906,12.432,0,29.522,9.493Z" transform="translate(6.318 28.552)"/>
      <path id="Fill_245" data-name="Fill 245" class="cls-11" d="M4.049,0,7.075,1.681,3.026,3.931,0,2.249Z" transform="translate(27.393 36.388)"/>
      <path id="Fill_246" data-name="Fill 246" class="cls-46" d="M0,4.991,6.351,8.519l.3-.081,1.505-4.9L1.76,0,1.489.045Z" transform="translate(19.318 29.293)"/>
      <path id="Fill_247" data-name="Fill 247" class="cls-47" d="M0,4.946,6.351,8.474,7.839,3.528,1.489,0Z" transform="translate(19.318 29.337)"/>
      <path id="Fill_248" data-name="Fill 248" class="cls-48" d="M7.287,3.3,1.354,0,0,4.5,5.933,7.8Z" transform="translate(19.594 29.677)"/>
      <path id="Fill_249" data-name="Fill 249" class="cls-49" d="M5.933,3.663,0,.367.111,0,6.043,3.3Z" transform="translate(19.594 33.81)"/>
      <path id="Fill_250" data-name="Fill 250" class="cls-50" d="M3.7,1.674.688,0,0,2.286,3.013,3.959Z" transform="translate(20.386 30.036)"/>
      <path id="Fill_251" data-name="Fill 251" class="cls-51" d="M1.925.871.358,0,0,1.188l1.567.87Z" transform="translate(20.691 32.523)"/>
      <path id="Fill_252" data-name="Fill 252" class="cls-52" d="M.114,0l.3.168L.3.544,0,.377Z" transform="translate(26.161 33.008)"/>
      <path id="Fill_253" data-name="Fill 253" class="cls-11" d="M.114,0l.3.168L.3.544,0,.377Z" transform="translate(25.984 33.537)"/>
      <path id="Fill_254" data-name="Fill 254" class="cls-53" d="M1.148,2.876,0,2.239.674,0,1.822.638Z" transform="translate(23.395 32.468)"/>
      <path id="Fill_255" data-name="Fill 255" class="cls-54" d="M1.261.338.609,2.5,0,2.165.652,0Z" transform="translate(24.741 34.485)"/>
      <path id="Fill_256" data-name="Fill 256" class="cls-46" d="M6.351,6.445,0,2.917V2.566L4.62,0l6.35,3.528v.35Z" transform="translate(14.685 34.27)"/>
      <path id="Fill_257" data-name="Fill 257" class="cls-47" d="M6.351,6.094,0,2.566,4.62,0l6.35,3.528Z" transform="translate(14.685 34.27)"/>
      <path id="Fill_258" data-name="Fill 258" class="cls-46" d="M8.112,3.271,5.889,4.507,0,1.235,2.224,0Z" transform="translate(16.994 34.549)"/>
      <path id="Fill_259" data-name="Fill 259" class="cls-46" d="M1.695,1.7,0,.756,1.362,0,3.057.942Z" transform="translate(17.781 37.241)"/>
      <path id="Fill_260" data-name="Fill 260" class="cls-12" d="M.638,2.374c-.133,0-.218-.113-.293-.212L.305,2.11l-.06-.071c-.139-.162-.329-.383-.2-.559a.965.965,0,0,1,.3-.2A1.417,1.417,0,0,0,.579,1.13,2.46,2.46,0,0,0,.812.873a2.67,2.67,0,0,1,.378-.4A.1.1,0,0,1,1.224.453.85.85,0,0,1,1.466.29c.047-.026.087-.048.1-.06a.649.649,0,0,1,.166-.1c.067-.023.134-.05.2-.076l.1-.04A.226.226,0,0,1,2.114,0,.547.547,0,0,1,2.25.024a.733.733,0,0,0,.115.023H2.4c.068,0,.194,0,.195.064.029.007.052.011.074.014a.4.4,0,0,0,.053,0c.055,0,.131,0,.15.038a.055.055,0,0,1,0,.031c.028.008.056.02.085.032A.713.713,0,0,0,3.08.271a.057.057,0,0,1,.039.022.1.1,0,0,1,0,.073c-.006.023-.07.069-.1.084l.07.02.035.011c.042.013.065.031.069.054C3.2.577,3.14.624,3.1.648a.3.3,0,0,1-.166.04A.612.612,0,0,1,2.783.667.225.225,0,0,0,2.726.656a.146.146,0,0,0-.068.024.913.913,0,0,1-.116.048L2.509.739C2.461.756,2.455.77,2.44.81l0,.012A1.225,1.225,0,0,1,2.374.96a.553.553,0,0,1-.108.127c-.017.016-.033.032-.049.049l-.01.012a.673.673,0,0,1,.011.144l.062-.016A1.926,1.926,0,0,1,2.716,1.2h.042a.282.282,0,0,1,.208.1.116.116,0,0,1,.015.1,5.133,5.133,0,0,0-.867.343l-.166.077a2.5,2.5,0,0,1-.565.15L1.271,2c-.25.109-.485.226-.514.337l-.076.034A.254.254,0,0,1,.638,2.374Z" transform="translate(13.288 36.591)"/>
      <path id="Fill_261" data-name="Fill 261" class="cls-12" d="M.045,1.359c.2-.039.437-.648.562-.826S.845.077,1.053.018A1.119,1.119,0,0,1,2.128.561c.164.442-.578.769-.839,1.023-.121.117-.257.425-.386.5C.685,2.215.421,1.935.26,1.8c-.118-.1-.295-.2-.255-.374Z" transform="translate(19.579 38.52)"/>
      <path id="Fill_262" data-name="Fill 262" class="cls-12" d="M.142.9C.437.566.94.515.986.03c-.226-.1-.225.061-.4.157A1.227,1.227,0,0,0,0,.65Z" transform="translate(21.515 38.433)"/>
      <path id="Fill_263" data-name="Fill 263" class="cls-12" d="M0,1.918C.119,1.683.156,1.256.308.98A5.932,5.932,0,0,0,.791,0c.118-.031.2.1.2.224A4.948,4.948,0,0,1,.839.909Z" transform="translate(19.894 37.778)"/>
      <path id="Fill_264" data-name="Fill 264" class="cls-12" d="M0,1.027A.654.654,0,0,0,.17.783,2.139,2.139,0,0,1,.3.524.564.564,0,0,1,.6.263,2.971,2.971,0,0,1,.973.108C1.081.09,1.2.108,1.3.082A2.578,2.578,0,0,0,1.558.016.488.488,0,0,1,1.713,0c.02.041.039.124.01.162.046.038.032,0,.088,0s.116-.019.129.033A.186.186,0,0,1,1.83.4.671.671,0,0,1,1.913.387a.214.214,0,0,1-.082.286c-.063.043-.309.141-.378.185a1.3,1.3,0,0,0-.309.349,1.043,1.043,0,0,1-.311.221c-.058.036-.252.116-.269.181Z" transform="translate(20.73 37.548)"/>
      <path id="Fill_265" data-name="Fill 265" class="cls-43" d="M.536,2.24C.138,4.131-.353,6.612.37,6.753c.271.053,1.364.135,1.469-.476.248-1.43.981-2.608,1.229-3.791C3.467.6,3.033.164,2.31.023S.934.349.536,2.24" transform="translate(7.714 34.696)"/>
      <path id="Fill_266" data-name="Fill 266" class="cls-55" d="M1.5,3.359C3.308,2.872,6.446,1.485,6.256.88,6.184.653,6.012-.061,5.417,0c-.934.1-3,1.186-4.889,1.638-.412.1-.653.461-.462,1.065s.159,1,1.437.652" transform="translate(7.802 38.09)"/>
      <path id="Fill_267" data-name="Fill 267" class="cls-56" d="M4.446,1.007A4.479,4.479,0,0,1,6.216,2.324a3.973,3.973,0,0,1,.453,2.2c-.062.594-.378,6.43-.231,6.956.229.822.393,2.236-.743,2.662a4.541,4.541,0,0,1-2.287.148C2.054,14.129.1,13.1.219,12.452A49.764,49.764,0,0,0,.362,5.375C.231,4.712-.44,1.616.467.4a1.15,1.15,0,0,1,.967-.4,13.8,13.8,0,0,1,3.012,1" transform="translate(8.734 34.717)"/>
      <path id="Fill_268" data-name="Fill 268" class="cls-57" d="M.322,3.194C.951,5.362,1.661,8.268,2.412,8.083c.282-.07,1.491-.565,1.266-1.255-.526-1.614-.463-3.189-.857-4.544C2.193.116,1.559-.136.808.05S-.308,1.027.322,3.194" transform="translate(13.224 36.831)"/>
      <path id="Fill_269" data-name="Fill 269" class="cls-12" d="M3.022.468a4.7,4.7,0,0,0,.294.99.551.551,0,0,1-.014.456,1.177,1.177,0,0,0-.019.826A1.96,1.96,0,0,1,3.16,3.774c-.079.263-.121.574-.37.733A2.177,2.177,0,0,1,.853,4.461C.235,4.253.339,3.2.146,2.7A1.929,1.929,0,0,1,1.076.18,2.784,2.784,0,0,1,2.75.094c.163.06-.226.205-.377.374Z" transform="translate(11.021 30.281)"/>
      <path id="Fill_270" data-name="Fill 270" class="cls-12" d="M2.576,1.079S2.139,2.348,2.408,2.7c.1.137-.428.44-.925.45-.79.016-1.7-.4-1.435-1.027A2.509,2.509,0,0,0,.33.081c-.075-.432,2.246,1,2.246,1" transform="translate(10.609 33.262)"/>
      <path id="Fill_271" data-name="Fill 271" class="cls-23" d="M1.079.421A2.3,2.3,0,0,1,3.947.575a1.563,1.563,0,0,1,.368.9c.108.181-.417.156-.543.887-.65,3.766-2.481,2.411-2.54,2.276-.47-1.072-.784-.826-1-1.47A1.987,1.987,0,0,1,1.079.421" transform="translate(9.789 29.471)"/>
      <path id="Fill_272" data-name="Fill 272" class="cls-12" d="M.085.764c.133.329.209.637.359.581a.553.553,0,0,0,.18-.7C.49.319.417,0,.256,0c-.3-.006-.3.436-.171.764" transform="translate(12.861 32.497)"/>
      <path id="Fill_273" data-name="Fill 273" class="cls-57" d="M.075.376a.791.791,0,0,0,.3,1,2.067,2.067,0,0,0,1.093.546A7.924,7.924,0,0,0,3.324,1.55a3.718,3.718,0,0,1,.522-.036c-.263-.245-.555-.241-.82-.605-.042-.057-.2-.268-.276-.285-.121-.029-.006.14-.1.224a1.082,1.082,0,0,1-.426.215A1.513,1.513,0,0,1,.892.872.754.754,0,0,1,.71,0C.331.24.192.188.075.376" transform="translate(10.242 34.717)"/>
      <path id="Fill_274" data-name="Fill 274" class="cls-12" d="M.045,1.359c.2-.039.437-.648.562-.826S.845.077,1.053.018A1.119,1.119,0,0,1,2.128.561c.164.442-.578.769-.839,1.023-.121.117-.257.425-.386.5C.685,2.215.421,1.935.26,1.8c-.118-.1-.295-.2-.255-.374Z" transform="translate(19.579 38.52)"/>
      <path id="Fill_275" data-name="Fill 275" class="cls-57" d="M2.5,5.332C3.991,4.141,6.3,1.439,5.81.8,5.626.556,5.1-.221,4.558.061,3.712.5,2.276,2.482.692,3.66c-.346.257-.9.269-.61,1.052a1.517,1.517,0,0,0,2.421.62" transform="translate(14.813 39.491)"/>
      <path id="Fill_276" data-name="Fill 276" class="cls-12" d="M0,1.786C.119,1.55.053,1.256.206.98A5.931,5.931,0,0,0,.688,0c.118-.031.2.1.2.224A4.969,4.969,0,0,1,.737.909Z" transform="translate(19.997 37.778)"/>
      <path id="Fill_277" data-name="Fill 277" class="cls-12" d="M0,1.027A.654.654,0,0,0,.17.783,2.139,2.139,0,0,1,.3.524.564.564,0,0,1,.6.263,2.971,2.971,0,0,1,.973.108C1.081.09,1.2.108,1.3.082A2.578,2.578,0,0,0,1.558.016.488.488,0,0,1,1.713,0c.02.041.039.124.01.162.046.038.032,0,.088,0s.116-.019.129.033A.186.186,0,0,1,1.83.4.671.671,0,0,1,1.913.387a.214.214,0,0,1-.082.286c-.063.043-.309.141-.378.185a1.3,1.3,0,0,0-.309.349,1.043,1.043,0,0,1-.311.221c-.058.036-.252.116-.269.181Z" transform="translate(20.73 37.548)"/>
      <path id="Fill_278" data-name="Fill 278" class="cls-24" d="M.862.479V4.122L0,3.643V0Z" transform="translate(7.968 46.461)"/>
      <path id="Fill_279" data-name="Fill 279" d="M.5,0V3.643L0,3.921V.277Z" transform="translate(8.831 46.66)"/>
      <path id="Fill_280" data-name="Fill 280" class="cls-4" d="M3.789.209A3.315,3.315,0,0,1,6.118,2.654c.186.832,2.238,8.179.045,9.536S.361,11.025.145,9.914C-.307,7.6.141-1.484,3.789.209" transform="translate(5.836 35.943)"/>
    </g>
  </g>
</svg>
