<svg id="Order_Lunch_Or_Dinner_Icon" data-name="Order Lunch Or Dinner Icon" xmlns="http://www.w3.org/2000/svg" width="51.95" height="47.152" viewBox="0 0 51.95 47.152">
  <defs>
    <style>
      .cls-1 {
        fill: #e9f1d7;
      }

      .cls-2 {
        fill: #f9f6f6;
      }

      .cls-3 {
        fill: #e29d7b;
      }

      .cls-4 {
        fill: #ffd772;
      }

      .cls-5 {
        fill: #fbc7b8;
      }

      .cls-6 {
        fill: #fbb49e;
      }

      .cls-7 {
        fill: #e5e4ed;
      }

      .cls-8 {
        fill: #fbba58;
      }

      .cls-9 {
        fill: #ce8b6b;
      }

      .cls-10 {
        fill: #f37c7c;
      }

      .cls-11 {
        fill: #ee6161;
      }

      .cls-12 {
        fill: #365e7d;
      }

      .cls-13 {
        fill: #2b4d66;
      }
    </style>
  </defs>
  <path id="Fill_1" data-name="Fill 1" class="cls-1" d="M33.389,1.747c-3.139,1.7-5.657,4.341-8.125,6.931s-5,5.219-8.148,6.9c-2.686,1.433-5.7,2.109-8.533,3.219s-5.374,2.367-7.166,5.289A11.8,11.8,0,0,0,.054,28.811a14.279,14.279,0,0,0,1.081,6.636,11.684,11.684,0,0,0,6.147,6,24.078,24.078,0,0,0,8.546,1.813,52.949,52.949,0,0,0,11.667-.6,34.735,34.735,0,0,0,9.9-3.005,26.221,26.221,0,0,0,12.4-13.3,26.725,26.725,0,0,0,.953-18.316,11.552,11.552,0,0,0-4.676-6.584A9.129,9.129,0,0,0,42.792.191,14.353,14.353,0,0,0,38.6.117a13.626,13.626,0,0,0-5.208,1.63"/>
  <g id="ramen" transform="translate(8.593 14.062)">
    <path id="Path" class="cls-2" d="M.623,7.427,4.947,8.71,9.261,7.427a3.869,3.869,0,0,0-.047-1.363,4.647,4.647,0,0,0-.526-1.358,7.7,7.7,0,0,0-.883-1.2C6.084,1.529,2.908-.733,1.218.228-.441,1.174-.162,4.934.623,7.427Z" transform="translate(1.19 8.442)"/>
    <path id="Path-2" data-name="Path" class="cls-3" d="M5.751,2.208,4.409,2.174l-3.989-.1A.4.4,0,0,1,0,1.728V0H5.241c.661.071,1,.281,1.1.59.135.4-.126.969-.593,1.618Z" transform="translate(9.343 2.852)"/>
    <path id="Path-3" data-name="Path" class="cls-3" d="M1.51,2.451,15.4,2.8a.385.385,0,0,0,.419-.348V0H.522A1.408,1.408,0,0,0,.994,2.44Z" transform="translate(23.274 2.852)"/>
    <path id="Path-4" data-name="Path" class="cls-3" d="M29.754.349V2.8H0V1.073A.393.393,0,0,1,.419.725L29.335,0A.386.386,0,0,1,29.754.349Z" transform="translate(9.343 0.05)"/>
    <path id="Path-5" data-name="Path" class="cls-4" d="M.08,2.545H3.891a1.986,1.986,0,1,0-3.811,0Z" transform="translate(4.206 13.325)"/>
    <path id="Path-6" data-name="Path" class="cls-2" d="M5.209,7.915c.067-.4.743-.435,1.021-.9C7.7,4.548,5.642,2.841,5.68.759c0-.185-.448-.363-.424-.537A1.738,1.738,0,0,0,4.75.032C3.156-.287,1.283,1.865.121,3.992c-.506.85.709,3.923,1.258,3.923l2,1.282Z" transform="translate(8.875 7.954)"/>
    <path id="Path-7" data-name="Path" class="cls-5" d="M7.131,9.2l7.312,1.372L21.758,9.2a13.019,13.019,0,0,0,7.131-7.411L15.052,0,0,1.784A13.02,13.02,0,0,0,7.131,9.2Z" transform="translate(2.185 21.15)"/>
    <path id="Path-8" data-name="Path" class="cls-3" d="M8.842,4.445l-4.91,1.55L.38,4.445c-.835-1.5-.2-2.027.97-3.741Q1.585.592,1.823.5A6.951,6.951,0,0,1,3.564.045h0A5.677,5.677,0,0,1,6.3.364q.211.08.415.18a3.442,3.442,0,0,1,2.125,3.9Z" transform="translate(22.917 11.425)"/>
    <path id="Path-9" data-name="Path" class="cls-6" d="M3.14,7.411A13.019,13.019,0,0,0,10.271,0H7.131A13.027,13.027,0,0,1,0,7.411Z" transform="translate(20.803 22.935)"/>
    <path id="Path-10" data-name="Path" class="cls-7" d="M7.214,3.5C5.492,1.529,2.317-.733.627.228A1.822,1.822,0,0,0,0,.839C1.759.44,4.549,2.485,6.123,4.294a7.589,7.589,0,0,1,.883,1.2,4.763,4.763,0,0,1,.526,1.36,4.009,4.009,0,0,1,.078.573H8.67a3.869,3.869,0,0,0-.047-1.363A4.647,4.647,0,0,0,8.1,4.707,7.7,7.7,0,0,0,7.214,3.5Z" transform="translate(1.782 8.442)"/>
    <path id="Shape" class="cls-7" d="M1.225,7.853h0A2.154,2.154,0,0,0,.569,6.08,3.671,3.671,0,0,0,.522,2.472,5.341,5.341,0,0,1,0,.357C0,.266,0,.168.01.05A1.893,1.893,0,0,1,.432,0,1.645,1.645,0,0,1,.754.032a1.752,1.752,0,0,1,.507.19,3.317,3.317,0,0,0-.034.4c0,.029,0,.056,0,.082s0,.04,0,.06a5.336,5.336,0,0,0,.522,2.116,3.651,3.651,0,0,1-.035,3.747A3.744,3.744,0,0,0,1.225,7.853Z" transform="translate(12.871 7.954)"/>
    <path id="Path-11" data-name="Path" class="cls-8" d="M3.365,1A1.987,1.987,0,0,0,0,.865,1.987,1.987,0,0,1,2.522,2.545H3.546A1.97,1.97,0,0,0,3.365,1Z" transform="translate(4.551 13.325)"/>
    <path id="Path-12" data-name="Path" class="cls-9" d="M3.635,4.373A3.442,3.442,0,0,0,1.51.473q-.2-.1-.415-.181A5.36,5.36,0,0,0,0,0,4.024,4.024,0,0,1,1.985,4.373h1.65Z" transform="translate(28.124 11.496)"/>
    <path id="Path-13" data-name="Path" class="cls-4" d="M.047,2.38H3.679A2.114,2.114,0,0,0,2.121.045,1.9,1.9,0,0,0,0,1.017,3.869,3.869,0,0,1,.047,2.38Z" transform="translate(10.405 13.489)"/>
    <path id="Path-14" data-name="Path" class="cls-8" d="M2.964,2.38A2.137,2.137,0,0,0,2.319.545,1.838,1.838,0,0,0,1.4.045,1.926,1.926,0,0,0,0,.262C.183.251,1.648,1.415,1.626,2.38Z" transform="translate(11.121 13.489)"/>
    <path id="Path-15" data-name="Path" class="cls-10" d="M.814,5.515H29.7a12.783,12.783,0,0,0,.814-4.5L16.087,0,0,1.017a12.783,12.783,0,0,0,.814,4.5Z" transform="translate(1.371 17.419)"/>
    <path id="Path-16" data-name="Path" class="cls-11" d="M3.14,4.5A12.783,12.783,0,0,0,3.954,0H.812A12.832,12.832,0,0,1,0,4.5Z" transform="translate(27.934 18.436)"/>
    <path id="Path-17" data-name="Path" class="cls-12" d="M10.452,0H1.282a1.283,1.283,0,0,0,0,2.567h30.7a1.283,1.283,0,0,0,0-2.567H10.452Z" transform="translate(0 15.869)"/>
    <path id="Path-18" data-name="Path" class="cls-13" d="M4.422,1.282A1.287,1.287,0,0,0,3.14,0H0A1.287,1.287,0,0,1,1.282,1.282,1.287,1.287,0,0,1,0,2.567H3.14A1.287,1.287,0,0,0,4.422,1.282Z" transform="translate(28.838 15.869)"/>
    <path id="Path-19" data-name="Path" class="cls-4" d="M0,13.017H3.037a3.687,3.687,0,0,1,.5-1.294c1.467-2.464-.526-3.778-.488-5.863C3.013,3.778,5.006,2.462,3.539,0H.5C1.837,2.244.3,3.535.047,5.323a3.278,3.278,0,0,0-.033.395c0,.049,0,.1,0,.143-.04,2.085,1.956,3.4.486,5.863A3.723,3.723,0,0,0,0,13.017Z" transform="translate(14.084 2.852)"/>
    <path id="Path-20" data-name="Path" class="cls-4" d="M0,13.017H3.773a3.722,3.722,0,0,1,.5-1.294c1.47-2.464-.524-3.778-.486-5.863C3.749,3.778,5.742,2.462,4.273,0H.5C1.969,2.462-.027,3.778.011,5.861-.027,7.946,1.969,9.26.5,11.724A3.723,3.723,0,0,0,0,13.017Z" transform="translate(17.955 2.852)"/>
    <path id="Path-21" data-name="Path" class="cls-8" d="M0,13.017H2.3a3.722,3.722,0,0,1,.5-1.294,3.238,3.238,0,0,0,.471-2.446c-.236-1.144-.981-2.134-.957-3.417-.025-1.278.718-2.266.954-3.41A3.227,3.227,0,0,0,2.8,0H.5C1.969,2.462-.025,3.778.013,5.861-.024,7.946,1.969,9.26.5,11.724A3.687,3.687,0,0,0,0,13.017Z" transform="translate(20.993 2.852)"/>
    <path id="Path-22" data-name="Path" class="cls-8" d="M0,13.017H2.3a3.678,3.678,0,0,1,.5-1.294C4.27,9.26,2.277,7.946,2.315,5.861,2.277,3.778,4.27,2.462,2.8,0H.5C1.967,2.462-.027,3.778.011,5.861-.027,7.946,1.967,9.26.5,11.724A3.723,3.723,0,0,0,0,13.017Z" transform="translate(16.388 2.852)"/>
    <path id="Path-23" data-name="Path" class="cls-10" d="M.339,2.745H14.287a.339.339,0,0,0,.339-.339V0H0V2.406A.339.339,0,0,0,.339,2.745Z" transform="translate(9.317 30.345)"/>
    <path id="Path-24" data-name="Path" class="cls-11" d="M3.479,2.406V0H.339V2.406A.34.34,0,0,1,0,2.745H3.14A.339.339,0,0,0,3.479,2.406Z" transform="translate(20.464 30.345)"/>
    <path id="Path-25" data-name="Path" class="cls-9" d="M2.734,2.593a.562.562,0,0,1-.143.018.591.591,0,0,1-.572-.447A1.826,1.826,0,0,0,.641.676,3.161,3.161,0,0,0,0,.453,6.951,6.951,0,0,1,1.742,0h0A2.7,2.7,0,0,1,3.163,1.877.589.589,0,0,1,2.734,2.593Z" transform="translate(24.739 11.47)"/>
    <path id="Path-26" data-name="Path" class="cls-4" d="M.591,1.182a.586.586,0,0,1-.416-.172l0,0a.589.589,0,1,1,.418.174Z" transform="translate(4.387 20.094)"/>
    <path id="Path-27" data-name="Path" class="cls-4" d="M.591,1.182a.586.586,0,0,1-.416-.172l0,0a.589.589,0,1,1,.418.174Z" transform="translate(8.272 20.094)"/>
    <path id="Path-28" data-name="Path" class="cls-4" d="M.591,1.182a.586.586,0,0,1-.416-.172l0,0a.589.589,0,1,1,.418.174Z" transform="translate(12.154 20.094)"/>
    <path id="Path-29" data-name="Path" class="cls-4" d="M.591,1.182a.586.586,0,0,1-.416-.172l0,0a.589.589,0,1,1,.418.174Z" transform="translate(16.039 20.094)"/>
    <path id="Path-30" data-name="Path" class="cls-4" d="M.591,1.182a.586.586,0,0,1-.416-.172l0,0a.589.589,0,1,1,.418.174Z" transform="translate(19.923 20.094)"/>
    <path id="Path-31" data-name="Path" class="cls-4" d="M.591,1.182a.586.586,0,0,1-.416-.172l0,0a.589.589,0,1,1,.418.174Z" transform="translate(23.805 20.094)"/>
    <path id="Path-32" data-name="Path" class="cls-4" d="M.591,1.182a.586.586,0,0,1-.416-.172l0,0a.589.589,0,1,1,.418.174Z" transform="translate(27.69 20.094)"/>
    <path id="Path-33" data-name="Path" class="cls-9" d="M29.754,0H0V1.18H29.754Z" transform="translate(9.343 2.262)"/>
  </g>
</svg>
