<svg xmlns="http://www.w3.org/2000/svg" width="28.16" height="28.16" viewBox="0 0 28.16 28.16">
  <defs>
    <style>
      .cls-1 {
        fill: #de4959;
      }
    </style>
  </defs>
  <g id="settings" transform="translate(0)">
    <path id="Shape" class="cls-1" d="M6.864,18.656a1.158,1.158,0,0,1-.447-.089L4.854,17.92a1.188,1.188,0,0,1-.695-1.375c.076-.307.162-.639.263-1.015a7.916,7.916,0,0,1-1.3-1.3c-.4.108-.726.191-1.015.263a1.16,1.16,0,0,1-.279.034,1.2,1.2,0,0,1-1.1-.729L.089,12.239A1.186,1.186,0,0,1,.57,10.777c.274-.165.569-.34.9-.533a7.9,7.9,0,0,1,0-1.832C1.09,8.19.82,8.03.57,7.879A1.186,1.186,0,0,1,.089,6.417L.736,4.854A1.2,1.2,0,0,1,1.83,4.124a1.156,1.156,0,0,1,.28.034c.295.073.617.157,1.016.263a7.846,7.846,0,0,1,1.3-1.3c-.093-.346-.181-.688-.263-1.015A1.188,1.188,0,0,1,4.854.736L6.416.089A1.164,1.164,0,0,1,6.864,0,1.188,1.188,0,0,1,7.88.57c.178.3.357.6.532.9a7.9,7.9,0,0,1,1.832,0c.181-.314.36-.618.532-.9A1.19,1.19,0,0,1,11.792,0a1.161,1.161,0,0,1,.447.089L13.8.736A1.188,1.188,0,0,1,14.5,2.11c-.084.336-.172.677-.263,1.016a7.886,7.886,0,0,1,1.3,1.3c.384-.1.717-.189,1.015-.263a1.161,1.161,0,0,1,.28-.034,1.2,1.2,0,0,1,1.095.729l.647,1.563a1.186,1.186,0,0,1-.481,1.463c-.3.178-.6.357-.9.532a7.906,7.906,0,0,1,0,1.832c.326.189.63.368.9.533a1.186,1.186,0,0,1,.481,1.462L17.92,13.8a1.2,1.2,0,0,1-1.095.729,1.161,1.161,0,0,1-.28-.034c-.34-.085-.682-.173-1.015-.263a7.888,7.888,0,0,1-1.3,1.3c.094.348.182.69.263,1.015A1.186,1.186,0,0,1,13.8,17.92l-1.562.647a1.164,1.164,0,0,1-.448.089,1.188,1.188,0,0,1-1.015-.57c-.194-.324-.368-.62-.532-.9a7.9,7.9,0,0,1-1.832,0c-.171.3-.345.591-.532.9A1.19,1.19,0,0,1,6.864,18.656Zm3.425-2.74a1.185,1.185,0,0,1,1.022.593c.164.284.335.576.509.867l1.436-.595c-.085-.339-.168-.658-.253-.973a1.177,1.177,0,0,1,.412-1.238,6.63,6.63,0,0,0,1.153-1.154,1.169,1.169,0,0,1,.928-.453,1.192,1.192,0,0,1,.31.041c.31.083.638.168.974.253l.595-1.437c-.26-.156-.552-.328-.868-.509a1.177,1.177,0,0,1-.584-1.167,6.643,6.643,0,0,0,0-1.632,1.175,1.175,0,0,1,.584-1.166c.308-.178.6-.349.867-.509L16.781,5.4c-.339.085-.657.167-.973.253a1.193,1.193,0,0,1-.31.041,1.169,1.169,0,0,1-.928-.453,6.569,6.569,0,0,0-1.154-1.153A1.179,1.179,0,0,1,13,2.848c.078-.29.159-.6.254-.974L11.82,1.28c-.152.254-.324.546-.509.867a1.176,1.176,0,0,1-1.167.584,6.591,6.591,0,0,0-1.631,0,1.177,1.177,0,0,1-1.167-.584c-.177-.307-.348-.6-.509-.867L5.4,1.875c.07.282.153.6.253.973A1.177,1.177,0,0,1,5.24,4.086,6.594,6.594,0,0,0,4.087,5.239a1.168,1.168,0,0,1-.929.454,1.188,1.188,0,0,1-.31-.041c-.369-.1-.688-.181-.974-.253L1.28,6.835c.26.157.551.328.867.509a1.177,1.177,0,0,1,.584,1.168,6.64,6.64,0,0,0,0,1.631,1.179,1.179,0,0,1-.584,1.167c-.3.175-.6.346-.867.509l.595,1.436c.282-.07.591-.151.973-.253a1.192,1.192,0,0,1,.31-.041,1.169,1.169,0,0,1,.928.453A6.63,6.63,0,0,0,5.24,14.569a1.177,1.177,0,0,1,.412,1.238c-.095.354-.178.673-.253.974l1.436.595c.157-.262.329-.554.509-.868a1.176,1.176,0,0,1,1.168-.583,6.68,6.68,0,0,0,1.631,0A1.18,1.18,0,0,1,10.289,15.916Z" transform="translate(0 9.504)"/>
    <path id="Shape-2" data-name="Shape" class="cls-1" d="M4.3,8.594A4.3,4.3,0,0,1,2.652.327a4.294,4.294,0,0,1,5.61,5.612A4.3,4.3,0,0,1,4.3,8.594Zm0-7.333a3.009,3.009,0,0,0-1.157.23,3.037,3.037,0,1,0,1.157-.23Z" transform="translate(5.032 14.536)"/>
    <path id="Shape-3" data-name="Shape" class="cls-1" d="M7.769,14.308H6.539a1,1,0,0,1-.988-.85c-.033-.225-.065-.449-.094-.666a5.83,5.83,0,0,1-1.09-.452c-.175.134-.352.267-.538.4a1.006,1.006,0,0,1-1.3-.1l-.869-.869a1.006,1.006,0,0,1-.1-1.3c.124-.168.261-.348.4-.537a5.846,5.846,0,0,1-.452-1.091c-.231-.03-.455-.062-.666-.094A1,1,0,0,1,0,7.769V6.539a1,1,0,0,1,.85-.988c.225-.033.449-.065.666-.094a5.905,5.905,0,0,1,.452-1.091c-.163-.213-.291-.384-.4-.537a1,1,0,0,1,.1-1.3L2.53,1.66a1,1,0,0,1,1.3-.1c.194.143.389.291.538.4a5.83,5.83,0,0,1,1.09-.452c.03-.231.062-.455.094-.666A1,1,0,0,1,6.539,0H7.769a1,1,0,0,1,.988.85c.033.225.065.449.094.666a5.846,5.846,0,0,1,1.091.452c.185-.141.366-.277.537-.4a1,1,0,0,1,1.3.1l.869.869a1.006,1.006,0,0,1,.1,1.3c-.124.168-.261.348-.4.537a5.866,5.866,0,0,1,.452,1.091c.231.03.455.062.666.094a1,1,0,0,1,.85.988V7.769a1,1,0,0,1-.85.988c-.207.031-.425.062-.666.094a5.862,5.862,0,0,1-.452,1.09c.135.175.267.351.4.537a1.006,1.006,0,0,1-.1,1.3l-.869.869a1.006,1.006,0,0,1-1.3.1c-.176-.132-.358-.267-.537-.4a5.846,5.846,0,0,1-1.091.452c-.03.231-.062.455-.094.666A1,1,0,0,1,7.769,14.308ZM4.35,11.1a1,1,0,0,1,.492.13,4.655,4.655,0,0,0,1.063.441,1,1,0,0,1,.723.834c.027.2.054.4.083.6H7.6c.028-.194.056-.4.083-.6a.994.994,0,0,1,.724-.833,4.667,4.667,0,0,0,1.063-.441,1,1,0,0,1,1.1.078c.144.111.3.228.484.367l.627-.627c-.1-.139-.22-.293-.367-.484a1,1,0,0,1-.078-1.1A4.667,4.667,0,0,0,11.676,8.4a1,1,0,0,1,.834-.724c.193-.025.4-.053.6-.083V6.71l-.6-.083a.994.994,0,0,1-.833-.723,4.656,4.656,0,0,0-.441-1.063,1,1,0,0,1,.078-1.1c.145-.19.262-.343.367-.484l-.627-.627c-.164.122-.33.248-.484.366a1.007,1.007,0,0,1-.611.208.993.993,0,0,1-.491-.13A4.706,4.706,0,0,0,8.4,2.632.994.994,0,0,1,7.681,1.8c-.025-.194-.053-.4-.083-.6H6.71c-.028.191-.056.393-.083.6a1,1,0,0,1-.723.834,4.628,4.628,0,0,0-1.063.44A1,1,0,0,1,3.74,3c-.144-.111-.315-.241-.484-.366l-.626.627c.1.136.217.29.366.483a1,1,0,0,1,.078,1.1A4.659,4.659,0,0,0,2.632,5.9a.994.994,0,0,1-.833.723c-.191.025-.394.053-.6.083V7.6c.194.028.4.056.6.083a.994.994,0,0,1,.833.724,4.706,4.706,0,0,0,.441,1.063A1,1,0,0,1,3,10.569c-.12.155-.243.318-.366.484l.626.627c.188-.14.342-.257.484-.367A1,1,0,0,1,4.35,11.1Z" transform="translate(13.852)"/>
    <path id="Shape-4" data-name="Shape" class="cls-1" d="M2.552,5.1A2.552,2.552,0,1,1,5.1,2.552,2.555,2.555,0,0,1,2.552,5.1Zm0-3.97A1.418,1.418,0,1,0,3.97,2.552,1.42,1.42,0,0,0,2.552,1.134Z" transform="translate(18.454 4.602)"/>
  </g>
</svg>
