<svg xmlns="http://www.w3.org/2000/svg" width="32" height="20" viewBox="0 0 32 20">
  <defs>
    <style>
      .cls-1 {
        fill: #de4959;
      }
    </style>
  </defs>
  <g id="cap" transform="translate(0)">
    <path id="Shape" class="cls-1" d="M8.061,20a9.6,9.6,0,0,1-6.85-2.847L0,15.936V13.549l7.879-1.914A12.324,12.324,0,0,1,11.838,4.87,12.145,12.145,0,0,1,22.3,2.141a1.25,1.25,0,1,1,1.221.324A12.327,12.327,0,0,1,29.6,6.846,12.176,12.176,0,0,1,32,14.131a12.393,12.393,0,0,1-.28,2.616l-.162.745-.759,0a63.351,63.351,0,0,1-14.5-1.733l-1.39,1.4A9.6,9.6,0,0,1,8.061,20Zm.571-6.61h0L1.875,15.031v.124l.662.666a7.794,7.794,0,0,0,11.048,0l.608-.61c-1.874-.519-3.745-1.132-5.561-1.822Zm13.7-9.309h0a10.369,10.369,0,0,0-5.391,9.108c0,.246.01.5.031.789A61.543,61.543,0,0,0,30.022,15.6a10.541,10.541,0,0,0,.1-1.466,10.372,10.372,0,0,0-7.8-10.05Zm-2.873-.305a10.3,10.3,0,0,0-6.39,2.518,10.444,10.444,0,0,0-3.3,5.509c1.722.639,3.507,1.21,5.306,1.7l0-.1c0-.07,0-.14,0-.209a12.247,12.247,0,0,1,4.393-9.413Z"/>
  </g>
</svg>
