<svg xmlns="http://www.w3.org/2000/svg" width="22" height="26" viewBox="0 0 22 26">
  <defs>
    <style>
      .cls-1 {
        fill: #de4959;
      }
    </style>
  </defs>
  <g id="sent" transform="translate(0)">
    <path id="Shape" class="cls-1" d="M20.259,26H1.741A1.769,1.769,0,0,1,0,24.208V7.736a1.315,1.315,0,0,1,.078-.448A.775.775,0,0,1,.149,7.11L3.722.732A1.419,1.419,0,0,1,4.953,0h12.1a1.418,1.418,0,0,1,1.23.73l3.515,6.254a1.3,1.3,0,0,1,.089.158l.019.033a.772.772,0,0,1,.1.435c0,.022,0,.043,0,.066V24.208A1.769,1.769,0,0,1,20.259,26ZM1.481,7.968v16.24a.265.265,0,0,0,.26.268H20.259a.265.265,0,0,0,.26-.268V7.968ZM11.766,1.524h0V6.443h8.013L17.014,1.524H11.766Zm-6.779,0L2.232,6.443h8.053V1.524h-5.3Z"/>
    <path id="Path" class="cls-1" d="M6.786.2A.754.754,0,0,0,5.755.2L2.5,3.317,1.245,2.12a.754.754,0,0,0-1.032,0,.676.676,0,0,0,0,.986L1.982,4.8a.753.753,0,0,0,1.032,0L6.786,1.19A.676.676,0,0,0,6.786.2Z" transform="translate(8 14)"/>
  </g>
</svg>
