<svg id="file" xmlns="http://www.w3.org/2000/svg" width="28.8" height="28.8" viewBox="0 0 28.8 28.8">
  <defs>
    <style>
      .cls-1 {
        fill: #de4959;
      }
    </style>
  </defs>
  <path id="Shape" class="cls-1" d="M21.178,26.1H4.847A5.163,5.163,0,0,1,0,21V19.73a.994.994,0,0,1,.82-.922H5.034L5.183.695a.6.6,0,0,1,0-.081A.678.678,0,0,1,5.853,0a.663.663,0,0,1,.075,0H25.279A.828.828,0,0,1,26.1.772V21.035A5,5,0,0,1,21.178,26.1ZM6.674,1.539,6.525,18.808H16.853c.4,0,.671.486.671.922V21a3.544,3.544,0,1,0,7.085,0V1.539Zm-5.183,18.8h0V21a3.676,3.676,0,0,0,1.063,2.528,3.471,3.471,0,0,0,2.478,1.041H17.524A5.044,5.044,0,0,1,16.033,21v-.652Z" transform="translate(0 2.7)"/>
  <path id="Path" class="cls-1" d="M.738,1.8H6.462A.831.831,0,0,0,7.2.9.831.831,0,0,0,6.462,0H.738A.831.831,0,0,0,0,.9.831.831,0,0,0,.738,1.8Z" transform="translate(8.1 8.1)"/>
  <path id="Path-2" data-name="Path" class="cls-1" d="M.761,1.8H12.739A.839.839,0,0,0,13.5.9a.839.839,0,0,0-.761-.9H.761A.839.839,0,0,0,0,.9.839.839,0,0,0,.761,1.8Z" transform="translate(8.1 12.6)"/>
  <path id="Path-3" data-name="Path" class="cls-1" d="M.761,1.8H12.739A.839.839,0,0,0,13.5.9a.839.839,0,0,0-.761-.9H.761A.839.839,0,0,0,0,.9.839.839,0,0,0,.761,1.8Z" transform="translate(8.1 17.1)"/>
  <path id="Path-4" data-name="Path" class="cls-1" d="M19.888,0H.738A.75.75,0,0,0,0,.762a.75.75,0,0,0,.738.762H19.224V20.838a.738.738,0,1,0,1.476,0V.762A.822.822,0,0,0,19.888,0Z" transform="translate(8.1)"/>
</svg>
