<svg xmlns="http://www.w3.org/2000/svg" xmlns:xlink="http://www.w3.org/1999/xlink" width="39" height="39.956" viewBox="0 0 39 39.956">
  <defs>
    <linearGradient id="linear-gradient" x1="0.496" y1="0.116" x2="0.563" y2="1.389" gradientUnits="objectBoundingBox">
      <stop offset="0" stop-color="#faa68e"/>
      <stop offset="0.206" stop-color="#fba682"/>
      <stop offset="0.581" stop-color="#fda861"/>
      <stop offset="1" stop-color="#ffa936"/>
    </linearGradient>
    <linearGradient id="linear-gradient-2" x1="0.587" y1="1.089" x2="0.342" y2="-0.904" gradientUnits="objectBoundingBox">
      <stop offset="0" stop-color="#f82814" stop-opacity="0"/>
      <stop offset="0.245" stop-color="#f12817" stop-opacity="0.243"/>
      <stop offset="0.605" stop-color="#dd2820" stop-opacity="0.604"/>
      <stop offset="1" stop-color="#c0272d"/>
    </linearGradient>
    <linearGradient id="linear-gradient-3" x1="0.615" y1="0.563" x2="0.364" y2="-0.243" xlink:href="#linear-gradient-2"/>
    <linearGradient id="linear-gradient-4" x1="0.907" y1="1.16" x2="-0.37" y2="-0.833" xlink:href="#linear-gradient-2"/>
    <linearGradient id="linear-gradient-5" x1="0.906" y1="1.166" x2="-0.371" y2="-0.827" xlink:href="#linear-gradient-2"/>
    <linearGradient id="linear-gradient-6" x1="0.905" y1="1.183" x2="-0.373" y2="-0.811" xlink:href="#linear-gradient-2"/>
    <linearGradient id="linear-gradient-7" x1="0.299" y1="1.247" x2="0.932" y2="-1.033" xlink:href="#linear-gradient-2"/>
    <linearGradient id="linear-gradient-8" x1="0.299" y1="1.252" x2="0.933" y2="-1.029" xlink:href="#linear-gradient-2"/>
    <linearGradient id="linear-gradient-9" x1="0.302" y1="1.264" x2="0.935" y2="-1.017" xlink:href="#linear-gradient-2"/>
    <linearGradient id="linear-gradient-10" x1="0.5" y1="0.31" x2="0.5" y2="1.368" xlink:href="#linear-gradient-2"/>
    <linearGradient id="linear-gradient-11" x1="0.5" y1="0.096" x2="0.5" y2="1.143" gradientUnits="objectBoundingBox">
      <stop offset="0" stop-color="#a57c52"/>
      <stop offset="0.134" stop-color="#a26c4a"/>
      <stop offset="0.516" stop-color="#994336"/>
      <stop offset="0.817" stop-color="#942a2a"/>
      <stop offset="1" stop-color="#922125"/>
    </linearGradient>
    <linearGradient id="linear-gradient-12" x1="0.505" y1="0.575" x2="0.496" y2="-0.283" gradientUnits="objectBoundingBox">
      <stop offset="0" stop-color="#42210b" stop-opacity="0"/>
      <stop offset="1" stop-color="#42210b"/>
    </linearGradient>
    <linearGradient id="linear-gradient-13" x1="0.807" y1="0.937" x2="0.325" y2="0.111" xlink:href="#linear-gradient-12"/>
    <linearGradient id="linear-gradient-14" x1="0.546" y1="1.139" x2="0.493" y2="0.366" xlink:href="#linear-gradient-12"/>
    <linearGradient id="linear-gradient-15" x1="0.419" y1="0.088" x2="0.825" y2="0.781" gradientUnits="objectBoundingBox">
      <stop offset="0" stop-color="#ffd945"/>
      <stop offset="0.304" stop-color="#ffcd3e"/>
      <stop offset="0.856" stop-color="#ffad2b"/>
      <stop offset="1" stop-color="#ffa325"/>
    </linearGradient>
    <linearGradient id="linear-gradient-16" x1="0.5" y1="0.355" x2="0.5" y2="1.112" gradientUnits="objectBoundingBox">
      <stop offset="0" stop-color="#bada00"/>
      <stop offset="0.227" stop-color="#b0ce00"/>
      <stop offset="0.638" stop-color="#95ae00"/>
      <stop offset="1" stop-color="#798c00"/>
    </linearGradient>
    <linearGradient id="linear-gradient-17" x1="0.499" y1="0.861" x2="0.501" y2="0.155" gradientUnits="objectBoundingBox">
      <stop offset="0" stop-color="#798c00" stop-opacity="0"/>
      <stop offset="0.654" stop-color="#556100" stop-opacity="0.655"/>
      <stop offset="1" stop-color="#464f00"/>
    </linearGradient>
    <linearGradient id="linear-gradient-18" x1="0.577" y1="0.89" x2="0.236" y2="-0.42" xlink:href="#linear-gradient-17"/>
    <linearGradient id="linear-gradient-19" x1="0.635" y1="1.058" x2="0.345" y2="0.204" xlink:href="#linear-gradient-17"/>
    <linearGradient id="linear-gradient-20" x1="0.351" y1="0.239" x2="0.791" y2="0.788" gradientUnits="objectBoundingBox">
      <stop offset="0" stop-color="#ffdecf"/>
      <stop offset="0.379" stop-color="#fdc4b0"/>
      <stop offset="0.766" stop-color="#fbae97"/>
      <stop offset="1" stop-color="#faa68e"/>
    </linearGradient>
    <linearGradient id="linear-gradient-21" x1="0.5" y1="0.511" x2="0.5" y2="0.986" gradientUnits="objectBoundingBox">
      <stop offset="0" stop-color="#ff6359"/>
      <stop offset="0.224" stop-color="#fe5b50"/>
      <stop offset="0.595" stop-color="#fc4637"/>
      <stop offset="1" stop-color="#f82814"/>
    </linearGradient>
    <linearGradient id="linear-gradient-22" x1="0.563" y1="1.18" x2="0.414" y2="0.088" gradientUnits="objectBoundingBox">
      <stop offset="0" stop-color="#f82814" stop-opacity="0"/>
      <stop offset="1" stop-color="#c0272d"/>
    </linearGradient>
    <linearGradient id="linear-gradient-23" x1="0.607" y1="1.091" x2="0.531" y2="0.537" xlink:href="#linear-gradient-22"/>
    <linearGradient id="linear-gradient-26" x1="0.637" y1="1.203" x2="0.452" y2="0.172" xlink:href="#linear-gradient-12"/>
    <linearGradient id="linear-gradient-28" x1="0.528" y1="1.044" x2="0.399" y2="0.284" xlink:href="#linear-gradient-12"/>
    <linearGradient id="linear-gradient-33" x1="0.499" y1="1.011" x2="0.5" y2="0.22" xlink:href="#linear-gradient-22"/>
    <linearGradient id="linear-gradient-34" x1="0.448" y1="0.135" x2="0.541" y2="1.126" xlink:href="#linear-gradient"/>
    <linearGradient id="linear-gradient-35" x1="0.916" y1="1.148" x2="-0.362" y2="-0.846" xlink:href="#linear-gradient-2"/>
    <linearGradient id="linear-gradient-36" x1="0.917" y1="1.151" x2="-0.361" y2="-0.843" xlink:href="#linear-gradient-2"/>
    <linearGradient id="linear-gradient-37" x1="0.923" y1="1.157" x2="-0.355" y2="-0.837" xlink:href="#linear-gradient-2"/>
    <linearGradient id="linear-gradient-38" x1="0.302" y1="1.234" x2="0.936" y2="-1.047" xlink:href="#linear-gradient-2"/>
    <linearGradient id="linear-gradient-39" x1="0.303" y1="1.235" x2="0.937" y2="-1.046" xlink:href="#linear-gradient-2"/>
    <linearGradient id="linear-gradient-40" x1="0.308" y1="1.236" x2="0.942" y2="-1.044" xlink:href="#linear-gradient-2"/>
    <linearGradient id="linear-gradient-41" x1="0.5" y1="0.259" x2="0.5" y2="1.259" gradientUnits="objectBoundingBox">
      <stop offset="0" stop-color="#f82814" stop-opacity="0"/>
      <stop offset="0.25" stop-color="#f32816" stop-opacity="0.251"/>
      <stop offset="0.542" stop-color="#e5281d" stop-opacity="0.541"/>
      <stop offset="0.855" stop-color="#ce2727" stop-opacity="0.855"/>
      <stop offset="1" stop-color="#c0272d"/>
    </linearGradient>
    <linearGradient id="linear-gradient-42" x1="0.452" y1="0.18" x2="0.634" y2="1.388" xlink:href="#linear-gradient-20"/>
    <linearGradient id="linear-gradient-46" x1="0.452" y1="0.18" x2="0.634" y2="1.388" xlink:href="#linear-gradient-20"/>
    <linearGradient id="linear-gradient-56" x1="0.486" y1="0.183" x2="0.562" y2="1.358" xlink:href="#linear-gradient-20"/>
    <linearGradient id="linear-gradient-57" x1="0.543" y1="0.192" x2="0.466" y2="1.367" xlink:href="#linear-gradient-20"/>
  </defs>
  <g id="burger" transform="translate(0 -0.134)">
    <g id="Group" transform="translate(1 32.134)">
      <path id="Path" d="M0,1.307A5.434,5.434,0,0,0,4.317,6.625,74.692,74.692,0,0,0,18.965,7.908,74.692,74.692,0,0,0,33.614,6.625,5.434,5.434,0,0,0,37.93,1.307,1.3,1.3,0,0,0,36.243.06c-3.765,1.181-10.1,1.956-17.278,1.956S5.453,1.241,1.687.06A1.3,1.3,0,0,0,0,1.307Z" transform="translate(0.034 0.048)" fill="url(#linear-gradient)"/>
      <path id="Path-2" data-name="Path" d="M0,.864,5.946,6.815A71.069,71.069,0,0,0,18.61,5.553,5.421,5.421,0,0,0,21.1,4.3L16.8,0A80.334,80.334,0,0,1,3.961.944C2.607.944,1.283.916,0,.864Z" transform="translate(15.038 1.12)" fill="url(#linear-gradient-2)"/>
      <path id="Path-3" data-name="Path" d="M5.809.06A37.452,37.452,0,0,1,0,1.282l4.745,4.75A5.434,5.434,0,0,0,7.5,1.307,1.3,1.3,0,0,0,5.809.06Z" transform="translate(30.468 0.048)" fill="url(#linear-gradient-3)"/>
      <g id="Group-2" data-name="Group" transform="translate(3.482 2.425)" opacity="0.6">
        <g id="Group-3" data-name="Group">
          <ellipse id="Oval" cx="0.638" cy="0.639" rx="0.638" ry="0.639" transform="translate(1.116 0.033)" fill="url(#linear-gradient-4)"/>
          <ellipse id="Oval-2" data-name="Oval" cx="0.504" cy="0.504" rx="0.504" ry="0.504" transform="translate(0.065 1.819)" fill="url(#linear-gradient-5)"/>
          <ellipse id="Oval-3" data-name="Oval" cx="0.304" cy="0.304" rx="0.304" ry="0.304" transform="translate(2.461 2.443)" fill="url(#linear-gradient-6)"/>
        </g>
        <g id="Group-4" data-name="Group" transform="translate(3.255 0.682)">
          <ellipse id="Oval-4" data-name="Oval" cx="0.471" cy="0.472" rx="0.471" ry="0.472" transform="translate(1.401 0)" fill="url(#linear-gradient-7)"/>
          <ellipse id="Oval-5" data-name="Oval" cx="0.372" cy="0.373" rx="0.372" ry="0.373" transform="translate(0.008 0.26)" fill="url(#linear-gradient-8)"/>
          <ellipse id="Oval-6" data-name="Oval" cx="0.224" cy="0.225" rx="0.224" ry="0.225" transform="translate(1.005 1.827)" fill="url(#linear-gradient-9)"/>
        </g>
      </g>
      <path id="Path-4" data-name="Path" d="M0,0A5.433,5.433,0,0,0,3.883,3.192,74.692,74.692,0,0,0,18.531,4.474,74.692,74.692,0,0,0,33.18,3.192,5.433,5.433,0,0,0,37.063,0Z" transform="translate(0.467 3.481)" fill="url(#linear-gradient-10)"/>
    </g>
    <path id="Path-5" data-name="Path" d="M0,1.322V2.561A3.922,3.922,0,0,0,2.912,6.372,68.8,68.8,0,0,0,19,8,68.8,68.8,0,0,0,35.088,6.372,3.922,3.922,0,0,0,38,2.561V1.322A1.307,1.307,0,0,0,36.31.061C32.537,1.255,26.193,2.04,19,2.04S5.463,1.255,1.69.061A1.307,1.307,0,0,0,0,1.322Z" transform="translate(1 26.134)" fill="url(#linear-gradient-11)"/>
    <path id="Path-6" data-name="Path" d="M36.29.061C32.474,1.255,26.057,2.04,18.78,2.04S5.086,1.255,1.27.061A1.307,1.307,0,0,0,0,.339l6.885,6.88A84.61,84.61,0,0,0,18.78,8,70.371,70.371,0,0,0,35.054,6.372,3.93,3.93,0,0,0,38,2.561V1.322A1.319,1.319,0,0,0,36.29.061Z" transform="translate(1 26.134)" fill="url(#linear-gradient-12)"/>
    <path id="Path-7" data-name="Path" d="M10,2.474V1.618L8.318,0C8.3.005,8.274.009,8.253.015A46.29,46.29,0,0,1,0,1.5V3.59A1.5,1.5,0,0,0,.568,4.759L2.9,7c1.521-.223,2.9-.484,4.092-.779A3.894,3.894,0,0,0,10,2.474Z" transform="translate(29 26.134)" fill="url(#linear-gradient-13)"/>
    <path id="Path-8" data-name="Path" d="M16.761,0c-2.554.224-5.368.349-8.325.349S2.69.225.146,0a1.05,1.05,0,0,0,.19,1.3L5.208,5.949Q6.787,6,8.436,6A83.079,83.079,0,0,0,22,4.991Z" transform="translate(11 28.134)" fill="url(#linear-gradient-14)"/>
    <path id="Path-9" data-name="Path" d="M16.18,1.146a26.3,26.3,0,0,0-15.36,0A1.166,1.166,0,0,0,.339,3.081l5.955,6a3.1,3.1,0,0,0,4.412,0l5.955-6A1.166,1.166,0,0,0,16.18,1.146Z" transform="translate(11 26.134)" fill="url(#linear-gradient-15)"/>
    <path id="Path-10" data-name="Path" d="M38,4.336c0-5.782-38-5.782-38,0,0,1,1.13,1.822,3,2.475A4.852,4.852,0,0,1,4.83,7.956l.056.056a3.768,3.768,0,0,0,4.223.816h0a3.748,3.748,0,0,1,3.729.391l.105.075a3.7,3.7,0,0,0,4.068.186l.1-.058a3.692,3.692,0,0,1,3.782,0l.1.058a3.7,3.7,0,0,0,4.068-.186l.127-.091a3.7,3.7,0,0,1,3.706-.374,3.726,3.726,0,0,0,4.2-.8l.076-.076A4.851,4.851,0,0,1,35,6.811C36.87,6.158,38,5.333,38,4.336Z" transform="translate(1 21.134)" fill="url(#linear-gradient-16)"/>
    <path id="Path-11" data-name="Path" d="M37,4.336c0,1-1.13,1.821-3,2.474a4.86,4.86,0,0,0-1.828,1.145l-.076.076A3.778,3.778,0,0,1,29.425,9.16,3.674,3.674,0,0,1,27.9,8.827a3.7,3.7,0,0,0-3.7.375l-.127.091A3.7,3.7,0,0,1,20,9.479l-.1-.059a3.688,3.688,0,0,0-3.78,0l-.1.057a3.694,3.694,0,0,1-4.065-.186l-.105-.075A3.742,3.742,0,0,0,8.13,8.827h0a3.708,3.708,0,0,1-2.591.166L.651,3.732A3.49,3.49,0,0,1,0,2.837C2.186,1.28,7.776.364,13.967.089c2.659-.118,5.431-.118,8.09,0C30.028.443,37,1.859,37,4.336Z" transform="translate(1 21.134)" fill="url(#linear-gradient-17)"/>
    <path id="Path-12" data-name="Path" d="M10.128,0A41.945,41.945,0,0,0,0,1.616a1.516,1.516,0,0,0,.568.9l5.469,5.5c.075-.026.15-.053.224-.084h0a3.9,3.9,0,0,1,3.664.359l.1.069a3.85,3.85,0,0,0,4,.17l.1-.053a3.85,3.85,0,0,1,3.717,0l.1.053A3.847,3.847,0,0,0,19,8.915Z" transform="translate(3 22.134)" fill="url(#linear-gradient-18)"/>
    <path id="Path-13" data-name="Path" d="M6.717,0H0V4.531a4.355,4.355,0,0,1,.586.177,4.372,4.372,0,0,0,4.351-.7l.079-.067A5.223,5.223,0,0,1,6.91,2.937,9.248,9.248,0,0,0,9,2.083Z" transform="translate(29 25.134)" fill="url(#linear-gradient-19)"/>
    <path id="Path-14" data-name="Path" d="M0,0V5.4A1.63,1.63,0,0,0,1.656,7,1.63,1.63,0,0,0,3.312,5.4V4.3a.574.574,0,0,1,1.147,0v.089A1.271,1.271,0,0,0,7,4.393V0Z" transform="translate(29 25.134)" fill="url(#linear-gradient-20)"/>
    <path id="Path-15" data-name="Path" d="M0,2.609V2.7A3.562,3.562,0,0,0,2.425,6.174,60.789,60.789,0,0,0,18.5,8,60.789,60.789,0,0,0,34.575,6.174,3.562,3.562,0,0,0,37,2.7V2.61A2.45,2.45,0,0,0,34.02.08,62.887,62.887,0,0,1,18.5,1.749,62.892,62.892,0,0,1,2.98.08,2.45,2.45,0,0,0,0,2.609Z" transform="translate(1 20.134)" fill="url(#linear-gradient-21)"/>
    <path id="Path-16" data-name="Path" d="M10.093,1.526A50.442,50.442,0,0,1,.828.08,2.182,2.182,0,0,0,0,.014V3.2A1.731,1.731,0,0,0,.612,4.541l2.035,2.23A67.735,67.735,0,0,0,16,8Z" transform="translate(3 20.134)" fill="url(#linear-gradient-22)"/>
    <path id="Path-17" data-name="Path" d="M16.041,0A68.091,68.091,0,0,1,.785,1.487q-.395,0-.785,0L5.552,7A55.687,55.687,0,0,0,16.661,5.475,3.244,3.244,0,0,0,19,2.94Z" transform="translate(19 20.134)" fill="url(#linear-gradient-23)"/>
    <path id="Path-18" data-name="Path" d="M0,1.322V2.561A3.922,3.922,0,0,0,2.912,6.372,68.8,68.8,0,0,0,19,8,68.8,68.8,0,0,0,35.088,6.372,3.922,3.922,0,0,0,38,2.561V1.322A1.307,1.307,0,0,0,36.31.061C32.537,1.255,26.193,2.04,19,2.04S5.463,1.255,1.69.061A1.307,1.307,0,0,0,0,1.322Z" transform="translate(1 16.134)" fill="url(#linear-gradient-11)"/>
    <path id="Path-19" data-name="Path" d="M36.29.061C32.474,1.255,26.057,2.04,18.78,2.04S5.086,1.255,1.27.061A1.307,1.307,0,0,0,0,.339l6.885,6.88A84.611,84.611,0,0,0,18.78,8,70.37,70.37,0,0,0,35.054,6.372,3.93,3.93,0,0,0,38,2.561V1.322A1.319,1.319,0,0,0,36.29.061Z" transform="translate(1 16.134)" fill="url(#linear-gradient-12)"/>
    <path id="Path-20" data-name="Path" d="M21,4.684,16.358,0A81.119,81.119,0,0,1,3.206.981Q1.586.981.028.929A1.163,1.163,0,0,0,.339,2.008l4.93,4.975L5.881,7a65.027,65.027,0,0,0,13.7-1.618A3.9,3.9,0,0,0,21,4.684Z" transform="translate(16 17.134)" fill="url(#linear-gradient-26)"/>
    <path id="Path-21" data-name="Path" d="M16.18,1.146a26.3,26.3,0,0,0-15.36,0A1.166,1.166,0,0,0,.339,3.081l5.955,6a3.1,3.1,0,0,0,4.412,0l5.955-6a1.166,1.166,0,0,0-.481-1.935Z" transform="translate(16 16.134)" fill="url(#linear-gradient-15)"/>
    <path id="Path-22" data-name="Path" d="M.207,5.36A59.115,59.115,0,0,0,13,7L6.74.344C5.864.243,5.024.128,4.226,0H0V5.3C.068,5.319.137,5.34.207,5.36Z" transform="translate(3 18.134)" fill="url(#linear-gradient-28)"/>
    <path id="Path-23" data-name="Path" d="M0,0V5.4A1.63,1.63,0,0,0,1.656,7,1.63,1.63,0,0,0,3.312,5.4V4.3a.574.574,0,0,1,1.147,0v.089A1.271,1.271,0,0,0,7,4.393V0Z" transform="translate(3 18.134)" fill="url(#linear-gradient-20)"/>
    <path id="Path-24" data-name="Path" d="M38,4.336c0-5.782-38-5.782-38,0,0,1,1.13,1.822,3,2.475A4.852,4.852,0,0,1,4.83,7.956l.056.056a3.768,3.768,0,0,0,4.223.816h0a3.748,3.748,0,0,1,3.729.391l.105.075a3.7,3.7,0,0,0,4.068.186l.1-.058a3.692,3.692,0,0,1,3.782,0l.1.058a3.7,3.7,0,0,0,4.068-.186l.127-.091a3.7,3.7,0,0,1,3.706-.374,3.726,3.726,0,0,0,4.2-.8l.076-.076A4.851,4.851,0,0,1,35,6.811c1.87-.653,3-1.478,3-2.475Z" transform="translate(1 11.134)" fill="url(#linear-gradient-16)"/>
    <path id="Path-25" data-name="Path" d="M37,4.336c0,1-1.13,1.821-3,2.474a4.86,4.86,0,0,0-1.828,1.145l-.076.076A3.778,3.778,0,0,1,29.425,9.16,3.674,3.674,0,0,1,27.9,8.827a3.7,3.7,0,0,0-3.7.375l-.127.091A3.7,3.7,0,0,1,20,9.479l-.1-.059a3.688,3.688,0,0,0-3.78,0l-.1.057a3.694,3.694,0,0,1-4.065-.186l-.105-.075A3.742,3.742,0,0,0,8.13,8.827h0a3.708,3.708,0,0,1-2.591.166L.651,3.732A3.49,3.49,0,0,1,0,2.837C2.186,1.28,7.776.364,13.967.089c2.659-.118,5.431-.118,8.09,0C30.028.443,37,1.859,37,4.336Z" transform="translate(1 11.134)" fill="url(#linear-gradient-17)"/>
    <path id="Path-26" data-name="Path" d="M0,2.609V2.7A3.562,3.562,0,0,0,2.425,6.174,60.789,60.789,0,0,0,18.5,8,60.789,60.789,0,0,0,34.575,6.174,3.562,3.562,0,0,0,37,2.7V2.61A2.451,2.451,0,0,0,34.02.08,62.887,62.887,0,0,1,18.5,1.749,62.891,62.891,0,0,1,2.98.08,2.45,2.45,0,0,0,0,2.609Z" transform="translate(1 10.134)" fill="url(#linear-gradient-21)"/>
    <path id="Path-27" data-name="Path" d="M37,2.61V2.7a3.565,3.565,0,0,1-2.436,3.472A61.329,61.329,0,0,1,18.419,8,69.8,69.8,0,0,1,4.72,6.782L0,1.665A2.373,2.373,0,0,1,2.831.08,63.429,63.429,0,0,0,18.419,1.748,63.428,63.428,0,0,0,34.007.08,2.457,2.457,0,0,1,37,2.61Z" transform="translate(1 10.134)" fill="url(#linear-gradient-33)"/>
    <g id="Group-5" data-name="Group" transform="translate(0 0.134)">
      <path id="Path-28" data-name="Path" d="M39,9.8c0,5.414-39,5.414-39,0S8.73,0,19.5,0,39,4.389,39,9.8Z" transform="translate(0 0.075)" fill="url(#linear-gradient-34)"/>
      <g id="Group-6" data-name="Group" transform="translate(30.971 7.409)" opacity="0.6">
        <g id="Group-7" data-name="Group">
          <ellipse id="Oval-7" data-name="Oval" cx="0.645" cy="0.644" rx="0.645" ry="0.644" transform="translate(1.077 0.043)" fill="url(#linear-gradient-35)"/>
          <ellipse id="Oval-8" data-name="Oval" cx="0.509" cy="0.508" rx="0.509" ry="0.508" transform="translate(0.016 1.843)" fill="url(#linear-gradient-36)"/>
          <ellipse id="Oval-9" data-name="Oval" cx="0.307" cy="0.306" rx="0.307" ry="0.306" transform="translate(2.436 2.472)" fill="url(#linear-gradient-37)"/>
        </g>
        <g id="Group-8" data-name="Group" transform="translate(3.212 0.687)">
          <ellipse id="Oval-10" data-name="Oval" cx="0.476" cy="0.476" rx="0.476" ry="0.476" transform="translate(1.442 0.009)" fill="url(#linear-gradient-38)"/>
          <ellipse id="Oval-11" data-name="Oval" cx="0.376" cy="0.376" rx="0.376" ry="0.376" transform="translate(0.035 0.271)" fill="url(#linear-gradient-39)"/>
          <ellipse id="Oval-12" data-name="Oval" cx="0.227" cy="0.226" rx="0.227" ry="0.226" transform="translate(1.042 1.85)" fill="url(#linear-gradient-40)"/>
        </g>
      </g>
      <path id="Path-29" data-name="Path" d="M0,2.871c0,5.414,39,5.414,39,0A5.482,5.482,0,0,0,38.149,0H.851A5.482,5.482,0,0,0,0,2.871Z" transform="translate(0 7.007)" fill="url(#linear-gradient-41)"/>
    </g>
    <g id="Group-9" data-name="Group" transform="translate(7 0.134)">
      <g id="Group-10" data-name="Group" transform="translate(2.855 7.972)">
        <ellipse id="Oval-13" data-name="Oval" cx="1.049" cy="0.472" rx="1.049" ry="0.472" transform="translate(0.015 0.032)" fill="url(#linear-gradient-42)"/>
        <ellipse id="Oval-14" data-name="Oval" cx="1.049" cy="0.472" rx="1.049" ry="0.472" transform="translate(5.718 0.032)" fill="url(#linear-gradient-42)"/>
        <ellipse id="Oval-15" data-name="Oval" cx="1.049" cy="0.472" rx="1.049" ry="0.472" transform="translate(11.421 0.032)" fill="url(#linear-gradient-42)"/>
        <ellipse id="Oval-16" data-name="Oval" cx="1.049" cy="0.472" rx="1.049" ry="0.472" transform="translate(17.125 0.032)" fill="url(#linear-gradient-42)"/>
      </g>
      <g id="Group-11" data-name="Group" transform="translate(0 5.315)">
        <ellipse id="Oval-17" data-name="Oval" cx="1.049" cy="0.472" rx="1.049" ry="0.472" transform="translate(0.018 0.021)" fill="url(#linear-gradient-46)"/>
        <ellipse id="Oval-18" data-name="Oval" cx="1.049" cy="0.472" rx="1.049" ry="0.472" transform="translate(5.722 0.021)" fill="url(#linear-gradient-46)"/>
        <ellipse id="Oval-19" data-name="Oval" cx="1.049" cy="0.472" rx="1.049" ry="0.472" transform="translate(11.425 0.021)" fill="url(#linear-gradient-46)"/>
        <ellipse id="Oval-20" data-name="Oval" cx="1.049" cy="0.472" rx="1.049" ry="0.472" transform="translate(17.129 0.021)" fill="url(#linear-gradient-46)"/>
        <ellipse id="Oval-21" data-name="Oval" cx="1.049" cy="0.472" rx="1.049" ry="0.472" transform="translate(22.832 0.021)" fill="url(#linear-gradient-46)"/>
      </g>
      <g id="Group-12" data-name="Group" transform="translate(2.855 2.657)">
        <ellipse id="Oval-22" data-name="Oval" cx="1.049" cy="0.472" rx="1.049" ry="0.472" transform="translate(0.015 0.011)" fill="url(#linear-gradient-42)"/>
        <ellipse id="Oval-23" data-name="Oval" cx="1.049" cy="0.472" rx="1.049" ry="0.472" transform="translate(5.718 0.011)" fill="url(#linear-gradient-42)"/>
        <ellipse id="Oval-24" data-name="Oval" cx="1.049" cy="0.472" rx="1.049" ry="0.472" transform="translate(11.421 0.011)" fill="url(#linear-gradient-42)"/>
        <ellipse id="Oval-25" data-name="Oval" cx="1.049" cy="0.472" rx="1.049" ry="0.472" transform="translate(17.125 0.011)" fill="url(#linear-gradient-42)"/>
      </g>
      <ellipse id="Oval-26" data-name="Oval" cx="1.049" cy="0.464" rx="1.049" ry="0.464" transform="translate(11.425 0)" fill="url(#linear-gradient-42)"/>
      <g id="Group-13" data-name="Group" transform="translate(5.786 0.228)">
        <path id="Path-30" data-name="Path" d="M2.061.708c-.05.251-.55.362-1.118.247S-.046.544,0,.293.554-.069,1.122.045s.988.411.938.663Z" transform="translate(11.252 0.046)" fill="url(#linear-gradient-56)"/>
        <path id="Path-31" data-name="Path" d="M0,.708c.05.251.55.362,1.118.247S2.11.544,2.061.293,1.51-.069.942.045-.046.457,0,.708Z" transform="translate(0.059 0.046)" fill="url(#linear-gradient-57)"/>
      </g>
    </g>
  </g>
</svg>
