<svg id="Update_Userpic" data-name="Update Userpic" xmlns="http://www.w3.org/2000/svg" width="86" height="86" viewBox="0 0 86 86">
  <defs>
    <style>
      .cls-1 {
        fill: #fff;
      }

      .cls-2 {
        opacity: 0.3;
      }

      .cls-3, .cls-5 {
        fill: #fd001a;
      }

      .cls-3 {
        opacity: 0.4;
      }

      .cls-4 {
        fill: #030104;
      }
    </style>
  </defs>
  <circle id="Oval" class="cls-1" cx="43" cy="43" r="43"/>
  <g id="update-profile-user" class="cls-2" transform="translate(28 23)">
    <path id="Path" class="cls-3" d="M.257,13a2.466,2.466,0,0,0,.609,1.341C1.456,18.31,4.741,22,7.742,22c3.5,0,6.69-3.99,7.3-7.652A2.455,2.455,0,0,0,15.659,13c.2-.744.461-2.04.006-2.643-.022-.032-.054-.061-.069-.089.42-1.561.956-4.792-.956-6.991a7.077,7.077,0,0,0-3.537-2.2L10.011.7A17.035,17.035,0,0,0,7.022,0a.8.8,0,0,0-.246.019,1.232,1.232,0,0,1-.445.054,2.967,2.967,0,0,0-1.193.2C4.99.341,1.5,1.755.437,5.049c-.1.265-.524,1.666.041,5.1a1.02,1.02,0,0,0-.224.214C-.2,10.964.055,12.257.257,13Z" transform="translate(9)"/>
    <path id="Path-2" data-name="Path" class="cls-3" d="M27.743,3.237s-.144-.048-.364-.117a27.515,27.515,0,0,0-2.965-1.164,8.214,8.214,0,0,1-.83-.327c-1.028-.5-1.89-1.078-2.068-1.617,0,0,.6,5.739-4.453,5.869l-.7-.032C11.791,5.447,11.487,0,11.487,0c-.479,1.493-6.23,3.231-6.23,3.231A5.569,5.569,0,0,0,2.825,4.86C.3,8.589,0,16.873,0,16.873c.032,1.9.855,2.093.855,2.093C6.668,21.54,15.79,21.994,15.79,21.994c.492.013.951-.013,1.408-.041l.01.048s9.122-.46,14.934-3.034c0,0,.823-.2.859-2.086,0,0-.3-8.288-2.828-12.013A5.452,5.452,0,0,0,27.743,3.237Z" transform="translate(0 20)"/>
    <path id="Path-3" data-name="Path" class="cls-4" d="M1.406,1.656c.063-.078.123-.156.189-.234a.739.739,0,0,1-.015-.078C1.526,1.458,1.465,1.545,1.406,1.656Z" transform="translate(20 18)"/>
    <path id="Path-4" data-name="Path" class="cls-4" d="M1.513,1.526,1.5,1.469l-.012.063A.086.086,0,0,1,1.5,1.5.191.191,0,0,1,1.513,1.526Z" transform="translate(11 18)"/>
  </g>
  <g id="Upload_Icon" data-name="Upload Icon" transform="translate(51 56)">
    <circle id="Oval-2" data-name="Oval" class="cls-5" cx="15" cy="15" r="15"/>
    <g id="upload-button" transform="translate(11 10)">
      <path id="Path-5" data-name="Path" class="cls-1" d="M2.571,7.714H6.429V4.154H9L4.5,0,0,4.154H2.571Z"/>
      <rect id="Rectangle" class="cls-1" width="9" height="1.286" transform="translate(0 9)"/>
    </g>
  </g>
</svg>
