<svg id="Burger_1_" xmlns="http://www.w3.org/2000/svg" width="18.073" height="18.073" viewBox="0 0 18.073 18.073">
  <defs>
    <style>
      .cls-1 {
        fill: #fff;
      }
    </style>
  </defs>
  <path id="Path" class="cls-1" d="M14.367,4.236H3.706A3.711,3.711,0,0,1,0,.529.529.529,0,0,1,.529,0H17.544a.529.529,0,0,1,.529.529A3.711,3.711,0,0,1,14.367,4.236Z" transform="translate(0 13.837)"/>
  <path id="Shape" class="cls-1" d="M.529,7.412A.529.529,0,0,1,0,6.883C0,3.088,4.073,0,9.037,0s9.036,3.088,9.036,6.883a.529.529,0,0,1-.529.529Z"/>
</svg>
